M48
; DRILL file {KiCad 9.0.7} date 2026-03-05T22:43:42-0800
; FORMAT={-:-/ absolute / metric / decimal}
; #@! TF.CreationDate,2026-03-05T22:43:42-08:00
; #@! TF.GenerationSoftware,Kicad,Pcbnew,9.0.7
; #@! TF.FileFunction,NonPlated,1,2,NPTH
FMAT,2
METRIC
; #@! TA.AperFunction,NonPlated,NPTH,ComponentDrill
T1C1.700
; #@! TA.AperFunction,NonPlated,NPTH,ComponentDrill
T2C4.000
%
G90
G05
T1
X83.888Y-60.705
X83.888Y-79.755
X83.888Y-98.805
X94.048Y-60.705
X94.048Y-79.755
X94.048Y-98.805
X102.938Y-60.705
X102.938Y-79.755
X102.938Y-98.805
X113.098Y-60.705
X113.098Y-79.755
X113.098Y-98.805
X121.988Y-60.705
X121.988Y-79.755
X121.988Y-98.805
X132.148Y-60.705
X132.148Y-79.755
X132.148Y-98.805
T2
X88.968Y-60.705
X88.968Y-79.755
X88.968Y-98.805
X108.018Y-60.705
X108.018Y-79.755
X108.018Y-98.805
X127.068Y-60.705
X127.068Y-79.755
X127.068Y-98.805
M30
