M48
; DRILL file {KiCad 9.0.7} date 2026-03-05T22:43:42-0800
; FORMAT={-:-/ absolute / metric / decimal}
; #@! TF.CreationDate,2026-03-05T22:43:42-08:00
; #@! TF.GenerationSoftware,Kicad,Pcbnew,9.0.7
; #@! TF.FileFunction,Plated,1,2,PTH
FMAT,2
METRIC
; #@! TA.AperFunction,Plated,PTH,ViaDrill
T1C0.300
; #@! TA.AperFunction,Plated,PTH,ComponentDrill
T2C0.400
; #@! TA.AperFunction,Plated,PTH,ComponentDrill
T3C0.600
; #@! TA.AperFunction,Plated,PTH,ComponentDrill
T4C1.500
%
G90
G05
T1
X91.46Y-39.806
X97.397Y-36.971
X98.238Y-44.74
X104.317Y-116.462
X104.55Y-117.227
X106.007Y-119.585
X108.243Y-109.706
X108.5Y-92.757
X108.5Y-115.4
X109.674Y-105.174
X109.9Y-106.0
X110.5Y-112.725
X111.0Y-116.0
X112.0Y-113.126
X112.524Y-105.902
X113.5Y-77.0
X113.861Y-106.89
X114.0Y-105.902
X114.0Y-118.5
X115.0Y-108.5
X115.0Y-116.0
X115.596Y-109.069
X115.6Y-107.26
X116.411Y-120.839
X116.482Y-109.032
X118.0Y-117.0
X121.0Y-106.0
X121.874Y-114.28
X122.5Y-103.5
X122.5Y-105.591
X122.5Y-113.6
X123.5Y-105.6
X123.697Y-36.894
X124.5Y-106.0
X126.61Y-122.306
X127.5Y-107.0
X127.5Y-108.0
X127.891Y-109.5
X128.491Y-107.098
X130.5Y-71.0
X135.5Y-62.0
X136.0Y-99.5
X137.626Y-104.6
X138.265Y-97.493
X138.5Y-105.5
X139.5Y-106.5
X140.1Y-107.5
X141.0Y-108.0
T2
X107.508Y-35.625
X107.508Y-36.975
X108.358Y-35.625
X108.358Y-36.975
X109.208Y-35.625
X109.208Y-36.975
X110.058Y-35.625
X110.058Y-36.975
X110.908Y-35.625
X110.908Y-36.975
X111.758Y-35.625
X111.758Y-36.975
X112.608Y-35.625
X112.608Y-36.975
X113.458Y-35.625
X113.458Y-36.975
T4
X85.158Y-58.165
X85.158Y-77.215
X85.158Y-96.265
X91.508Y-55.625
X91.508Y-74.675
X91.508Y-93.725
X104.208Y-58.165
X104.208Y-77.215
X104.208Y-96.265
X110.558Y-55.625
X110.558Y-74.675
X110.558Y-93.725
X123.258Y-58.165
X123.258Y-77.215
X123.258Y-96.265
X129.608Y-55.625
X129.608Y-74.675
X129.608Y-93.725
T3
G00X106.158Y-35.855
M15
G01X106.158Y-37.355
M16
G05
G00X106.158Y-39.585
M15
G01X106.158Y-40.385
M16
G05
G00X114.808Y-35.855
M15
G01X114.808Y-37.355
M16
G05
G00X114.808Y-39.585
M15
G01X114.808Y-40.385
M16
G05
M30
