%TF.GenerationSoftware,KiCad,Pcbnew,9.0.7*%
%TF.CreationDate,2026-03-05T22:43:24-08:00*%
%TF.ProjectId,MacroPad,4d616372-6f50-4616-942e-6b696361645f,rev?*%
%TF.SameCoordinates,Original*%
%TF.FileFunction,Legend,Bot*%
%TF.FilePolarity,Positive*%
%FSLAX46Y46*%
G04 Gerber Fmt 4.6, Leading zero omitted, Abs format (unit mm)*
G04 Created by KiCad (PCBNEW 9.0.7) date 2026-03-05 22:43:24*
%MOMM*%
%LPD*%
G01*
G04 APERTURE LIST*
%ADD10C,0.150000*%
%ADD11C,0.120000*%
G04 APERTURE END LIST*
D10*
X110984490Y-115603628D02*
X110984490Y-116079819D01*
X111317823Y-115079819D02*
X110984490Y-115603628D01*
X110984490Y-115603628D02*
X110651157Y-115079819D01*
X109794014Y-116079819D02*
X110365442Y-116079819D01*
X110079728Y-116079819D02*
X110079728Y-115079819D01*
X110079728Y-115079819D02*
X110174966Y-115222676D01*
X110174966Y-115222676D02*
X110270204Y-115317914D01*
X110270204Y-115317914D02*
X110365442Y-115365533D01*
X123270204Y-103479819D02*
X123270204Y-104289342D01*
X123270204Y-104289342D02*
X123222585Y-104384580D01*
X123222585Y-104384580D02*
X123174966Y-104432200D01*
X123174966Y-104432200D02*
X123079728Y-104479819D01*
X123079728Y-104479819D02*
X122889252Y-104479819D01*
X122889252Y-104479819D02*
X122794014Y-104432200D01*
X122794014Y-104432200D02*
X122746395Y-104384580D01*
X122746395Y-104384580D02*
X122698776Y-104289342D01*
X122698776Y-104289342D02*
X122698776Y-103479819D01*
X122270204Y-103575057D02*
X122222585Y-103527438D01*
X122222585Y-103527438D02*
X122127347Y-103479819D01*
X122127347Y-103479819D02*
X121889252Y-103479819D01*
X121889252Y-103479819D02*
X121794014Y-103527438D01*
X121794014Y-103527438D02*
X121746395Y-103575057D01*
X121746395Y-103575057D02*
X121698776Y-103670295D01*
X121698776Y-103670295D02*
X121698776Y-103765533D01*
X121698776Y-103765533D02*
X121746395Y-103908390D01*
X121746395Y-103908390D02*
X122317823Y-104479819D01*
X122317823Y-104479819D02*
X121698776Y-104479819D01*
X111270204Y-105249819D02*
X111270204Y-106059342D01*
X111270204Y-106059342D02*
X111222585Y-106154580D01*
X111222585Y-106154580D02*
X111174966Y-106202200D01*
X111174966Y-106202200D02*
X111079728Y-106249819D01*
X111079728Y-106249819D02*
X110889252Y-106249819D01*
X110889252Y-106249819D02*
X110794014Y-106202200D01*
X110794014Y-106202200D02*
X110746395Y-106154580D01*
X110746395Y-106154580D02*
X110698776Y-106059342D01*
X110698776Y-106059342D02*
X110698776Y-105249819D01*
X109698776Y-106249819D02*
X110270204Y-106249819D01*
X109984490Y-106249819D02*
X109984490Y-105249819D01*
X109984490Y-105249819D02*
X110079728Y-105392676D01*
X110079728Y-105392676D02*
X110174966Y-105487914D01*
X110174966Y-105487914D02*
X110270204Y-105535533D01*
X128317823Y-118432200D02*
X128174966Y-118479819D01*
X128174966Y-118479819D02*
X127936871Y-118479819D01*
X127936871Y-118479819D02*
X127841633Y-118432200D01*
X127841633Y-118432200D02*
X127794014Y-118384580D01*
X127794014Y-118384580D02*
X127746395Y-118289342D01*
X127746395Y-118289342D02*
X127746395Y-118194104D01*
X127746395Y-118194104D02*
X127794014Y-118098866D01*
X127794014Y-118098866D02*
X127841633Y-118051247D01*
X127841633Y-118051247D02*
X127936871Y-118003628D01*
X127936871Y-118003628D02*
X128127347Y-117956009D01*
X128127347Y-117956009D02*
X128222585Y-117908390D01*
X128222585Y-117908390D02*
X128270204Y-117860771D01*
X128270204Y-117860771D02*
X128317823Y-117765533D01*
X128317823Y-117765533D02*
X128317823Y-117670295D01*
X128317823Y-117670295D02*
X128270204Y-117575057D01*
X128270204Y-117575057D02*
X128222585Y-117527438D01*
X128222585Y-117527438D02*
X128127347Y-117479819D01*
X128127347Y-117479819D02*
X127889252Y-117479819D01*
X127889252Y-117479819D02*
X127746395Y-117527438D01*
X127413061Y-117479819D02*
X127174966Y-118479819D01*
X127174966Y-118479819D02*
X126984490Y-117765533D01*
X126984490Y-117765533D02*
X126794014Y-118479819D01*
X126794014Y-118479819D02*
X126555919Y-117479819D01*
X125651157Y-118479819D02*
X126222585Y-118479819D01*
X125936871Y-118479819D02*
X125936871Y-117479819D01*
X125936871Y-117479819D02*
X126032109Y-117622676D01*
X126032109Y-117622676D02*
X126127347Y-117717914D01*
X126127347Y-117717914D02*
X126222585Y-117765533D01*
X124698776Y-118479819D02*
X125270204Y-118479819D01*
X124984490Y-118479819D02*
X124984490Y-117479819D01*
X124984490Y-117479819D02*
X125079728Y-117622676D01*
X125079728Y-117622676D02*
X125174966Y-117717914D01*
X125174966Y-117717914D02*
X125270204Y-117765533D01*
X96317823Y-118432200D02*
X96174966Y-118479819D01*
X96174966Y-118479819D02*
X95936871Y-118479819D01*
X95936871Y-118479819D02*
X95841633Y-118432200D01*
X95841633Y-118432200D02*
X95794014Y-118384580D01*
X95794014Y-118384580D02*
X95746395Y-118289342D01*
X95746395Y-118289342D02*
X95746395Y-118194104D01*
X95746395Y-118194104D02*
X95794014Y-118098866D01*
X95794014Y-118098866D02*
X95841633Y-118051247D01*
X95841633Y-118051247D02*
X95936871Y-118003628D01*
X95936871Y-118003628D02*
X96127347Y-117956009D01*
X96127347Y-117956009D02*
X96222585Y-117908390D01*
X96222585Y-117908390D02*
X96270204Y-117860771D01*
X96270204Y-117860771D02*
X96317823Y-117765533D01*
X96317823Y-117765533D02*
X96317823Y-117670295D01*
X96317823Y-117670295D02*
X96270204Y-117575057D01*
X96270204Y-117575057D02*
X96222585Y-117527438D01*
X96222585Y-117527438D02*
X96127347Y-117479819D01*
X96127347Y-117479819D02*
X95889252Y-117479819D01*
X95889252Y-117479819D02*
X95746395Y-117527438D01*
X95413061Y-117479819D02*
X95174966Y-118479819D01*
X95174966Y-118479819D02*
X94984490Y-117765533D01*
X94984490Y-117765533D02*
X94794014Y-118479819D01*
X94794014Y-118479819D02*
X94555919Y-117479819D01*
X93651157Y-118479819D02*
X94222585Y-118479819D01*
X93936871Y-118479819D02*
X93936871Y-117479819D01*
X93936871Y-117479819D02*
X94032109Y-117622676D01*
X94032109Y-117622676D02*
X94127347Y-117717914D01*
X94127347Y-117717914D02*
X94222585Y-117765533D01*
X93032109Y-117479819D02*
X92936871Y-117479819D01*
X92936871Y-117479819D02*
X92841633Y-117527438D01*
X92841633Y-117527438D02*
X92794014Y-117575057D01*
X92794014Y-117575057D02*
X92746395Y-117670295D01*
X92746395Y-117670295D02*
X92698776Y-117860771D01*
X92698776Y-117860771D02*
X92698776Y-118098866D01*
X92698776Y-118098866D02*
X92746395Y-118289342D01*
X92746395Y-118289342D02*
X92794014Y-118384580D01*
X92794014Y-118384580D02*
X92841633Y-118432200D01*
X92841633Y-118432200D02*
X92936871Y-118479819D01*
X92936871Y-118479819D02*
X93032109Y-118479819D01*
X93032109Y-118479819D02*
X93127347Y-118432200D01*
X93127347Y-118432200D02*
X93174966Y-118384580D01*
X93174966Y-118384580D02*
X93222585Y-118289342D01*
X93222585Y-118289342D02*
X93270204Y-118098866D01*
X93270204Y-118098866D02*
X93270204Y-117860771D01*
X93270204Y-117860771D02*
X93222585Y-117670295D01*
X93222585Y-117670295D02*
X93174966Y-117575057D01*
X93174966Y-117575057D02*
X93127347Y-117527438D01*
X93127347Y-117527438D02*
X93032109Y-117479819D01*
X100674966Y-117909819D02*
X101008299Y-117433628D01*
X101246394Y-117909819D02*
X101246394Y-116909819D01*
X101246394Y-116909819D02*
X100865442Y-116909819D01*
X100865442Y-116909819D02*
X100770204Y-116957438D01*
X100770204Y-116957438D02*
X100722585Y-117005057D01*
X100722585Y-117005057D02*
X100674966Y-117100295D01*
X100674966Y-117100295D02*
X100674966Y-117243152D01*
X100674966Y-117243152D02*
X100722585Y-117338390D01*
X100722585Y-117338390D02*
X100770204Y-117386009D01*
X100770204Y-117386009D02*
X100865442Y-117433628D01*
X100865442Y-117433628D02*
X101246394Y-117433628D01*
X99817823Y-116909819D02*
X100008299Y-116909819D01*
X100008299Y-116909819D02*
X100103537Y-116957438D01*
X100103537Y-116957438D02*
X100151156Y-117005057D01*
X100151156Y-117005057D02*
X100246394Y-117147914D01*
X100246394Y-117147914D02*
X100294013Y-117338390D01*
X100294013Y-117338390D02*
X100294013Y-117719342D01*
X100294013Y-117719342D02*
X100246394Y-117814580D01*
X100246394Y-117814580D02*
X100198775Y-117862200D01*
X100198775Y-117862200D02*
X100103537Y-117909819D01*
X100103537Y-117909819D02*
X99913061Y-117909819D01*
X99913061Y-117909819D02*
X99817823Y-117862200D01*
X99817823Y-117862200D02*
X99770204Y-117814580D01*
X99770204Y-117814580D02*
X99722585Y-117719342D01*
X99722585Y-117719342D02*
X99722585Y-117481247D01*
X99722585Y-117481247D02*
X99770204Y-117386009D01*
X99770204Y-117386009D02*
X99817823Y-117338390D01*
X99817823Y-117338390D02*
X99913061Y-117290771D01*
X99913061Y-117290771D02*
X100103537Y-117290771D01*
X100103537Y-117290771D02*
X100198775Y-117338390D01*
X100198775Y-117338390D02*
X100246394Y-117386009D01*
X100246394Y-117386009D02*
X100294013Y-117481247D01*
X128674966Y-104909819D02*
X129008299Y-104433628D01*
X129246394Y-104909819D02*
X129246394Y-103909819D01*
X129246394Y-103909819D02*
X128865442Y-103909819D01*
X128865442Y-103909819D02*
X128770204Y-103957438D01*
X128770204Y-103957438D02*
X128722585Y-104005057D01*
X128722585Y-104005057D02*
X128674966Y-104100295D01*
X128674966Y-104100295D02*
X128674966Y-104243152D01*
X128674966Y-104243152D02*
X128722585Y-104338390D01*
X128722585Y-104338390D02*
X128770204Y-104386009D01*
X128770204Y-104386009D02*
X128865442Y-104433628D01*
X128865442Y-104433628D02*
X129246394Y-104433628D01*
X127722585Y-104909819D02*
X128294013Y-104909819D01*
X128008299Y-104909819D02*
X128008299Y-103909819D01*
X128008299Y-103909819D02*
X128103537Y-104052676D01*
X128103537Y-104052676D02*
X128198775Y-104147914D01*
X128198775Y-104147914D02*
X128294013Y-104195533D01*
X105151157Y-117824580D02*
X105198776Y-117872200D01*
X105198776Y-117872200D02*
X105341633Y-117919819D01*
X105341633Y-117919819D02*
X105436871Y-117919819D01*
X105436871Y-117919819D02*
X105579728Y-117872200D01*
X105579728Y-117872200D02*
X105674966Y-117776961D01*
X105674966Y-117776961D02*
X105722585Y-117681723D01*
X105722585Y-117681723D02*
X105770204Y-117491247D01*
X105770204Y-117491247D02*
X105770204Y-117348390D01*
X105770204Y-117348390D02*
X105722585Y-117157914D01*
X105722585Y-117157914D02*
X105674966Y-117062676D01*
X105674966Y-117062676D02*
X105579728Y-116967438D01*
X105579728Y-116967438D02*
X105436871Y-116919819D01*
X105436871Y-116919819D02*
X105341633Y-116919819D01*
X105341633Y-116919819D02*
X105198776Y-116967438D01*
X105198776Y-116967438D02*
X105151157Y-117015057D01*
X104198776Y-117919819D02*
X104770204Y-117919819D01*
X104484490Y-117919819D02*
X104484490Y-116919819D01*
X104484490Y-116919819D02*
X104579728Y-117062676D01*
X104579728Y-117062676D02*
X104674966Y-117157914D01*
X104674966Y-117157914D02*
X104770204Y-117205533D01*
X103865442Y-116919819D02*
X103246395Y-116919819D01*
X103246395Y-116919819D02*
X103579728Y-117300771D01*
X103579728Y-117300771D02*
X103436871Y-117300771D01*
X103436871Y-117300771D02*
X103341633Y-117348390D01*
X103341633Y-117348390D02*
X103294014Y-117396009D01*
X103294014Y-117396009D02*
X103246395Y-117491247D01*
X103246395Y-117491247D02*
X103246395Y-117729342D01*
X103246395Y-117729342D02*
X103294014Y-117824580D01*
X103294014Y-117824580D02*
X103341633Y-117872200D01*
X103341633Y-117872200D02*
X103436871Y-117919819D01*
X103436871Y-117919819D02*
X103722585Y-117919819D01*
X103722585Y-117919819D02*
X103817823Y-117872200D01*
X103817823Y-117872200D02*
X103865442Y-117824580D01*
X123151157Y-114824580D02*
X123198776Y-114872200D01*
X123198776Y-114872200D02*
X123341633Y-114919819D01*
X123341633Y-114919819D02*
X123436871Y-114919819D01*
X123436871Y-114919819D02*
X123579728Y-114872200D01*
X123579728Y-114872200D02*
X123674966Y-114776961D01*
X123674966Y-114776961D02*
X123722585Y-114681723D01*
X123722585Y-114681723D02*
X123770204Y-114491247D01*
X123770204Y-114491247D02*
X123770204Y-114348390D01*
X123770204Y-114348390D02*
X123722585Y-114157914D01*
X123722585Y-114157914D02*
X123674966Y-114062676D01*
X123674966Y-114062676D02*
X123579728Y-113967438D01*
X123579728Y-113967438D02*
X123436871Y-113919819D01*
X123436871Y-113919819D02*
X123341633Y-113919819D01*
X123341633Y-113919819D02*
X123198776Y-113967438D01*
X123198776Y-113967438D02*
X123151157Y-114015057D01*
X122198776Y-114919819D02*
X122770204Y-114919819D01*
X122484490Y-114919819D02*
X122484490Y-113919819D01*
X122484490Y-113919819D02*
X122579728Y-114062676D01*
X122579728Y-114062676D02*
X122674966Y-114157914D01*
X122674966Y-114157914D02*
X122770204Y-114205533D01*
X121817823Y-114015057D02*
X121770204Y-113967438D01*
X121770204Y-113967438D02*
X121674966Y-113919819D01*
X121674966Y-113919819D02*
X121436871Y-113919819D01*
X121436871Y-113919819D02*
X121341633Y-113967438D01*
X121341633Y-113967438D02*
X121294014Y-114015057D01*
X121294014Y-114015057D02*
X121246395Y-114110295D01*
X121246395Y-114110295D02*
X121246395Y-114205533D01*
X121246395Y-114205533D02*
X121294014Y-114348390D01*
X121294014Y-114348390D02*
X121865442Y-114919819D01*
X121865442Y-114919819D02*
X121246395Y-114919819D01*
X120151157Y-114824580D02*
X120198776Y-114872200D01*
X120198776Y-114872200D02*
X120341633Y-114919819D01*
X120341633Y-114919819D02*
X120436871Y-114919819D01*
X120436871Y-114919819D02*
X120579728Y-114872200D01*
X120579728Y-114872200D02*
X120674966Y-114776961D01*
X120674966Y-114776961D02*
X120722585Y-114681723D01*
X120722585Y-114681723D02*
X120770204Y-114491247D01*
X120770204Y-114491247D02*
X120770204Y-114348390D01*
X120770204Y-114348390D02*
X120722585Y-114157914D01*
X120722585Y-114157914D02*
X120674966Y-114062676D01*
X120674966Y-114062676D02*
X120579728Y-113967438D01*
X120579728Y-113967438D02*
X120436871Y-113919819D01*
X120436871Y-113919819D02*
X120341633Y-113919819D01*
X120341633Y-113919819D02*
X120198776Y-113967438D01*
X120198776Y-113967438D02*
X120151157Y-114015057D01*
X119198776Y-114919819D02*
X119770204Y-114919819D01*
X119484490Y-114919819D02*
X119484490Y-113919819D01*
X119484490Y-113919819D02*
X119579728Y-114062676D01*
X119579728Y-114062676D02*
X119674966Y-114157914D01*
X119674966Y-114157914D02*
X119770204Y-114205533D01*
X118246395Y-114919819D02*
X118817823Y-114919819D01*
X118532109Y-114919819D02*
X118532109Y-113919819D01*
X118532109Y-113919819D02*
X118627347Y-114062676D01*
X118627347Y-114062676D02*
X118722585Y-114157914D01*
X118722585Y-114157914D02*
X118817823Y-114205533D01*
X117151157Y-114824580D02*
X117198776Y-114872200D01*
X117198776Y-114872200D02*
X117341633Y-114919819D01*
X117341633Y-114919819D02*
X117436871Y-114919819D01*
X117436871Y-114919819D02*
X117579728Y-114872200D01*
X117579728Y-114872200D02*
X117674966Y-114776961D01*
X117674966Y-114776961D02*
X117722585Y-114681723D01*
X117722585Y-114681723D02*
X117770204Y-114491247D01*
X117770204Y-114491247D02*
X117770204Y-114348390D01*
X117770204Y-114348390D02*
X117722585Y-114157914D01*
X117722585Y-114157914D02*
X117674966Y-114062676D01*
X117674966Y-114062676D02*
X117579728Y-113967438D01*
X117579728Y-113967438D02*
X117436871Y-113919819D01*
X117436871Y-113919819D02*
X117341633Y-113919819D01*
X117341633Y-113919819D02*
X117198776Y-113967438D01*
X117198776Y-113967438D02*
X117151157Y-114015057D01*
X116198776Y-114919819D02*
X116770204Y-114919819D01*
X116484490Y-114919819D02*
X116484490Y-113919819D01*
X116484490Y-113919819D02*
X116579728Y-114062676D01*
X116579728Y-114062676D02*
X116674966Y-114157914D01*
X116674966Y-114157914D02*
X116770204Y-114205533D01*
X115579728Y-113919819D02*
X115484490Y-113919819D01*
X115484490Y-113919819D02*
X115389252Y-113967438D01*
X115389252Y-113967438D02*
X115341633Y-114015057D01*
X115341633Y-114015057D02*
X115294014Y-114110295D01*
X115294014Y-114110295D02*
X115246395Y-114300771D01*
X115246395Y-114300771D02*
X115246395Y-114538866D01*
X115246395Y-114538866D02*
X115294014Y-114729342D01*
X115294014Y-114729342D02*
X115341633Y-114824580D01*
X115341633Y-114824580D02*
X115389252Y-114872200D01*
X115389252Y-114872200D02*
X115484490Y-114919819D01*
X115484490Y-114919819D02*
X115579728Y-114919819D01*
X115579728Y-114919819D02*
X115674966Y-114872200D01*
X115674966Y-114872200D02*
X115722585Y-114824580D01*
X115722585Y-114824580D02*
X115770204Y-114729342D01*
X115770204Y-114729342D02*
X115817823Y-114538866D01*
X115817823Y-114538866D02*
X115817823Y-114300771D01*
X115817823Y-114300771D02*
X115770204Y-114110295D01*
X115770204Y-114110295D02*
X115722585Y-114015057D01*
X115722585Y-114015057D02*
X115674966Y-113967438D01*
X115674966Y-113967438D02*
X115579728Y-113919819D01*
X100674966Y-114824580D02*
X100722585Y-114872200D01*
X100722585Y-114872200D02*
X100865442Y-114919819D01*
X100865442Y-114919819D02*
X100960680Y-114919819D01*
X100960680Y-114919819D02*
X101103537Y-114872200D01*
X101103537Y-114872200D02*
X101198775Y-114776961D01*
X101198775Y-114776961D02*
X101246394Y-114681723D01*
X101246394Y-114681723D02*
X101294013Y-114491247D01*
X101294013Y-114491247D02*
X101294013Y-114348390D01*
X101294013Y-114348390D02*
X101246394Y-114157914D01*
X101246394Y-114157914D02*
X101198775Y-114062676D01*
X101198775Y-114062676D02*
X101103537Y-113967438D01*
X101103537Y-113967438D02*
X100960680Y-113919819D01*
X100960680Y-113919819D02*
X100865442Y-113919819D01*
X100865442Y-113919819D02*
X100722585Y-113967438D01*
X100722585Y-113967438D02*
X100674966Y-114015057D01*
X100198775Y-114919819D02*
X100008299Y-114919819D01*
X100008299Y-114919819D02*
X99913061Y-114872200D01*
X99913061Y-114872200D02*
X99865442Y-114824580D01*
X99865442Y-114824580D02*
X99770204Y-114681723D01*
X99770204Y-114681723D02*
X99722585Y-114491247D01*
X99722585Y-114491247D02*
X99722585Y-114110295D01*
X99722585Y-114110295D02*
X99770204Y-114015057D01*
X99770204Y-114015057D02*
X99817823Y-113967438D01*
X99817823Y-113967438D02*
X99913061Y-113919819D01*
X99913061Y-113919819D02*
X100103537Y-113919819D01*
X100103537Y-113919819D02*
X100198775Y-113967438D01*
X100198775Y-113967438D02*
X100246394Y-114015057D01*
X100246394Y-114015057D02*
X100294013Y-114110295D01*
X100294013Y-114110295D02*
X100294013Y-114348390D01*
X100294013Y-114348390D02*
X100246394Y-114443628D01*
X100246394Y-114443628D02*
X100198775Y-114491247D01*
X100198775Y-114491247D02*
X100103537Y-114538866D01*
X100103537Y-114538866D02*
X99913061Y-114538866D01*
X99913061Y-114538866D02*
X99817823Y-114491247D01*
X99817823Y-114491247D02*
X99770204Y-114443628D01*
X99770204Y-114443628D02*
X99722585Y-114348390D01*
X104674966Y-114824580D02*
X104722585Y-114872200D01*
X104722585Y-114872200D02*
X104865442Y-114919819D01*
X104865442Y-114919819D02*
X104960680Y-114919819D01*
X104960680Y-114919819D02*
X105103537Y-114872200D01*
X105103537Y-114872200D02*
X105198775Y-114776961D01*
X105198775Y-114776961D02*
X105246394Y-114681723D01*
X105246394Y-114681723D02*
X105294013Y-114491247D01*
X105294013Y-114491247D02*
X105294013Y-114348390D01*
X105294013Y-114348390D02*
X105246394Y-114157914D01*
X105246394Y-114157914D02*
X105198775Y-114062676D01*
X105198775Y-114062676D02*
X105103537Y-113967438D01*
X105103537Y-113967438D02*
X104960680Y-113919819D01*
X104960680Y-113919819D02*
X104865442Y-113919819D01*
X104865442Y-113919819D02*
X104722585Y-113967438D01*
X104722585Y-113967438D02*
X104674966Y-114015057D01*
X104103537Y-114348390D02*
X104198775Y-114300771D01*
X104198775Y-114300771D02*
X104246394Y-114253152D01*
X104246394Y-114253152D02*
X104294013Y-114157914D01*
X104294013Y-114157914D02*
X104294013Y-114110295D01*
X104294013Y-114110295D02*
X104246394Y-114015057D01*
X104246394Y-114015057D02*
X104198775Y-113967438D01*
X104198775Y-113967438D02*
X104103537Y-113919819D01*
X104103537Y-113919819D02*
X103913061Y-113919819D01*
X103913061Y-113919819D02*
X103817823Y-113967438D01*
X103817823Y-113967438D02*
X103770204Y-114015057D01*
X103770204Y-114015057D02*
X103722585Y-114110295D01*
X103722585Y-114110295D02*
X103722585Y-114157914D01*
X103722585Y-114157914D02*
X103770204Y-114253152D01*
X103770204Y-114253152D02*
X103817823Y-114300771D01*
X103817823Y-114300771D02*
X103913061Y-114348390D01*
X103913061Y-114348390D02*
X104103537Y-114348390D01*
X104103537Y-114348390D02*
X104198775Y-114396009D01*
X104198775Y-114396009D02*
X104246394Y-114443628D01*
X104246394Y-114443628D02*
X104294013Y-114538866D01*
X104294013Y-114538866D02*
X104294013Y-114729342D01*
X104294013Y-114729342D02*
X104246394Y-114824580D01*
X104246394Y-114824580D02*
X104198775Y-114872200D01*
X104198775Y-114872200D02*
X104103537Y-114919819D01*
X104103537Y-114919819D02*
X103913061Y-114919819D01*
X103913061Y-114919819D02*
X103817823Y-114872200D01*
X103817823Y-114872200D02*
X103770204Y-114824580D01*
X103770204Y-114824580D02*
X103722585Y-114729342D01*
X103722585Y-114729342D02*
X103722585Y-114538866D01*
X103722585Y-114538866D02*
X103770204Y-114443628D01*
X103770204Y-114443628D02*
X103817823Y-114396009D01*
X103817823Y-114396009D02*
X103913061Y-114348390D01*
X128674966Y-109824580D02*
X128722585Y-109872200D01*
X128722585Y-109872200D02*
X128865442Y-109919819D01*
X128865442Y-109919819D02*
X128960680Y-109919819D01*
X128960680Y-109919819D02*
X129103537Y-109872200D01*
X129103537Y-109872200D02*
X129198775Y-109776961D01*
X129198775Y-109776961D02*
X129246394Y-109681723D01*
X129246394Y-109681723D02*
X129294013Y-109491247D01*
X129294013Y-109491247D02*
X129294013Y-109348390D01*
X129294013Y-109348390D02*
X129246394Y-109157914D01*
X129246394Y-109157914D02*
X129198775Y-109062676D01*
X129198775Y-109062676D02*
X129103537Y-108967438D01*
X129103537Y-108967438D02*
X128960680Y-108919819D01*
X128960680Y-108919819D02*
X128865442Y-108919819D01*
X128865442Y-108919819D02*
X128722585Y-108967438D01*
X128722585Y-108967438D02*
X128674966Y-109015057D01*
X128341632Y-108919819D02*
X127722585Y-108919819D01*
X127722585Y-108919819D02*
X128055918Y-109300771D01*
X128055918Y-109300771D02*
X127913061Y-109300771D01*
X127913061Y-109300771D02*
X127817823Y-109348390D01*
X127817823Y-109348390D02*
X127770204Y-109396009D01*
X127770204Y-109396009D02*
X127722585Y-109491247D01*
X127722585Y-109491247D02*
X127722585Y-109729342D01*
X127722585Y-109729342D02*
X127770204Y-109824580D01*
X127770204Y-109824580D02*
X127817823Y-109872200D01*
X127817823Y-109872200D02*
X127913061Y-109919819D01*
X127913061Y-109919819D02*
X128198775Y-109919819D01*
X128198775Y-109919819D02*
X128294013Y-109872200D01*
X128294013Y-109872200D02*
X128341632Y-109824580D01*
X113674966Y-118824580D02*
X113722585Y-118872200D01*
X113722585Y-118872200D02*
X113865442Y-118919819D01*
X113865442Y-118919819D02*
X113960680Y-118919819D01*
X113960680Y-118919819D02*
X114103537Y-118872200D01*
X114103537Y-118872200D02*
X114198775Y-118776961D01*
X114198775Y-118776961D02*
X114246394Y-118681723D01*
X114246394Y-118681723D02*
X114294013Y-118491247D01*
X114294013Y-118491247D02*
X114294013Y-118348390D01*
X114294013Y-118348390D02*
X114246394Y-118157914D01*
X114246394Y-118157914D02*
X114198775Y-118062676D01*
X114198775Y-118062676D02*
X114103537Y-117967438D01*
X114103537Y-117967438D02*
X113960680Y-117919819D01*
X113960680Y-117919819D02*
X113865442Y-117919819D01*
X113865442Y-117919819D02*
X113722585Y-117967438D01*
X113722585Y-117967438D02*
X113674966Y-118015057D01*
X113294013Y-118015057D02*
X113246394Y-117967438D01*
X113246394Y-117967438D02*
X113151156Y-117919819D01*
X113151156Y-117919819D02*
X112913061Y-117919819D01*
X112913061Y-117919819D02*
X112817823Y-117967438D01*
X112817823Y-117967438D02*
X112770204Y-118015057D01*
X112770204Y-118015057D02*
X112722585Y-118110295D01*
X112722585Y-118110295D02*
X112722585Y-118205533D01*
X112722585Y-118205533D02*
X112770204Y-118348390D01*
X112770204Y-118348390D02*
X113341632Y-118919819D01*
X113341632Y-118919819D02*
X112722585Y-118919819D01*
X107674966Y-118824580D02*
X107722585Y-118872200D01*
X107722585Y-118872200D02*
X107865442Y-118919819D01*
X107865442Y-118919819D02*
X107960680Y-118919819D01*
X107960680Y-118919819D02*
X108103537Y-118872200D01*
X108103537Y-118872200D02*
X108198775Y-118776961D01*
X108198775Y-118776961D02*
X108246394Y-118681723D01*
X108246394Y-118681723D02*
X108294013Y-118491247D01*
X108294013Y-118491247D02*
X108294013Y-118348390D01*
X108294013Y-118348390D02*
X108246394Y-118157914D01*
X108246394Y-118157914D02*
X108198775Y-118062676D01*
X108198775Y-118062676D02*
X108103537Y-117967438D01*
X108103537Y-117967438D02*
X107960680Y-117919819D01*
X107960680Y-117919819D02*
X107865442Y-117919819D01*
X107865442Y-117919819D02*
X107722585Y-117967438D01*
X107722585Y-117967438D02*
X107674966Y-118015057D01*
X106722585Y-118919819D02*
X107294013Y-118919819D01*
X107008299Y-118919819D02*
X107008299Y-117919819D01*
X107008299Y-117919819D02*
X107103537Y-118062676D01*
X107103537Y-118062676D02*
X107198775Y-118157914D01*
X107198775Y-118157914D02*
X107294013Y-118205533D01*
D11*
%TO.C,Y1*%
X111183300Y-116750000D02*
X109833300Y-116750000D01*
X111183300Y-118500000D02*
X109833300Y-118500000D01*
%TO.C,U2*%
X125268300Y-104865000D02*
X119748300Y-104865000D01*
X125268300Y-105135000D02*
X125268300Y-104865000D01*
X125268300Y-110385000D02*
X125268300Y-110115000D01*
X119748300Y-104865000D02*
X119748300Y-105135000D01*
X119748300Y-110115000D02*
X119748300Y-110385000D01*
X119748300Y-110385000D02*
X125268300Y-110385000D01*
X126098300Y-105125000D02*
X125758300Y-104655000D01*
X126438300Y-104655000D01*
X126098300Y-105125000D01*
G36*
X126098300Y-105125000D02*
G01*
X125758300Y-104655000D01*
X126438300Y-104655000D01*
X126098300Y-105125000D01*
G37*
%TO.C,U1*%
X114118300Y-107015000D02*
X113468300Y-107015000D01*
X114118300Y-107665000D02*
X114118300Y-107015000D01*
X114118300Y-114235000D02*
X114118300Y-113585000D01*
X113468300Y-114235000D02*
X114118300Y-114235000D01*
X107548300Y-107015000D02*
X106898300Y-107015000D01*
X106898300Y-107015000D02*
X106898300Y-107665000D01*
X106898300Y-113585000D02*
X106898300Y-114235000D01*
X106898300Y-114235000D02*
X107548300Y-114235000D01*
X114978300Y-108265000D02*
X114648300Y-108025000D01*
X114978300Y-107785000D01*
X114978300Y-108265000D01*
G36*
X114978300Y-108265000D02*
G01*
X114648300Y-108025000D01*
X114978300Y-107785000D01*
X114978300Y-108265000D01*
G37*
%TO.C,SW11*%
X128708300Y-118925000D02*
X128708300Y-119045000D01*
X128708300Y-120055000D02*
X128708300Y-121195000D01*
X128708300Y-122205000D02*
X128708300Y-122325000D01*
X128708300Y-122325000D02*
X124308300Y-122325000D01*
X124308300Y-118925000D02*
X128708300Y-118925000D01*
X124308300Y-119045000D02*
X124308300Y-118925000D01*
X124308300Y-121195000D02*
X124308300Y-120055000D01*
X124308300Y-122325000D02*
X124308300Y-122205000D01*
%TO.C,SW10*%
X96708300Y-118925000D02*
X96708300Y-119045000D01*
X96708300Y-120055000D02*
X96708300Y-121195000D01*
X96708300Y-122205000D02*
X96708300Y-122325000D01*
X96708300Y-122325000D02*
X92308300Y-122325000D01*
X92308300Y-118925000D02*
X96708300Y-118925000D01*
X92308300Y-119045000D02*
X92308300Y-118925000D01*
X92308300Y-121195000D02*
X92308300Y-120055000D01*
X92308300Y-122325000D02*
X92308300Y-122205000D01*
%TO.C,R6*%
X100661941Y-118245000D02*
X100354659Y-118245000D01*
X100661941Y-119005000D02*
X100354659Y-119005000D01*
%TO.C,R1*%
X128661941Y-105245000D02*
X128354659Y-105245000D01*
X128661941Y-106005000D02*
X128354659Y-106005000D01*
%TO.C,C13*%
X104616136Y-118265000D02*
X104400464Y-118265000D01*
X104616136Y-118985000D02*
X104400464Y-118985000D01*
%TO.C,C12*%
X122616136Y-115265000D02*
X122400464Y-115265000D01*
X122616136Y-115985000D02*
X122400464Y-115985000D01*
%TO.C,C11*%
X119616136Y-115265000D02*
X119400464Y-115265000D01*
X119616136Y-115985000D02*
X119400464Y-115985000D01*
%TO.C,C10*%
X116616136Y-115265000D02*
X116400464Y-115265000D01*
X116616136Y-115985000D02*
X116400464Y-115985000D01*
%TO.C,C9*%
X100616136Y-115265000D02*
X100400464Y-115265000D01*
X100616136Y-115985000D02*
X100400464Y-115985000D01*
%TO.C,C8*%
X104616136Y-115265000D02*
X104400464Y-115265000D01*
X104616136Y-115985000D02*
X104400464Y-115985000D01*
%TO.C,C3*%
X128616136Y-110265000D02*
X128400464Y-110265000D01*
X128616136Y-110985000D02*
X128400464Y-110985000D01*
%TO.C,C2*%
X113616136Y-119265000D02*
X113400464Y-119265000D01*
X113616136Y-119985000D02*
X113400464Y-119985000D01*
%TO.C,C1*%
X107616136Y-119265000D02*
X107400464Y-119265000D01*
X107616136Y-119985000D02*
X107400464Y-119985000D01*
%TD*%
M02*
