%TF.GenerationSoftware,KiCad,Pcbnew,9.0.7*%
%TF.CreationDate,2026-03-05T22:43:24-08:00*%
%TF.ProjectId,MacroPad,4d616372-6f50-4616-942e-6b696361645f,rev?*%
%TF.SameCoordinates,Original*%
%TF.FileFunction,Copper,L2,Bot*%
%TF.FilePolarity,Positive*%
%FSLAX46Y46*%
G04 Gerber Fmt 4.6, Leading zero omitted, Abs format (unit mm)*
G04 Created by KiCad (PCBNEW 9.0.7) date 2026-03-05 22:43:24*
%MOMM*%
%LPD*%
G01*
G04 APERTURE LIST*
G04 Aperture macros list*
%AMRoundRect*
0 Rectangle with rounded corners*
0 $1 Rounding radius*
0 $2 $3 $4 $5 $6 $7 $8 $9 X,Y pos of 4 corners*
0 Add a 4 corners polygon primitive as box body*
4,1,4,$2,$3,$4,$5,$6,$7,$8,$9,$2,$3,0*
0 Add four circle primitives for the rounded corners*
1,1,$1+$1,$2,$3*
1,1,$1+$1,$4,$5*
1,1,$1+$1,$6,$7*
1,1,$1+$1,$8,$9*
0 Add four rect primitives between the rounded corners*
20,1,$1+$1,$2,$3,$4,$5,0*
20,1,$1+$1,$4,$5,$6,$7,0*
20,1,$1+$1,$6,$7,$8,$9,0*
20,1,$1+$1,$8,$9,$2,$3,0*%
G04 Aperture macros list end*
%TA.AperFunction,SMDPad,CuDef*%
%ADD10R,1.000000X1.800000*%
%TD*%
%TA.AperFunction,SMDPad,CuDef*%
%ADD11RoundRect,0.162500X0.650000X0.162500X-0.650000X0.162500X-0.650000X-0.162500X0.650000X-0.162500X0*%
%TD*%
%TA.AperFunction,SMDPad,CuDef*%
%ADD12RoundRect,0.050000X0.387500X0.050000X-0.387500X0.050000X-0.387500X-0.050000X0.387500X-0.050000X0*%
%TD*%
%TA.AperFunction,SMDPad,CuDef*%
%ADD13RoundRect,0.050000X0.050000X0.387500X-0.050000X0.387500X-0.050000X-0.387500X0.050000X-0.387500X0*%
%TD*%
%TA.AperFunction,HeatsinkPad*%
%ADD14R,3.200000X3.200000*%
%TD*%
%TA.AperFunction,SMDPad,CuDef*%
%ADD15R,1.050000X0.650000*%
%TD*%
%TA.AperFunction,ComponentPad*%
%ADD16C,2.200000*%
%TD*%
%TA.AperFunction,SMDPad,CuDef*%
%ADD17RoundRect,0.135000X0.135000X0.185000X-0.135000X0.185000X-0.135000X-0.185000X0.135000X-0.185000X0*%
%TD*%
%TA.AperFunction,ComponentPad*%
%ADD18C,0.700000*%
%TD*%
%TA.AperFunction,ComponentPad*%
%ADD19O,0.900000X2.400000*%
%TD*%
%TA.AperFunction,ComponentPad*%
%ADD20O,0.900000X1.700000*%
%TD*%
%TA.AperFunction,SMDPad,CuDef*%
%ADD21RoundRect,0.140000X0.140000X0.170000X-0.140000X0.170000X-0.140000X-0.170000X0.140000X-0.170000X0*%
%TD*%
%TA.AperFunction,ViaPad*%
%ADD22C,0.600000*%
%TD*%
%TA.AperFunction,Conductor*%
%ADD23C,0.200000*%
%TD*%
%TA.AperFunction,Conductor*%
%ADD24C,0.250000*%
%TD*%
G04 APERTURE END LIST*
D10*
%TO.P,Y1,1,1*%
%TO.N,Net-(U1-XOUT)*%
X109258300Y-117625000D03*
%TO.P,Y1,2,2*%
%TO.N,Net-(U1-XIN)*%
X111758300Y-117625000D03*
%TD*%
D11*
%TO.P,U2,1,~{CS}*%
%TO.N,Net-(U1-~{QSPI_SS})*%
X126095800Y-105720000D03*
%TO.P,U2,2,DO/IO_{1}*%
%TO.N,Net-(U1-QSPI_SD1)*%
X126095800Y-106990000D03*
%TO.P,U2,3,~{WP}/IO_{2}*%
%TO.N,Net-(U1-QSPI_SD2)*%
X126095800Y-108260000D03*
%TO.P,U2,4,GND*%
%TO.N,GND*%
X126095800Y-109530000D03*
%TO.P,U2,5,DI/IO_{0}*%
%TO.N,Net-(U1-QSPI_SD0)*%
X118920800Y-109530000D03*
%TO.P,U2,6,CLK*%
%TO.N,Net-(U1-QSPI_SCLK)*%
X118920800Y-108260000D03*
%TO.P,U2,7,~{HOLD}/~{RESET}/IO_{3}*%
%TO.N,Net-(U1-QSPI_SD3)*%
X118920800Y-106990000D03*
%TO.P,U2,8,VCC*%
%TO.N,+3.3V*%
X118920800Y-105720000D03*
%TD*%
D12*
%TO.P,U1,1,IOVDD*%
%TO.N,+3.3V*%
X113945800Y-108025000D03*
%TO.P,U1,2,GPIO0*%
%TO.N,unconnected-(U1-GPIO0-Pad2)*%
X113945800Y-108425000D03*
%TO.P,U1,3,GPIO1*%
%TO.N,unconnected-(U1-GPIO1-Pad3)*%
X113945800Y-108825000D03*
%TO.P,U1,4,GPIO2*%
%TO.N,Net-(U1-GPIO2)*%
X113945800Y-109225000D03*
%TO.P,U1,5,GPIO3*%
%TO.N,Net-(U1-GPIO3)*%
X113945800Y-109625000D03*
%TO.P,U1,6,GPIO4*%
%TO.N,Net-(U1-GPIO4)*%
X113945800Y-110025000D03*
%TO.P,U1,7,GPIO5*%
%TO.N,Net-(U1-GPIO5)*%
X113945800Y-110425000D03*
%TO.P,U1,8,GPIO6*%
%TO.N,Net-(U1-GPIO6)*%
X113945800Y-110825000D03*
%TO.P,U1,9,GPIO7*%
%TO.N,Net-(U1-GPIO7)*%
X113945800Y-111225000D03*
%TO.P,U1,10,IOVDD*%
%TO.N,+3.3V*%
X113945800Y-111625000D03*
%TO.P,U1,11,GPIO8*%
%TO.N,Net-(U1-GPIO8)*%
X113945800Y-112025000D03*
%TO.P,U1,12,GPIO9*%
%TO.N,Net-(U1-GPIO9)*%
X113945800Y-112425000D03*
%TO.P,U1,13,GPIO10*%
%TO.N,Net-(U1-GPIO10)*%
X113945800Y-112825000D03*
%TO.P,U1,14,GPIO11*%
%TO.N,unconnected-(U1-GPIO11-Pad14)*%
X113945800Y-113225000D03*
D13*
%TO.P,U1,15,GPIO12*%
%TO.N,unconnected-(U1-GPIO12-Pad15)*%
X113108300Y-114062500D03*
%TO.P,U1,16,GPIO13*%
%TO.N,unconnected-(U1-GPIO13-Pad16)*%
X112708300Y-114062500D03*
%TO.P,U1,17,GPIO14*%
%TO.N,unconnected-(U1-GPIO14-Pad17)*%
X112308300Y-114062500D03*
%TO.P,U1,18,GPIO15*%
%TO.N,unconnected-(U1-GPIO15-Pad18)*%
X111908300Y-114062500D03*
%TO.P,U1,19,TESTEN*%
%TO.N,GND*%
X111508300Y-114062500D03*
%TO.P,U1,20,XIN*%
%TO.N,Net-(U1-XIN)*%
X111108300Y-114062500D03*
%TO.P,U1,21,XOUT*%
%TO.N,Net-(U1-XOUT)*%
X110708300Y-114062500D03*
%TO.P,U1,22,IOVDD*%
%TO.N,+3.3V*%
X110308300Y-114062500D03*
%TO.P,U1,23,DVDD*%
%TO.N,Net-(U1-VREG_VOUT)*%
X109908300Y-114062500D03*
%TO.P,U1,24,SWCLK*%
%TO.N,unconnected-(U1-SWCLK-Pad24)*%
X109508300Y-114062500D03*
%TO.P,U1,25,SWDIO*%
%TO.N,unconnected-(U1-SWDIO-Pad25)*%
X109108300Y-114062500D03*
%TO.P,U1,26,RUN*%
%TO.N,Net-(U1-RUN)*%
X108708300Y-114062500D03*
%TO.P,U1,27,GPIO16*%
%TO.N,unconnected-(U1-GPIO16-Pad27)*%
X108308300Y-114062500D03*
%TO.P,U1,28,GPIO17*%
%TO.N,unconnected-(U1-GPIO17-Pad28)*%
X107908300Y-114062500D03*
D12*
%TO.P,U1,29,GPIO18*%
%TO.N,unconnected-(U1-GPIO18-Pad29)*%
X107070800Y-113225000D03*
%TO.P,U1,30,GPIO19*%
%TO.N,unconnected-(U1-GPIO19-Pad30)*%
X107070800Y-112825000D03*
%TO.P,U1,31,GPIO20*%
%TO.N,unconnected-(U1-GPIO20-Pad31)*%
X107070800Y-112425000D03*
%TO.P,U1,32,GPIO21*%
%TO.N,unconnected-(U1-GPIO21-Pad32)*%
X107070800Y-112025000D03*
%TO.P,U1,33,IOVDD*%
%TO.N,+3.3V*%
X107070800Y-111625000D03*
%TO.P,U1,34,GPIO22*%
%TO.N,unconnected-(U1-GPIO22-Pad34)*%
X107070800Y-111225000D03*
%TO.P,U1,35,GPIO23*%
%TO.N,unconnected-(U1-GPIO23-Pad35)*%
X107070800Y-110825000D03*
%TO.P,U1,36,GPIO24*%
%TO.N,unconnected-(U1-GPIO24-Pad36)*%
X107070800Y-110425000D03*
%TO.P,U1,37,GPIO25*%
%TO.N,unconnected-(U1-GPIO25-Pad37)*%
X107070800Y-110025000D03*
%TO.P,U1,38,GPIO26/ADC0*%
%TO.N,unconnected-(U1-GPIO26{slash}ADC0-Pad38)*%
X107070800Y-109625000D03*
%TO.P,U1,39,GPIO27/ADC1*%
%TO.N,unconnected-(U1-GPIO27{slash}ADC1-Pad39)*%
X107070800Y-109225000D03*
%TO.P,U1,40,GPIO28/ADC2*%
%TO.N,unconnected-(U1-GPIO28{slash}ADC2-Pad40)*%
X107070800Y-108825000D03*
%TO.P,U1,41,GPIO29/ADC3*%
%TO.N,unconnected-(U1-GPIO29{slash}ADC3-Pad41)*%
X107070800Y-108425000D03*
%TO.P,U1,42,IOVDD*%
%TO.N,+3.3V*%
X107070800Y-108025000D03*
D13*
%TO.P,U1,43,ADC_AVDD*%
X107908300Y-107187500D03*
%TO.P,U1,44,VREG_VIN*%
X108308300Y-107187500D03*
%TO.P,U1,45,VREG_VOUT*%
%TO.N,Net-(U1-VREG_VOUT)*%
X108708300Y-107187500D03*
%TO.P,U1,46,USB_DM*%
%TO.N,Net-(U1-USB_DM)*%
X109108300Y-107187500D03*
%TO.P,U1,47,USB_DP*%
%TO.N,Net-(U1-USB_DP)*%
X109508300Y-107187500D03*
%TO.P,U1,48,USB_VDD*%
%TO.N,+3.3V*%
X109908300Y-107187500D03*
%TO.P,U1,49,IOVDD*%
X110308300Y-107187500D03*
%TO.P,U1,50,DVDD*%
%TO.N,Net-(U1-VREG_VOUT)*%
X110708300Y-107187500D03*
%TO.P,U1,51,QSPI_SD3*%
%TO.N,Net-(U1-QSPI_SD3)*%
X111108300Y-107187500D03*
%TO.P,U1,52,QSPI_SCLK*%
%TO.N,Net-(U1-QSPI_SCLK)*%
X111508300Y-107187500D03*
%TO.P,U1,53,QSPI_SD0*%
%TO.N,Net-(U1-QSPI_SD0)*%
X111908300Y-107187500D03*
%TO.P,U1,54,QSPI_SD2*%
%TO.N,Net-(U1-QSPI_SD2)*%
X112308300Y-107187500D03*
%TO.P,U1,55,QSPI_SD1*%
%TO.N,Net-(U1-QSPI_SD1)*%
X112708300Y-107187500D03*
%TO.P,U1,56,~{QSPI_SS}*%
%TO.N,Net-(U1-~{QSPI_SS})*%
X113108300Y-107187500D03*
D14*
%TO.P,U1,57,GND*%
%TO.N,GND*%
X110508300Y-110625000D03*
%TD*%
D15*
%TO.P,SW11,1,1*%
%TO.N,Net-(U1-~{QSPI_SS})*%
X128583300Y-119550000D03*
X124433300Y-119550000D03*
%TO.P,SW11,2,2*%
%TO.N,GND*%
X128583300Y-121700000D03*
X124433300Y-121700000D03*
%TD*%
%TO.P,SW10,1,1*%
%TO.N,Net-(U1-RUN)*%
X96583300Y-119550000D03*
X92433300Y-119550000D03*
%TO.P,SW10,2,2*%
%TO.N,GND*%
X96583300Y-121700000D03*
X92433300Y-121700000D03*
%TD*%
D16*
%TO.P,SW9,1,1*%
%TO.N,Net-(U1-GPIO10)*%
X129608300Y-93725000D03*
%TO.P,SW9,2,2*%
%TO.N,GND*%
X123258300Y-96265000D03*
%TD*%
%TO.P,SW8,1,1*%
%TO.N,Net-(U1-GPIO9)*%
X129608300Y-74675000D03*
%TO.P,SW8,2,2*%
%TO.N,GND*%
X123258300Y-77215000D03*
%TD*%
%TO.P,SW7,1,1*%
%TO.N,Net-(U1-GPIO8)*%
X129608300Y-55625000D03*
%TO.P,SW7,2,2*%
%TO.N,GND*%
X123258300Y-58165000D03*
%TD*%
%TO.P,SW6,1,1*%
%TO.N,Net-(U1-GPIO7)*%
X110558300Y-93725000D03*
%TO.P,SW6,2,2*%
%TO.N,GND*%
X104208300Y-96265000D03*
%TD*%
%TO.P,SW5,1,1*%
%TO.N,Net-(U1-GPIO6)*%
X110558300Y-74675000D03*
%TO.P,SW5,2,2*%
%TO.N,GND*%
X104208300Y-77215000D03*
%TD*%
%TO.P,SW4,1,1*%
%TO.N,Net-(U1-GPIO5)*%
X110558300Y-55625000D03*
%TO.P,SW4,2,2*%
%TO.N,GND*%
X104208300Y-58165000D03*
%TD*%
%TO.P,SW3,1,1*%
%TO.N,Net-(U1-GPIO4)*%
X91508300Y-93725000D03*
%TO.P,SW3,2,2*%
%TO.N,GND*%
X85158300Y-96265000D03*
%TD*%
%TO.P,SW2,1,1*%
%TO.N,Net-(U1-GPIO3)*%
X91508300Y-74675000D03*
%TO.P,SW2,2,2*%
%TO.N,GND*%
X85158300Y-77215000D03*
%TD*%
%TO.P,SW1,1,1*%
%TO.N,Net-(U1-GPIO2)*%
X91508300Y-55625000D03*
%TO.P,SW1,2,2*%
%TO.N,GND*%
X85158300Y-58165000D03*
%TD*%
D17*
%TO.P,R6,1*%
%TO.N,Net-(U1-RUN)*%
X101018300Y-118625000D03*
%TO.P,R6,2*%
%TO.N,+3.3V*%
X99998300Y-118625000D03*
%TD*%
%TO.P,R1,1*%
%TO.N,+3.3V*%
X129018300Y-105625000D03*
%TO.P,R1,2*%
%TO.N,Net-(U1-~{QSPI_SS})*%
X127998300Y-105625000D03*
%TD*%
D18*
%TO.P,J1,A1,GND*%
%TO.N,GND*%
X107508300Y-35625000D03*
%TO.P,J1,A4,VBUS*%
%TO.N,Net-(F1-Pad2)*%
X108358300Y-35625000D03*
%TO.P,J1,A5,CC1*%
%TO.N,Net-(J1-CC1)*%
X109208300Y-35625000D03*
%TO.P,J1,A6,D+*%
%TO.N,Net-(J1-D+-PadA6)*%
X110058300Y-35625000D03*
%TO.P,J1,A7,D-*%
%TO.N,Net-(J1-D--PadA7)*%
X110908300Y-35625000D03*
%TO.P,J1,A8,SBU1*%
%TO.N,unconnected-(J1-SBU1-PadA8)*%
X111758300Y-35625000D03*
%TO.P,J1,A9,VBUS*%
%TO.N,Net-(F1-Pad2)*%
X112608300Y-35625000D03*
%TO.P,J1,A12,GND*%
%TO.N,GND*%
X113458300Y-35625000D03*
%TO.P,J1,B1,GND*%
X113458300Y-36975000D03*
%TO.P,J1,B4,VBUS*%
%TO.N,Net-(F1-Pad2)*%
X112608300Y-36975000D03*
%TO.P,J1,B5,CC2*%
%TO.N,Net-(J1-CC2)*%
X111758300Y-36975000D03*
%TO.P,J1,B6,D+*%
%TO.N,Net-(J1-D+-PadA6)*%
X110908300Y-36975000D03*
%TO.P,J1,B7,D-*%
%TO.N,Net-(J1-D--PadA7)*%
X110058300Y-36975000D03*
%TO.P,J1,B8,SBU2*%
%TO.N,unconnected-(J1-SBU2-PadB8)*%
X109208300Y-36975000D03*
%TO.P,J1,B9,VBUS*%
%TO.N,Net-(F1-Pad2)*%
X108358300Y-36975000D03*
%TO.P,J1,B12,GND*%
%TO.N,GND*%
X107508300Y-36975000D03*
D19*
%TO.P,J1,S1,SHIELD*%
X106158300Y-36605000D03*
D20*
X106158300Y-39985000D03*
D19*
X114808300Y-36605000D03*
D20*
X114808300Y-39985000D03*
%TD*%
D21*
%TO.P,C13,1*%
%TO.N,Net-(U1-RUN)*%
X104988300Y-118625000D03*
%TO.P,C13,2*%
%TO.N,GND*%
X104028300Y-118625000D03*
%TD*%
%TO.P,C12,1*%
%TO.N,+3.3V*%
X122988300Y-115625000D03*
%TO.P,C12,2*%
%TO.N,GND*%
X122028300Y-115625000D03*
%TD*%
%TO.P,C11,1*%
%TO.N,+3.3V*%
X119988300Y-115625000D03*
%TO.P,C11,2*%
%TO.N,GND*%
X119028300Y-115625000D03*
%TD*%
%TO.P,C10,1*%
%TO.N,+3.3V*%
X116988300Y-115625000D03*
%TO.P,C10,2*%
%TO.N,GND*%
X116028300Y-115625000D03*
%TD*%
%TO.P,C9,1*%
%TO.N,GND*%
X100988300Y-115625000D03*
%TO.P,C9,2*%
%TO.N,Net-(U1-VREG_VOUT)*%
X100028300Y-115625000D03*
%TD*%
%TO.P,C8,1*%
%TO.N,GND*%
X104988300Y-115625000D03*
%TO.P,C8,2*%
%TO.N,Net-(U1-VREG_VOUT)*%
X104028300Y-115625000D03*
%TD*%
%TO.P,C3,1*%
%TO.N,+3.3V*%
X128988300Y-110625000D03*
%TO.P,C3,2*%
%TO.N,GND*%
X128028300Y-110625000D03*
%TD*%
%TO.P,C2,1*%
%TO.N,Net-(U1-XOUT)*%
X113988300Y-119625000D03*
%TO.P,C2,2*%
%TO.N,GND*%
X113028300Y-119625000D03*
%TD*%
%TO.P,C1,1*%
%TO.N,GND*%
X107988300Y-119625000D03*
%TO.P,C1,2*%
%TO.N,Net-(U1-XIN)*%
X107028300Y-119625000D03*
%TD*%
D22*
%TO.N,+3.3V*%
X116410885Y-120839115D03*
%TO.N,Net-(U1-GPIO7)*%
X108500000Y-92757000D03*
%TO.N,Net-(U1-GPIO10)*%
X136000000Y-99500000D03*
X141000000Y-108000000D03*
X121873660Y-114280010D03*
%TO.N,Net-(U1-GPIO6)*%
X113500000Y-77000000D03*
%TO.N,Net-(U1-GPIO8)*%
X135500000Y-62000000D03*
%TO.N,Net-(U1-GPIO9)*%
X130500000Y-71000000D03*
X140100000Y-107500000D03*
X122500000Y-113600000D03*
%TO.N,Net-(U1-GPIO8)*%
X127890900Y-109500000D03*
X139500000Y-106500000D03*
%TO.N,Net-(U1-GPIO7)*%
X138500000Y-105500000D03*
X123500000Y-105600000D03*
%TO.N,+3.3V*%
X118000000Y-117000000D03*
X110500000Y-112725002D03*
%TO.N,Net-(U1-GPIO6)*%
X137626084Y-104600000D03*
X122500000Y-105590700D03*
%TO.N,Net-(U1-GPIO5)*%
X115600000Y-107260217D03*
%TO.N,Net-(U1-GPIO4)*%
X122500000Y-103500000D03*
X121000000Y-106000000D03*
X116482056Y-109031676D03*
%TO.N,Net-(U1-GPIO3)*%
X115595996Y-109069206D03*
%TO.N,Net-(U1-GPIO2)*%
X115000000Y-108500000D03*
%TO.N,Net-(U1-USB_DP)*%
X109900000Y-106000000D03*
%TO.N,Net-(U1-USB_DM)*%
X109674265Y-105174265D03*
%TO.N,Net-(U1-~{QSPI_SS})*%
X124500000Y-106000000D03*
X113860821Y-106889709D03*
%TO.N,Net-(U1-QSPI_SD1)*%
X127500000Y-107000000D03*
X114000000Y-105902000D03*
%TO.N,Net-(U1-QSPI_SD2)*%
X127500000Y-108000000D03*
X112524265Y-105902000D03*
%TO.N,GND*%
X115000000Y-116000000D03*
X112000000Y-113126000D03*
%TO.N,Net-(U1-RUN)*%
X104550032Y-117226811D03*
X108500000Y-115400000D03*
%TO.N,Net-(U1-XOUT)*%
X114000000Y-118500000D03*
X111000000Y-116000000D03*
%TO.N,Net-(U1-~{QSPI_SS})*%
X126610500Y-122306200D03*
X128490900Y-107097700D03*
%TO.N,Net-(J1-D--PadA7)*%
X91460000Y-39806200D03*
%TO.N,Net-(J1-D+-PadA6)*%
X98237800Y-44739700D03*
%TO.N,+5V*%
X123697300Y-36893700D03*
X97397300Y-36970800D03*
%TO.N,+3.3V*%
X138265300Y-97493100D03*
%TO.N,GND*%
X108243100Y-109706200D03*
X106007200Y-119585000D03*
X104317000Y-116461500D03*
%TD*%
D23*
%TO.N,Net-(U1-RUN)*%
X96583300Y-119550000D02*
X92433300Y-119550000D01*
X101018300Y-118625000D02*
X100397300Y-118004000D01*
X100397300Y-118004000D02*
X98129300Y-118004000D01*
X98129300Y-118004000D02*
X96583300Y-119550000D01*
X101018300Y-118625000D02*
X102416489Y-117226811D01*
X102416489Y-117226811D02*
X104550032Y-117226811D01*
%TO.N,+3.3V*%
X91607300Y-121074000D02*
X91607300Y-122326000D01*
X97549300Y-121074000D02*
X91607300Y-121074000D01*
X99998300Y-118625000D02*
X97549300Y-121074000D01*
X91607300Y-122326000D02*
X114924000Y-122326000D01*
X114924000Y-122326000D02*
X116410885Y-120839115D01*
%TO.N,Net-(U1-GPIO7)*%
X106942000Y-92558000D02*
X108500000Y-92558000D01*
X108558000Y-92699000D02*
X108500000Y-92757000D01*
X106000000Y-93500000D02*
X106942000Y-92558000D01*
X108558000Y-92616000D02*
X108558000Y-92699000D01*
X105500000Y-93500000D02*
X106000000Y-93500000D01*
X108500000Y-92558000D02*
X108558000Y-92616000D01*
X103684686Y-93500000D02*
X105500000Y-93500000D01*
X87719928Y-95684686D02*
X101500000Y-95684686D01*
X101500000Y-95684686D02*
X103684686Y-93500000D01*
%TO.N,Net-(U1-GPIO10)*%
X139851057Y-108101000D02*
X136000000Y-104249943D01*
X140899000Y-108101000D02*
X139851057Y-108101000D01*
X141000000Y-108000000D02*
X140899000Y-108101000D01*
X136000000Y-104249943D02*
X136000000Y-99500000D01*
X113945800Y-112825000D02*
X116325000Y-112825000D01*
X116325000Y-112825000D02*
X118000000Y-114500000D01*
X118000000Y-114500000D02*
X121935100Y-114500000D01*
X121935100Y-114500000D02*
X121967550Y-114467550D01*
X121967550Y-114467550D02*
X121873660Y-114373660D01*
X121873660Y-114373660D02*
X121873660Y-114280010D01*
%TO.N,Net-(U1-GPIO6)*%
X128500000Y-92324000D02*
X128500000Y-92000000D01*
X133946143Y-92324000D02*
X128500000Y-92324000D01*
X128500000Y-92000000D02*
X113500000Y-77000000D01*
%TO.N,Net-(U1-GPIO8)*%
X139668300Y-68500000D02*
X139668300Y-66168300D01*
X139668300Y-106331700D02*
X139668300Y-68500000D01*
X139668300Y-66168300D02*
X135500000Y-62000000D01*
%TO.N,Net-(U1-GPIO9)*%
X130500000Y-60755170D02*
X130500000Y-71000000D01*
X129608300Y-59863470D02*
X130500000Y-60755170D01*
X128207300Y-55044686D02*
X128207300Y-58462470D01*
X128207300Y-58462470D02*
X129608300Y-59863470D01*
X140100000Y-64135386D02*
X130188614Y-54224000D01*
X140100000Y-107500000D02*
X140100000Y-64135386D01*
X130188614Y-54224000D02*
X129027986Y-54224000D01*
X129027986Y-54224000D02*
X128207300Y-55044686D01*
X121425000Y-112425000D02*
X122500000Y-113500000D01*
X113945800Y-112425000D02*
X121425000Y-112425000D01*
X122500000Y-113500000D02*
X122500000Y-113600000D01*
%TO.N,Net-(U1-GPIO8)*%
X139500000Y-106500000D02*
X139668300Y-106331700D01*
X127890900Y-109198900D02*
X127890900Y-109500000D01*
X127596000Y-108904000D02*
X127890900Y-109198900D01*
X125249310Y-108904000D02*
X127596000Y-108904000D01*
X122128310Y-112025000D02*
X125249310Y-108904000D01*
X113945800Y-112025000D02*
X122128310Y-112025000D01*
%TO.N,Net-(U1-GPIO7)*%
X84577986Y-97666000D02*
X85738614Y-97666000D01*
X83757300Y-96845314D02*
X84577986Y-97666000D01*
X85738614Y-97666000D02*
X87719928Y-95684686D01*
X85738614Y-79776628D02*
X83757300Y-81757942D01*
X83757300Y-81757942D02*
X83757300Y-96845314D01*
X83757300Y-76634686D02*
X83757300Y-77795314D01*
X87519686Y-72872300D02*
X83757300Y-76634686D01*
X83757300Y-77795314D02*
X85738614Y-79776628D01*
X120896914Y-72872300D02*
X87519686Y-72872300D01*
X138500000Y-105500000D02*
X139267300Y-104732700D01*
X124659300Y-76634686D02*
X120896914Y-72872300D01*
X124659300Y-82470057D02*
X124659300Y-76634686D01*
X139267300Y-97078057D02*
X124659300Y-82470057D01*
X139267300Y-104732700D02*
X139267300Y-97078057D01*
X120907093Y-108033550D02*
X123500000Y-105440643D01*
X123500000Y-105440643D02*
X123500000Y-105600000D01*
X113945800Y-111225000D02*
X116240800Y-111225000D01*
X116240800Y-111225000D02*
X116242800Y-111227000D01*
X117340100Y-111227000D02*
X118010100Y-110557000D01*
X116242800Y-111227000D02*
X117340100Y-111227000D01*
X118010100Y-110557000D02*
X119933390Y-110557000D01*
X119933390Y-110557000D02*
X120533550Y-109956840D01*
X120533550Y-109956840D02*
X120533550Y-108033550D01*
X120533550Y-108033550D02*
X120907093Y-108033550D01*
%TO.N,Net-(U1-GPIO6)*%
X122091700Y-105999000D02*
X122001000Y-105999000D01*
X120034300Y-109171010D02*
X120034300Y-109888990D01*
X120034300Y-107965700D02*
X120034300Y-108618990D01*
X119767290Y-108886000D02*
X119114000Y-108886000D01*
X119114000Y-108886000D02*
X119096000Y-108904000D01*
X120034300Y-108618990D02*
X119767290Y-108886000D01*
X119767290Y-108904000D02*
X120034300Y-109171010D01*
X119096000Y-108904000D02*
X119767290Y-108904000D01*
X120034300Y-109888990D02*
X119767290Y-110156000D01*
X122500000Y-105590700D02*
X122091700Y-105999000D01*
X119767290Y-110156000D02*
X118074310Y-110156000D01*
X118074310Y-110156000D02*
X117959155Y-110040845D01*
X122001000Y-105999000D02*
X120034300Y-107965700D01*
X116408900Y-110826000D02*
X116407900Y-110825000D01*
X117959155Y-110040845D02*
X117174000Y-110826000D01*
X117174000Y-110826000D02*
X116408900Y-110826000D01*
X116407900Y-110825000D02*
X113945800Y-110825000D01*
%TO.N,+3.3V*%
X117611500Y-116248200D02*
X118000000Y-116248200D01*
X118000000Y-117000000D02*
X118000000Y-116248200D01*
X110526000Y-112526000D02*
X110500000Y-112526000D01*
X111474000Y-112526000D02*
X111000000Y-113000000D01*
X110500000Y-112526000D02*
X110500000Y-112725002D01*
X111000000Y-113000000D02*
X110526000Y-112526000D01*
%TO.N,Net-(U1-GPIO6)*%
X137626084Y-104600000D02*
X138866300Y-103359784D01*
X138866300Y-103359784D02*
X138866300Y-97244157D01*
X138866300Y-97244157D02*
X133946143Y-92324000D01*
%TO.N,Net-(U1-GPIO5)*%
X113945800Y-110425000D02*
X116575000Y-110425000D01*
X116575000Y-110425000D02*
X117189395Y-109810605D01*
X117189395Y-109810605D02*
X117189395Y-108689395D01*
X117189395Y-108689395D02*
X115600000Y-107100000D01*
X115600000Y-107100000D02*
X115600000Y-107260217D01*
%TO.N,Net-(U1-GPIO4)*%
X122500000Y-103500000D02*
X119668310Y-103500000D01*
X119668310Y-103500000D02*
X117807300Y-105361010D01*
X118074310Y-106346000D02*
X120654000Y-106346000D01*
X117807300Y-105361010D02*
X117807300Y-106078990D01*
X117807300Y-106078990D02*
X118074310Y-106346000D01*
X120654000Y-106346000D02*
X121000000Y-106000000D01*
X113945800Y-110025000D02*
X115488732Y-110025000D01*
X115488732Y-110025000D02*
X116482056Y-109031676D01*
%TO.N,Net-(U1-GPIO3)*%
X115040202Y-109625000D02*
X115595996Y-109069206D01*
X113945800Y-109625000D02*
X115040202Y-109625000D01*
%TO.N,Net-(U1-GPIO2)*%
X113945800Y-109225000D02*
X114775000Y-109225000D01*
X114775000Y-109225000D02*
X115000000Y-109000000D01*
X115000000Y-109000000D02*
X115000000Y-108500000D01*
%TO.N,Net-(U1-USB_DP)*%
X110000000Y-106100000D02*
X109900000Y-106000000D01*
X110000000Y-106201000D02*
X110000000Y-106100000D01*
%TO.N,Net-(U1-USB_DM)*%
X109108300Y-105891700D02*
X109108300Y-107187500D01*
X109674265Y-105174265D02*
X109500000Y-105348530D01*
X109500000Y-105348530D02*
X109500000Y-105500000D01*
X109500000Y-105500000D02*
X109108300Y-105891700D01*
%TO.N,Net-(U1-VREG_VOUT)*%
X104500000Y-105000000D02*
X108416600Y-105000000D01*
X108416600Y-105000000D02*
X108708300Y-105291700D01*
X108708300Y-107187500D02*
X108708300Y-105291700D01*
X108708300Y-105291700D02*
X109750000Y-104250000D01*
X109750000Y-104250000D02*
X110500000Y-105000000D01*
%TO.N,Net-(U1-USB_DP)*%
X109508300Y-106491700D02*
X109508300Y-106201000D01*
X109508300Y-106201000D02*
X110000000Y-106201000D01*
X109508300Y-107187500D02*
X109508300Y-106491700D01*
%TO.N,Net-(U1-~{QSPI_SS})*%
X124500000Y-106000000D02*
X125815800Y-106000000D01*
X125815800Y-106000000D02*
X126095800Y-105720000D01*
X113108300Y-106891700D02*
X113500000Y-106500000D01*
X113108300Y-107187500D02*
X113108300Y-106891700D01*
X113500000Y-106500000D02*
X113860821Y-106860821D01*
X113860821Y-106860821D02*
X113860821Y-106889709D01*
%TO.N,Net-(U1-QSPI_SD1)*%
X127500000Y-107000000D02*
X126105800Y-107000000D01*
X126105800Y-107000000D02*
X126095800Y-106990000D01*
X112708300Y-107187500D02*
X112708300Y-106567908D01*
X112708300Y-106567908D02*
X113573208Y-105703000D01*
X113573208Y-105703000D02*
X114000000Y-105703000D01*
X114000000Y-105703000D02*
X114000000Y-105902000D01*
%TO.N,Net-(U1-QSPI_SD2)*%
X127500000Y-108000000D02*
X126355800Y-108000000D01*
X126355800Y-108000000D02*
X126095800Y-108260000D01*
X112308300Y-107187500D02*
X112308300Y-105808300D01*
X112308300Y-105808300D02*
X112402000Y-105902000D01*
X112402000Y-105902000D02*
X112524265Y-105902000D01*
%TO.N,Net-(U1-QSPI_SD0)*%
X111908300Y-107187500D02*
X111908300Y-105591700D01*
X111908300Y-105591700D02*
X112198000Y-105302000D01*
X112198000Y-105302000D02*
X115000000Y-105302000D01*
X115000000Y-105302000D02*
X115000000Y-105811690D01*
X115000000Y-105811690D02*
X118718310Y-109530000D01*
X118718310Y-109530000D02*
X118920800Y-109530000D01*
%TO.N,Net-(U1-QSPI_SCLK)*%
X111508300Y-107187500D02*
X111508300Y-104901000D01*
X111508300Y-104901000D02*
X115452201Y-104901000D01*
X115452201Y-104901000D02*
X115525601Y-104974400D01*
X115525601Y-104974400D02*
X115525601Y-105067291D01*
X119500000Y-107616000D02*
X119500000Y-107680800D01*
X115525601Y-105067291D02*
X118074310Y-107616000D01*
X118074310Y-107616000D02*
X119500000Y-107616000D01*
X119500000Y-107680800D02*
X118920800Y-108260000D01*
%TO.N,Net-(U1-QSPI_SD3)*%
X111108300Y-104608300D02*
X111000000Y-104500000D01*
X111000000Y-104500000D02*
X115618301Y-104500000D01*
X111108300Y-107187500D02*
X111108300Y-104608300D01*
X118108301Y-106990000D02*
X118920800Y-106990000D01*
X115618301Y-104500000D02*
X118108301Y-106990000D01*
%TO.N,GND*%
X115000000Y-116000000D02*
X115653300Y-116000000D01*
X115653300Y-116000000D02*
X116028300Y-115625000D01*
X111508300Y-113491700D02*
X112000000Y-113000000D01*
X111508300Y-114062500D02*
X111508300Y-113491700D01*
X112000000Y-113000000D02*
X112000000Y-113126000D01*
%TO.N,+3.3V*%
X112810526Y-111189474D02*
X112409300Y-111590700D01*
X110511526Y-113324000D02*
X110308300Y-113527226D01*
X111000000Y-113000000D02*
X110676000Y-113324000D01*
X112975000Y-111189474D02*
X112810526Y-111189474D01*
X112409300Y-111590700D02*
X112409300Y-112526000D01*
X112409300Y-112526000D02*
X111474000Y-112526000D01*
X110676000Y-113324000D02*
X110511526Y-113324000D01*
D24*
X107908300Y-107187500D02*
X107096800Y-107999000D01*
X107096800Y-107999000D02*
X107070800Y-107999000D01*
D23*
X107070800Y-111625000D02*
X107625000Y-111625000D01*
X108526000Y-112526000D02*
X109307074Y-112526000D01*
X110308300Y-113527226D02*
X110308300Y-114062500D01*
X107625000Y-111625000D02*
X108526000Y-112526000D01*
X109307074Y-112526000D02*
X110308300Y-113527226D01*
%TO.N,Net-(U1-RUN)*%
X104550032Y-117226811D02*
X104550032Y-118186732D01*
X104550032Y-118186732D02*
X104988300Y-118625000D01*
X108708300Y-115291700D02*
X108500000Y-115500000D01*
X108500000Y-115500000D02*
X108500000Y-115400000D01*
X108708300Y-114062500D02*
X108708300Y-115291700D01*
%TO.N,Net-(U1-XOUT)*%
X114000000Y-118500000D02*
X114000000Y-119613300D01*
X114000000Y-119613300D02*
X113988300Y-119625000D01*
X110708300Y-115708300D02*
X111000000Y-116000000D01*
X110708300Y-114062500D02*
X110708300Y-115708300D01*
%TO.N,Net-(U1-XIN)*%
X111108300Y-114062500D02*
X111108300Y-114608300D01*
X111108300Y-114608300D02*
X111758300Y-115258300D01*
X111758300Y-115258300D02*
X111758300Y-117625000D01*
%TO.N,Net-(U1-VREG_VOUT)*%
X103411100Y-115007800D02*
X103451650Y-115048350D01*
X104500000Y-114000000D02*
X103451650Y-115048350D01*
X109908300Y-115908300D02*
X109908300Y-114062500D01*
X104500000Y-105000000D02*
X104500000Y-114000000D01*
X104500000Y-114000000D02*
X106500000Y-116000000D01*
X110000000Y-116000000D02*
X109908300Y-115908300D01*
X106500000Y-116000000D02*
X110000000Y-116000000D01*
X110708300Y-106652226D02*
X110708300Y-107187500D01*
X110500000Y-105000000D02*
X110500000Y-106443926D01*
X110500000Y-106443926D02*
X110708300Y-106652226D01*
%TO.N,+3.3V*%
X128609300Y-111004000D02*
X128988300Y-110625000D01*
X109909300Y-107721774D02*
X109908300Y-107720774D01*
X109908300Y-107720774D02*
X109908300Y-107187500D01*
X113945800Y-111625000D02*
X113412526Y-111625000D01*
X113412526Y-111625000D02*
X113411526Y-111626000D01*
X113000000Y-108025000D02*
X113945800Y-108025000D01*
X112975000Y-111189474D02*
X113411526Y-111626000D01*
X113000000Y-108025000D02*
X112975000Y-108050000D01*
X112975000Y-108050000D02*
X112975000Y-111189474D01*
X113945800Y-108025000D02*
X112975000Y-108025000D01*
X110308300Y-107808300D02*
X111000000Y-108500000D01*
X111475000Y-108025000D02*
X113000000Y-108025000D01*
X110308300Y-107187500D02*
X110308300Y-107808300D01*
X111000000Y-108500000D02*
X111475000Y-108025000D01*
X109908300Y-107187500D02*
X110308300Y-107187500D01*
X108308300Y-107808300D02*
X109000000Y-108500000D01*
X108308300Y-107187500D02*
X108308300Y-107808300D01*
X109000000Y-108500000D02*
X109131074Y-108500000D01*
X109131074Y-108500000D02*
X109909300Y-107721774D01*
D24*
X107908300Y-107187500D02*
X108282300Y-107187500D01*
D23*
%TO.N,Net-(U1-~{QSPI_SS})*%
X124433300Y-119550000D02*
X125260000Y-119550000D01*
X125260000Y-119550000D02*
X128583300Y-119550000D01*
X126631000Y-122326700D02*
X126610500Y-122306200D01*
X129239000Y-122326700D02*
X126631000Y-122326700D01*
X129410000Y-122155700D02*
X129239000Y-122326700D01*
X129410000Y-119550000D02*
X129410000Y-122155700D01*
X128583300Y-119550000D02*
X129410000Y-119550000D01*
X127903300Y-106510100D02*
X127903300Y-105720000D01*
X128490900Y-107097700D02*
X127903300Y-106510100D01*
X127998300Y-105625000D02*
X127903300Y-105720000D01*
X127903300Y-105720000D02*
X126095800Y-105720000D01*
%TO.N,Net-(J1-D--PadA7)*%
X110908300Y-35995200D02*
X110908300Y-35625000D01*
X110058300Y-36845200D02*
X110908300Y-35995200D01*
X110058300Y-36975000D02*
X110058300Y-36845200D01*
X108762000Y-38368900D02*
X102571800Y-38368900D01*
X110058300Y-37072600D02*
X108762000Y-38368900D01*
X110058300Y-36975000D02*
X110058300Y-37072600D01*
X92731000Y-38535200D02*
X91460000Y-39806200D01*
X102405500Y-38535200D02*
X92731000Y-38535200D01*
X102571800Y-38368900D02*
X102405500Y-38535200D01*
X102571800Y-38368900D02*
X102405500Y-38535200D01*
%TO.N,Net-(J1-D+-PadA6)*%
X98237800Y-44739600D02*
X98237800Y-44739700D01*
X103250100Y-44739600D02*
X98237800Y-44739600D01*
X110908300Y-37081400D02*
X103250100Y-44739600D01*
X110908300Y-36975000D02*
X110908300Y-37081400D01*
%TO.N,Net-(F1-Pad2)*%
X112608300Y-35541200D02*
X112608300Y-35625000D01*
X111981000Y-34913900D02*
X112608300Y-35541200D01*
X108997800Y-34913900D02*
X111981000Y-34913900D01*
X108358300Y-35553400D02*
X108997800Y-34913900D01*
X108358300Y-35625000D02*
X108358300Y-35553400D01*
%TO.N,Net-(U1-VREG_VOUT)*%
X103451650Y-115048350D02*
X104028300Y-115625000D01*
X100645500Y-115007800D02*
X103411100Y-115007800D01*
X100028300Y-115625000D02*
X100645500Y-115007800D01*
%TO.N,+5V*%
X100262400Y-34105700D02*
X97397300Y-36970800D01*
X120909300Y-34105700D02*
X100262400Y-34105700D01*
X123697300Y-36893700D02*
X120909300Y-34105700D01*
%TO.N,+3.3V*%
X119988300Y-115625000D02*
X119988300Y-116248200D01*
X118000000Y-116248200D02*
X119988300Y-116248200D01*
X116988300Y-115625000D02*
X117611500Y-116248200D01*
X122365100Y-116248200D02*
X122988300Y-115625000D01*
X119988300Y-116248200D02*
X122365100Y-116248200D01*
X123988300Y-115625000D02*
X128609300Y-111004000D01*
X122988300Y-115625000D02*
X123988300Y-115625000D01*
X137150200Y-97493100D02*
X138265300Y-97493100D01*
X129018300Y-105625000D02*
X137150200Y-97493100D01*
X129092600Y-105699300D02*
X129018300Y-105625000D01*
X129092600Y-110520700D02*
X129092600Y-105699300D01*
X128988300Y-110625000D02*
X129092600Y-110520700D01*
X119650100Y-104990700D02*
X118920800Y-105720000D01*
X128384000Y-104990700D02*
X119650100Y-104990700D01*
X129018300Y-105625000D02*
X128384000Y-104990700D01*
%TO.N,Net-(U1-XOUT)*%
X109258300Y-117625000D02*
X110060000Y-117625000D01*
X110060000Y-117825400D02*
X110060000Y-117625000D01*
X111109800Y-118875200D02*
X110060000Y-117825400D01*
X113238500Y-118875200D02*
X111109800Y-118875200D01*
X113988300Y-119625000D02*
X113238500Y-118875200D01*
%TO.N,Net-(U1-XIN)*%
X111758300Y-117625000D02*
X110956600Y-117625000D01*
X107028300Y-118008100D02*
X107028300Y-119625000D01*
X108613100Y-116423300D02*
X107028300Y-118008100D01*
X109940100Y-116423300D02*
X108613100Y-116423300D01*
X110956600Y-117439800D02*
X109940100Y-116423300D01*
X110956600Y-117625000D02*
X110956600Y-117439800D01*
%TO.N,GND*%
X92433300Y-121700000D02*
X96583300Y-121700000D01*
X113680900Y-120277600D02*
X113028300Y-119625000D01*
X115358700Y-120277600D02*
X113680900Y-120277600D01*
X116028300Y-119608000D02*
X115358700Y-120277600D01*
X107138300Y-36605000D02*
X107508300Y-36975000D01*
X106158300Y-36605000D02*
X107138300Y-36605000D01*
X114808300Y-39985000D02*
X114808300Y-38833300D01*
X128583300Y-121700000D02*
X124433300Y-121700000D01*
X127190800Y-110625000D02*
X126095800Y-109530000D01*
X128028300Y-110625000D02*
X127190800Y-110625000D01*
X114808300Y-36605000D02*
X114808300Y-38106700D01*
X114473400Y-38106700D02*
X114808300Y-38106700D01*
X113458300Y-37091600D02*
X114473400Y-38106700D01*
X113458300Y-36975000D02*
X113458300Y-37091600D01*
X114808300Y-38833300D02*
X114808300Y-38106700D01*
X119028300Y-114973900D02*
X119028300Y-115625000D01*
X122028300Y-114973900D02*
X119028300Y-114973900D01*
X122028300Y-114973900D02*
X122028300Y-115625000D01*
X118120300Y-121700000D02*
X124433300Y-121700000D01*
X116028300Y-119608000D02*
X118120300Y-121700000D01*
X107988300Y-119625000D02*
X113028300Y-119625000D01*
X108606600Y-110069700D02*
X108606600Y-110625000D01*
X108243100Y-109706200D02*
X108606600Y-110069700D01*
X110508300Y-110625000D02*
X108606600Y-110625000D01*
X107347000Y-120266300D02*
X107988300Y-119625000D01*
X106688500Y-120266300D02*
X107347000Y-120266300D01*
X106007200Y-119585000D02*
X106688500Y-120266300D01*
X101637400Y-116274100D02*
X104317000Y-116274100D01*
X100988300Y-115625000D02*
X101637400Y-116274100D01*
X104317000Y-116461500D02*
X104317000Y-116274100D01*
X104339200Y-116274100D02*
X104988300Y-115625000D01*
X104317000Y-116274100D02*
X104339200Y-116274100D01*
X116679400Y-114973900D02*
X119028300Y-114973900D01*
X116028300Y-115625000D02*
X116679400Y-114973900D01*
X104988300Y-119585000D02*
X106007200Y-119585000D01*
X104028300Y-118625000D02*
X104988300Y-119585000D01*
X104208300Y-58165000D02*
X104208300Y-58067500D01*
X113458300Y-35534300D02*
X113458300Y-35625000D01*
X112431400Y-34507400D02*
X113458300Y-35534300D01*
X108553800Y-34507400D02*
X112431400Y-34507400D01*
X107508300Y-35552900D02*
X108553800Y-34507400D01*
X107508300Y-35625000D02*
X107508300Y-35552900D01*
X123187200Y-96193900D02*
X123258300Y-96265000D01*
X104279400Y-96193900D02*
X123187200Y-96193900D01*
X104208300Y-96265000D02*
X104279400Y-96193900D01*
X85255800Y-58067500D02*
X104208300Y-58067500D01*
X85158300Y-58165000D02*
X85255800Y-58067500D01*
X119316600Y-73273300D02*
X123258300Y-77215000D01*
X108150000Y-73273300D02*
X119316600Y-73273300D01*
X104208300Y-77215000D02*
X108150000Y-73273300D01*
X123160800Y-58067500D02*
X104208300Y-58067500D01*
X123258300Y-58165000D02*
X123160800Y-58067500D01*
X116028300Y-115625000D02*
X116028300Y-119608000D01*
X126095800Y-110906400D02*
X126095800Y-109530000D01*
X122028300Y-114973900D02*
X126095800Y-110906400D01*
X104137200Y-77143900D02*
X104208300Y-77215000D01*
X85229400Y-77143900D02*
X104137200Y-77143900D01*
X85158300Y-77215000D02*
X85229400Y-77143900D01*
X100953300Y-121700000D02*
X104028300Y-118625000D01*
X96583300Y-121700000D02*
X100953300Y-121700000D01*
X110972700Y-92157000D02*
X92306400Y-92157000D01*
X111960000Y-93144300D02*
X110972700Y-92157000D01*
X111960000Y-94305700D02*
X111960000Y-93144300D01*
X110955600Y-95310100D02*
X111960000Y-94305700D01*
X105163200Y-95310100D02*
X110955600Y-95310100D01*
X104208300Y-96265000D02*
X105163200Y-95310100D01*
X89100000Y-92323300D02*
X85158300Y-96265000D01*
X92140100Y-92323300D02*
X89100000Y-92323300D01*
X92306400Y-92157000D02*
X92140100Y-92323300D01*
X92306400Y-92157000D02*
X92140100Y-92323300D01*
%TD*%
%TA.AperFunction,Conductor*%
%TO.N,GND*%
G36*
X117885556Y-115091018D02*
G01*
X117920943Y-115100501D01*
X117920944Y-115100501D01*
X118086654Y-115100501D01*
X118086670Y-115100500D01*
X118159676Y-115100500D01*
X118226715Y-115120185D01*
X118272470Y-115172989D01*
X118282414Y-115242147D01*
X118278752Y-115259095D01*
X118251155Y-115354081D01*
X118251154Y-115354087D01*
X118249509Y-115374999D01*
X118249510Y-115375000D01*
X118904300Y-115375000D01*
X118912985Y-115377550D01*
X118921947Y-115376262D01*
X118945987Y-115387240D01*
X118971339Y-115394685D01*
X118977266Y-115401525D01*
X118985503Y-115405287D01*
X118999792Y-115427521D01*
X119017094Y-115447489D01*
X119019381Y-115458003D01*
X119023277Y-115464065D01*
X119028300Y-115499000D01*
X119028300Y-115523700D01*
X119008615Y-115590739D01*
X118955811Y-115636494D01*
X118904300Y-115647700D01*
X117911597Y-115647700D01*
X117844558Y-115628015D01*
X117823916Y-115611381D01*
X117805119Y-115592584D01*
X117771634Y-115531261D01*
X117768800Y-115504903D01*
X117768800Y-115390317D01*
X117768799Y-115390302D01*
X117765943Y-115354008D01*
X117765942Y-115354005D01*
X117765941Y-115354002D01*
X117734386Y-115245388D01*
X117734407Y-115237999D01*
X117731179Y-115231354D01*
X117734505Y-115203535D01*
X117734585Y-115175519D01*
X117738596Y-115169315D01*
X117739474Y-115161979D01*
X117757313Y-115140373D01*
X117772527Y-115116849D01*
X117779256Y-115113798D01*
X117783961Y-115108101D01*
X117810647Y-115099570D01*
X117836165Y-115088005D01*
X117845121Y-115088551D01*
X117850513Y-115086828D01*
X117885556Y-115091018D01*
G37*
%TD.AperFunction*%
%TA.AperFunction,Conductor*%
G36*
X121226715Y-115120185D02*
G01*
X121272470Y-115172989D01*
X121282414Y-115242147D01*
X121278752Y-115259095D01*
X121251155Y-115354081D01*
X121251154Y-115354087D01*
X121249509Y-115374999D01*
X121249510Y-115375000D01*
X121904300Y-115375000D01*
X121912985Y-115377550D01*
X121921947Y-115376262D01*
X121945987Y-115387240D01*
X121971339Y-115394685D01*
X121977266Y-115401525D01*
X121985503Y-115405287D01*
X121999792Y-115427521D01*
X122017094Y-115447489D01*
X122019381Y-115458003D01*
X122023277Y-115464065D01*
X122028300Y-115499000D01*
X122028300Y-115523700D01*
X122008615Y-115590739D01*
X121955811Y-115636494D01*
X121904300Y-115647700D01*
X120892800Y-115647700D01*
X120825761Y-115628015D01*
X120780006Y-115575211D01*
X120768800Y-115523700D01*
X120768800Y-115390317D01*
X120768799Y-115390302D01*
X120765943Y-115354008D01*
X120765942Y-115354002D01*
X120738369Y-115259095D01*
X120738568Y-115189225D01*
X120776510Y-115130555D01*
X120840149Y-115101712D01*
X120857445Y-115100500D01*
X121159676Y-115100500D01*
X121226715Y-115120185D01*
G37*
%TD.AperFunction*%
%TA.AperFunction,Conductor*%
G36*
X126288839Y-109549685D02*
G01*
X126334594Y-109602489D01*
X126345800Y-109654000D01*
X126345800Y-110355000D01*
X126799343Y-110355000D01*
X126866092Y-110348934D01*
X127019695Y-110301070D01*
X127060375Y-110276478D01*
X127127930Y-110258641D01*
X127194404Y-110280158D01*
X127238692Y-110334197D01*
X127244435Y-110369510D01*
X127249510Y-110375000D01*
X127904300Y-110375000D01*
X127912985Y-110377550D01*
X127921947Y-110376262D01*
X127945987Y-110387240D01*
X127971339Y-110394685D01*
X127977266Y-110401525D01*
X127985503Y-110405287D01*
X127999792Y-110427521D01*
X128017094Y-110447489D01*
X128019381Y-110458003D01*
X128023277Y-110464065D01*
X128028300Y-110499000D01*
X128028300Y-110684403D01*
X128008615Y-110751442D01*
X127991981Y-110772084D01*
X127925384Y-110838681D01*
X127864061Y-110872166D01*
X127837703Y-110875000D01*
X127249510Y-110875000D01*
X127251154Y-110895910D01*
X127296268Y-111051195D01*
X127378578Y-111190374D01*
X127378585Y-111190383D01*
X127388452Y-111200250D01*
X127421937Y-111261573D01*
X127416953Y-111331265D01*
X127388452Y-111375612D01*
X123775884Y-114988181D01*
X123748956Y-115002884D01*
X123723138Y-115019477D01*
X123716937Y-115020368D01*
X123714561Y-115021666D01*
X123688203Y-115024500D01*
X123654966Y-115024500D01*
X123587927Y-115004815D01*
X123567284Y-114988180D01*
X123523992Y-114944887D01*
X123523984Y-114944881D01*
X123434722Y-114892092D01*
X123384695Y-114862506D01*
X123384694Y-114862505D01*
X123384693Y-114862505D01*
X123384690Y-114862504D01*
X123229297Y-114817357D01*
X123229291Y-114817356D01*
X123192997Y-114814500D01*
X123192990Y-114814500D01*
X122783610Y-114814500D01*
X122783602Y-114814500D01*
X122747308Y-114817356D01*
X122747305Y-114817357D01*
X122734077Y-114821200D01*
X122721968Y-114821164D01*
X122710708Y-114825613D01*
X122687683Y-114821065D01*
X122664208Y-114820998D01*
X122654040Y-114814421D01*
X122642162Y-114812076D01*
X122625249Y-114795800D01*
X122605539Y-114783053D01*
X122600540Y-114772023D01*
X122591817Y-114763629D01*
X122586387Y-114740793D01*
X122576699Y-114719414D01*
X122578055Y-114705746D01*
X122575656Y-114695654D01*
X122581716Y-114668858D01*
X122582494Y-114661028D01*
X122583619Y-114657823D01*
X122643397Y-114513507D01*
X122655261Y-114453859D01*
X122658169Y-114445582D01*
X122673644Y-114424059D01*
X122685928Y-114400576D01*
X122694091Y-114395622D01*
X122698958Y-114388855D01*
X122716979Y-114381736D01*
X122728882Y-114374514D01*
X122727869Y-114372068D01*
X122879172Y-114309397D01*
X122879172Y-114309396D01*
X122879179Y-114309394D01*
X123010289Y-114221789D01*
X123121789Y-114110289D01*
X123209394Y-113979179D01*
X123269737Y-113833497D01*
X123300500Y-113678842D01*
X123300500Y-113521158D01*
X123300500Y-113521155D01*
X123300499Y-113521153D01*
X123283298Y-113434679D01*
X123269737Y-113366503D01*
X123249689Y-113318102D01*
X123209397Y-113220827D01*
X123209390Y-113220814D01*
X123121789Y-113089711D01*
X123121786Y-113089707D01*
X123010292Y-112978213D01*
X123010288Y-112978210D01*
X122879185Y-112890609D01*
X122879172Y-112890602D01*
X122733499Y-112830263D01*
X122733493Y-112830261D01*
X122702980Y-112824192D01*
X122686223Y-112815426D01*
X122667746Y-112811407D01*
X122642705Y-112792661D01*
X122641070Y-112791806D01*
X122639492Y-112790256D01*
X122513572Y-112664336D01*
X122480087Y-112603013D01*
X122485071Y-112533321D01*
X122513572Y-112488974D01*
X122608830Y-112393716D01*
X122608830Y-112393714D01*
X122619034Y-112383511D01*
X122619037Y-112383506D01*
X124821786Y-110180759D01*
X124883106Y-110147276D01*
X124952798Y-110152260D01*
X124997146Y-110180762D01*
X125034219Y-110217835D01*
X125034219Y-110217836D01*
X125171903Y-110301070D01*
X125325507Y-110348934D01*
X125392257Y-110355000D01*
X125845800Y-110355000D01*
X125845800Y-109654000D01*
X125865485Y-109586961D01*
X125918289Y-109541206D01*
X125969800Y-109530000D01*
X126221800Y-109530000D01*
X126288839Y-109549685D01*
G37*
%TD.AperFunction*%
%TA.AperFunction,Conductor*%
G36*
X110108870Y-108473951D02*
G01*
X110153216Y-108502451D01*
X110395979Y-108745215D01*
X110631282Y-108980518D01*
X110631284Y-108980520D01*
X110718095Y-109030639D01*
X110718097Y-109030641D01*
X110740259Y-109043436D01*
X110768215Y-109059577D01*
X110920943Y-109100501D01*
X110920946Y-109100501D01*
X111079056Y-109100501D01*
X111079057Y-109100501D01*
X111079058Y-109100501D01*
X111231785Y-109059577D01*
X111368716Y-108980520D01*
X111480520Y-108868716D01*
X111480520Y-108868714D01*
X111490721Y-108858514D01*
X111490727Y-108858507D01*
X111687417Y-108661816D01*
X111748740Y-108628334D01*
X111775097Y-108625500D01*
X112250500Y-108625500D01*
X112317539Y-108645185D01*
X112363294Y-108697989D01*
X112374500Y-108749500D01*
X112374500Y-110724902D01*
X112354815Y-110791941D01*
X112338181Y-110812583D01*
X111928781Y-111221982D01*
X111928779Y-111221984D01*
X111917759Y-111241073D01*
X111901906Y-111268532D01*
X111849723Y-111358915D01*
X111808799Y-111511643D01*
X111808799Y-111511645D01*
X111808799Y-111679746D01*
X111808800Y-111679759D01*
X111808800Y-111801500D01*
X111789115Y-111868539D01*
X111736311Y-111914294D01*
X111684800Y-111925500D01*
X111394942Y-111925500D01*
X111242212Y-111966423D01*
X111216601Y-111981211D01*
X111216590Y-111981217D01*
X111215100Y-111982078D01*
X111105284Y-112045480D01*
X111094290Y-112056473D01*
X111081887Y-112064106D01*
X111061656Y-112069618D01*
X111043252Y-112079666D01*
X111028624Y-112078618D01*
X111014475Y-112082474D01*
X110994474Y-112076173D01*
X110973560Y-112074676D01*
X110948012Y-112061600D01*
X110879185Y-112015611D01*
X110879172Y-112015604D01*
X110733499Y-111955265D01*
X110733493Y-111955263D01*
X110670124Y-111942658D01*
X110670124Y-111942657D01*
X110669382Y-111942511D01*
X110666145Y-111941867D01*
X110605057Y-111925499D01*
X110583854Y-111925499D01*
X110578842Y-111924502D01*
X110421158Y-111924502D01*
X110421155Y-111924502D01*
X110266510Y-111955263D01*
X110266498Y-111955266D01*
X110120827Y-112015604D01*
X110120814Y-112015611D01*
X109989711Y-112103212D01*
X109989706Y-112103216D01*
X109949296Y-112143626D01*
X109887973Y-112177111D01*
X109818281Y-112172125D01*
X109773935Y-112143625D01*
X109675791Y-112045481D01*
X109675786Y-112045477D01*
X109565974Y-111982078D01*
X109565972Y-111982077D01*
X109538861Y-111966424D01*
X109538860Y-111966423D01*
X109538859Y-111966423D01*
X109386131Y-111925499D01*
X109228017Y-111925499D01*
X109220421Y-111925499D01*
X109220405Y-111925500D01*
X108826097Y-111925500D01*
X108759058Y-111905815D01*
X108738416Y-111889181D01*
X108112590Y-111263355D01*
X108105521Y-111256286D01*
X108105520Y-111256284D01*
X108042894Y-111193658D01*
X108011195Y-111135603D01*
X108009412Y-111132338D01*
X108007463Y-111120765D01*
X108002601Y-111080276D01*
X107998177Y-111043436D01*
X107998176Y-111043434D01*
X107997738Y-111039785D01*
X107997738Y-111010215D01*
X107998176Y-111006565D01*
X107998177Y-111006564D01*
X108008800Y-110918102D01*
X108008800Y-110731898D01*
X107998177Y-110643436D01*
X107998176Y-110643434D01*
X107997738Y-110639785D01*
X107997738Y-110610215D01*
X107998176Y-110606565D01*
X107998177Y-110606564D01*
X108008800Y-110518102D01*
X108008800Y-110331898D01*
X107998177Y-110243436D01*
X107998176Y-110243434D01*
X107997738Y-110239785D01*
X107997738Y-110210215D01*
X107998176Y-110206565D01*
X107998177Y-110206564D01*
X108008800Y-110118102D01*
X108008800Y-109931898D01*
X107998177Y-109843436D01*
X107998176Y-109843434D01*
X107997738Y-109839785D01*
X107997738Y-109810215D01*
X107998176Y-109806565D01*
X107998177Y-109806564D01*
X108008800Y-109718102D01*
X108008800Y-109531898D01*
X107998177Y-109443436D01*
X107998176Y-109443434D01*
X107997738Y-109439785D01*
X107997738Y-109410215D01*
X107998176Y-109406565D01*
X107998177Y-109406564D01*
X108008800Y-109318102D01*
X108008800Y-109131898D01*
X107998177Y-109043436D01*
X107998176Y-109043434D01*
X107997738Y-109039785D01*
X107997738Y-109010215D01*
X107998176Y-109006565D01*
X107998177Y-109006564D01*
X108008800Y-108918102D01*
X108008800Y-108731898D01*
X108000529Y-108663024D01*
X108012079Y-108594118D01*
X108059051Y-108542393D01*
X108126530Y-108524275D01*
X108193093Y-108545514D01*
X108211323Y-108560558D01*
X108631284Y-108980520D01*
X108631286Y-108980521D01*
X108631290Y-108980524D01*
X108768209Y-109059573D01*
X108768212Y-109059575D01*
X108768216Y-109059577D01*
X108920943Y-109100501D01*
X108920945Y-109100501D01*
X109210128Y-109100501D01*
X109210131Y-109100501D01*
X109362859Y-109059577D01*
X109412978Y-109030639D01*
X109499790Y-108980520D01*
X109611594Y-108868716D01*
X109611594Y-108868714D01*
X109621802Y-108858507D01*
X109621803Y-108858504D01*
X109977858Y-108502449D01*
X110039178Y-108468967D01*
X110108870Y-108473951D01*
G37*
%TD.AperFunction*%
%TA.AperFunction,Conductor*%
G36*
X105892928Y-34725885D02*
G01*
X105938683Y-34778689D01*
X105948627Y-34847847D01*
X105919602Y-34911403D01*
X105873342Y-34944761D01*
X105708308Y-35013119D01*
X105708299Y-35013124D01*
X105552710Y-35117086D01*
X105552706Y-35117089D01*
X105420389Y-35249406D01*
X105420386Y-35249410D01*
X105316424Y-35404999D01*
X105316419Y-35405008D01*
X105244808Y-35577894D01*
X105244806Y-35577902D01*
X105208300Y-35761428D01*
X105208300Y-36355000D01*
X105858300Y-36355000D01*
X105858300Y-36855000D01*
X105208300Y-36855000D01*
X105208300Y-37448571D01*
X105242441Y-37620209D01*
X105236214Y-37689800D01*
X105193351Y-37744978D01*
X105127461Y-37768222D01*
X105120824Y-37768400D01*
X102658470Y-37768400D01*
X102658454Y-37768399D01*
X102650858Y-37768399D01*
X102492743Y-37768399D01*
X102416379Y-37788861D01*
X102340014Y-37809323D01*
X102340009Y-37809326D01*
X102203090Y-37888375D01*
X102203082Y-37888381D01*
X102193083Y-37898381D01*
X102131760Y-37931866D01*
X102105402Y-37934700D01*
X97785437Y-37934700D01*
X97718398Y-37915015D01*
X97672643Y-37862211D01*
X97662699Y-37793053D01*
X97691724Y-37729497D01*
X97737985Y-37696139D01*
X97776472Y-37680197D01*
X97776472Y-37680196D01*
X97776479Y-37680194D01*
X97907589Y-37592589D01*
X98019089Y-37481089D01*
X98106694Y-37349979D01*
X98167037Y-37204297D01*
X98187764Y-37100098D01*
X98197938Y-37048950D01*
X98230323Y-36987039D01*
X98231818Y-36985516D01*
X100474816Y-34742519D01*
X100536139Y-34709034D01*
X100562497Y-34706200D01*
X105825889Y-34706200D01*
X105892928Y-34725885D01*
G37*
%TD.AperFunction*%
%TA.AperFunction,Conductor*%
G36*
X114486700Y-34709374D02*
G01*
X114497906Y-34708170D01*
X114519627Y-34719043D01*
X114542928Y-34725885D01*
X114550306Y-34734399D01*
X114560385Y-34739445D01*
X114572780Y-34760336D01*
X114588683Y-34778689D01*
X114590286Y-34789842D01*
X114596037Y-34799534D01*
X114595170Y-34823805D01*
X114598627Y-34847847D01*
X114593945Y-34858098D01*
X114593543Y-34869359D01*
X114579692Y-34889307D01*
X114569602Y-34911403D01*
X114559087Y-34918984D01*
X114553695Y-34926752D01*
X114523342Y-34944761D01*
X114358307Y-35013120D01*
X114282800Y-35063571D01*
X114277263Y-35119786D01*
X114251101Y-35184573D01*
X114241541Y-35195311D01*
X113811853Y-35624999D01*
X113811853Y-35625000D01*
X114240360Y-36053507D01*
X114273845Y-36114830D01*
X114268861Y-36184522D01*
X114240360Y-36228869D01*
X114169229Y-36300000D01*
X114240360Y-36371131D01*
X114273845Y-36432454D01*
X114268861Y-36502146D01*
X114240360Y-36546493D01*
X113722757Y-37064095D01*
X113714811Y-37068433D01*
X113709386Y-37075681D01*
X113684626Y-37084915D01*
X113661434Y-37097580D01*
X113652404Y-37096934D01*
X113643922Y-37100098D01*
X113621025Y-37095117D01*
X113627852Y-37088291D01*
X113658300Y-37014782D01*
X113658300Y-36935218D01*
X113627852Y-36861709D01*
X113571591Y-36805448D01*
X113498082Y-36775000D01*
X113435680Y-36775000D01*
X113426887Y-36730794D01*
X113433114Y-36661204D01*
X113460823Y-36618923D01*
X113779746Y-36300000D01*
X113779746Y-36299999D01*
X113460823Y-35981076D01*
X113427338Y-35919753D01*
X113426887Y-35869204D01*
X113435680Y-35825000D01*
X113498082Y-35825000D01*
X113571591Y-35794552D01*
X113627852Y-35738291D01*
X113658300Y-35664782D01*
X113658300Y-35585218D01*
X113627852Y-35511709D01*
X113571591Y-35455448D01*
X113498082Y-35425000D01*
X113435680Y-35425000D01*
X113426887Y-35380793D01*
X113433114Y-35311202D01*
X113460823Y-35268921D01*
X113858861Y-34870884D01*
X113855581Y-34854391D01*
X113861808Y-34784799D01*
X113904671Y-34729622D01*
X113970561Y-34706378D01*
X113977198Y-34706200D01*
X114475889Y-34706200D01*
X114486700Y-34709374D01*
G37*
%TD.AperFunction*%
%TA.AperFunction,Conductor*%
G36*
X107056440Y-34725885D02*
G01*
X107102195Y-34778689D01*
X107112139Y-34847847D01*
X107111018Y-34854391D01*
X107107737Y-34870884D01*
X107505776Y-35268922D01*
X107539261Y-35330245D01*
X107539712Y-35380794D01*
X107530919Y-35425000D01*
X107468518Y-35425000D01*
X107395009Y-35455448D01*
X107338748Y-35511709D01*
X107308300Y-35585218D01*
X107308300Y-35664782D01*
X107338748Y-35738291D01*
X107395009Y-35794552D01*
X107468518Y-35825000D01*
X107530919Y-35825000D01*
X107539712Y-35869204D01*
X107533485Y-35938796D01*
X107505776Y-35981076D01*
X107186853Y-36299999D01*
X107186853Y-36300000D01*
X107505776Y-36618922D01*
X107508375Y-36623683D01*
X107512901Y-36626679D01*
X107524943Y-36654025D01*
X107539261Y-36680245D01*
X107539455Y-36686977D01*
X107541061Y-36690623D01*
X107540255Y-36714616D01*
X107540582Y-36725913D01*
X107540192Y-36728382D01*
X107530920Y-36775000D01*
X107468518Y-36775000D01*
X107395009Y-36805448D01*
X107338748Y-36861709D01*
X107308300Y-36935218D01*
X107308300Y-37014782D01*
X107338748Y-37088291D01*
X107347278Y-37096821D01*
X107288188Y-37092595D01*
X107243842Y-37064095D01*
X106726239Y-36546493D01*
X106692754Y-36485170D01*
X106697738Y-36415479D01*
X106726239Y-36371131D01*
X106797370Y-36300000D01*
X106726238Y-36228868D01*
X106692754Y-36167545D01*
X106697738Y-36097853D01*
X106726239Y-36053506D01*
X107154746Y-35624999D01*
X106725057Y-35195310D01*
X106691572Y-35133987D01*
X106689335Y-35119784D01*
X106683797Y-35063570D01*
X106608300Y-35013124D01*
X106608291Y-35013119D01*
X106443258Y-34944761D01*
X106388855Y-34900920D01*
X106366790Y-34834626D01*
X106384069Y-34766927D01*
X106435206Y-34719316D01*
X106490711Y-34706200D01*
X106989401Y-34706200D01*
X107056440Y-34725885D01*
G37*
%TD.AperFunction*%
%TA.AperFunction,Conductor*%
G36*
X147950839Y-33145185D02*
G01*
X147996594Y-33197989D01*
X148007800Y-33249500D01*
X148007800Y-125000500D01*
X147988115Y-125067539D01*
X147935311Y-125113294D01*
X147883800Y-125124500D01*
X73132800Y-125124500D01*
X73065761Y-125104815D01*
X73020006Y-125052011D01*
X73008800Y-125000500D01*
X73008800Y-79853543D01*
X82887799Y-79853543D01*
X82926247Y-80046829D01*
X82926250Y-80046839D01*
X83001664Y-80228907D01*
X83001671Y-80228920D01*
X83111160Y-80392781D01*
X83111163Y-80392785D01*
X83250514Y-80532136D01*
X83250518Y-80532139D01*
X83414379Y-80641628D01*
X83414392Y-80641635D01*
X83575072Y-80708190D01*
X83596465Y-80717051D01*
X83596469Y-80717051D01*
X83596470Y-80717052D01*
X83662944Y-80730275D01*
X83724854Y-80762660D01*
X83759429Y-80823376D01*
X83755689Y-80893145D01*
X83726433Y-80939573D01*
X83276781Y-81389224D01*
X83276779Y-81389227D01*
X83226661Y-81476036D01*
X83226659Y-81476038D01*
X83197725Y-81526151D01*
X83197724Y-81526152D01*
X83181844Y-81585414D01*
X83156799Y-81678885D01*
X83156799Y-81678887D01*
X83156799Y-81846988D01*
X83156800Y-81847001D01*
X83156800Y-96758644D01*
X83156799Y-96758662D01*
X83156799Y-96924368D01*
X83156798Y-96924368D01*
X83159252Y-96933525D01*
X83197723Y-97077099D01*
X83225023Y-97124384D01*
X83276777Y-97214026D01*
X83276781Y-97214031D01*
X83395649Y-97332899D01*
X83395655Y-97332904D01*
X83690354Y-97627603D01*
X83723839Y-97688926D01*
X83718855Y-97758618D01*
X83676983Y-97814551D01*
X83626867Y-97836901D01*
X83596467Y-97842948D01*
X83596460Y-97842950D01*
X83414392Y-97918364D01*
X83414379Y-97918371D01*
X83250518Y-98027860D01*
X83250514Y-98027863D01*
X83111163Y-98167214D01*
X83111160Y-98167218D01*
X83001671Y-98331079D01*
X83001664Y-98331092D01*
X82926250Y-98513160D01*
X82926247Y-98513170D01*
X82887800Y-98706456D01*
X82887800Y-98706457D01*
X82887800Y-98706459D01*
X82887800Y-98903541D01*
X82887800Y-98903543D01*
X82887799Y-98903543D01*
X82926247Y-99096829D01*
X82926250Y-99096839D01*
X83001664Y-99278907D01*
X83001671Y-99278920D01*
X83111160Y-99442781D01*
X83111163Y-99442785D01*
X83250514Y-99582136D01*
X83250518Y-99582139D01*
X83414379Y-99691628D01*
X83414392Y-99691635D01*
X83575072Y-99758190D01*
X83596465Y-99767051D01*
X83596469Y-99767051D01*
X83596470Y-99767052D01*
X83789756Y-99805500D01*
X83789759Y-99805500D01*
X83986843Y-99805500D01*
X84116882Y-99779632D01*
X84180135Y-99767051D01*
X84362214Y-99691632D01*
X84526082Y-99582139D01*
X84665439Y-99442782D01*
X84774932Y-99278914D01*
X84850351Y-99096835D01*
X84880364Y-98945951D01*
X84888800Y-98903543D01*
X84888800Y-98706457D01*
X84884369Y-98684183D01*
X84884369Y-98684181D01*
X84880363Y-98664041D01*
X86817800Y-98664041D01*
X86817800Y-98945958D01*
X86854595Y-99225439D01*
X86927559Y-99497743D01*
X87035435Y-99758179D01*
X87035440Y-99758190D01*
X87176383Y-100002309D01*
X87176388Y-100002317D01*
X87245999Y-100093035D01*
X87348004Y-100225970D01*
X87547329Y-100425295D01*
X87547333Y-100425298D01*
X87547335Y-100425300D01*
X87770983Y-100596912D01*
X87770990Y-100596916D01*
X88015109Y-100737859D01*
X88015114Y-100737861D01*
X88015117Y-100737863D01*
X88275561Y-100845742D01*
X88547858Y-100918704D01*
X88827349Y-100955500D01*
X88827356Y-100955500D01*
X89109244Y-100955500D01*
X89109251Y-100955500D01*
X89388742Y-100918704D01*
X89661039Y-100845742D01*
X89921483Y-100737863D01*
X90165617Y-100596912D01*
X90389265Y-100425300D01*
X90588600Y-100225965D01*
X90760212Y-100002317D01*
X90901163Y-99758183D01*
X91009042Y-99497739D01*
X91082004Y-99225442D01*
X91118800Y-98945951D01*
X91118800Y-98903543D01*
X93047799Y-98903543D01*
X93086247Y-99096829D01*
X93086250Y-99096839D01*
X93161664Y-99278907D01*
X93161671Y-99278920D01*
X93271160Y-99442781D01*
X93271163Y-99442785D01*
X93410514Y-99582136D01*
X93410518Y-99582139D01*
X93574379Y-99691628D01*
X93574392Y-99691635D01*
X93735072Y-99758190D01*
X93756465Y-99767051D01*
X93756469Y-99767051D01*
X93756470Y-99767052D01*
X93949756Y-99805500D01*
X93949759Y-99805500D01*
X94146843Y-99805500D01*
X94276882Y-99779632D01*
X94340135Y-99767051D01*
X94522214Y-99691632D01*
X94686082Y-99582139D01*
X94825439Y-99442782D01*
X94934932Y-99278914D01*
X95010351Y-99096835D01*
X95040364Y-98945951D01*
X95048800Y-98903543D01*
X95048800Y-98706456D01*
X95010352Y-98513170D01*
X95010351Y-98513169D01*
X95010351Y-98513165D01*
X95010349Y-98513160D01*
X94934935Y-98331092D01*
X94934928Y-98331079D01*
X94825439Y-98167218D01*
X94825436Y-98167214D01*
X94686085Y-98027863D01*
X94686081Y-98027860D01*
X94522220Y-97918371D01*
X94522207Y-97918364D01*
X94340139Y-97842950D01*
X94340129Y-97842947D01*
X94146843Y-97804500D01*
X94146841Y-97804500D01*
X93949759Y-97804500D01*
X93949757Y-97804500D01*
X93756470Y-97842947D01*
X93756460Y-97842950D01*
X93574392Y-97918364D01*
X93574379Y-97918371D01*
X93410518Y-98027860D01*
X93410514Y-98027863D01*
X93271163Y-98167214D01*
X93271160Y-98167218D01*
X93161671Y-98331079D01*
X93161664Y-98331092D01*
X93086250Y-98513160D01*
X93086247Y-98513170D01*
X93047800Y-98706456D01*
X93047800Y-98706457D01*
X93047800Y-98706459D01*
X93047800Y-98903541D01*
X93047800Y-98903543D01*
X93047799Y-98903543D01*
X91118800Y-98903543D01*
X91118800Y-98664049D01*
X91082004Y-98384558D01*
X91009042Y-98112261D01*
X90901163Y-97851817D01*
X90901161Y-97851814D01*
X90901159Y-97851809D01*
X90760216Y-97607690D01*
X90760212Y-97607683D01*
X90588600Y-97384035D01*
X90588598Y-97384033D01*
X90588595Y-97384029D01*
X90389270Y-97184704D01*
X90389265Y-97184700D01*
X90165617Y-97013088D01*
X90165611Y-97013084D01*
X90165609Y-97013083D01*
X89921490Y-96872140D01*
X89921479Y-96872135D01*
X89661043Y-96764259D01*
X89388739Y-96691295D01*
X89109258Y-96654500D01*
X89109251Y-96654500D01*
X88827349Y-96654500D01*
X88827341Y-96654500D01*
X88547860Y-96691295D01*
X88275556Y-96764259D01*
X88015120Y-96872135D01*
X88015109Y-96872140D01*
X87770990Y-97013083D01*
X87770984Y-97013087D01*
X87770983Y-97013088D01*
X87708785Y-97060814D01*
X87547329Y-97184704D01*
X87348004Y-97384029D01*
X87176389Y-97607682D01*
X87176383Y-97607690D01*
X87035440Y-97851809D01*
X87035435Y-97851820D01*
X86927559Y-98112256D01*
X86854595Y-98384560D01*
X86817800Y-98664041D01*
X84880363Y-98664041D01*
X84850352Y-98513172D01*
X84850352Y-98513170D01*
X84850351Y-98513165D01*
X84819196Y-98437951D01*
X84811728Y-98368483D01*
X84843003Y-98306004D01*
X84903092Y-98270352D01*
X84933758Y-98266500D01*
X85651945Y-98266500D01*
X85651961Y-98266501D01*
X85659557Y-98266501D01*
X85817668Y-98266501D01*
X85817671Y-98266501D01*
X85970399Y-98225577D01*
X86020518Y-98196639D01*
X86107330Y-98146520D01*
X86219134Y-98034716D01*
X86219134Y-98034714D01*
X86229342Y-98024507D01*
X86229343Y-98024504D01*
X87932344Y-96321505D01*
X87993667Y-96288020D01*
X88020025Y-96285186D01*
X101413331Y-96285186D01*
X101413347Y-96285187D01*
X101420943Y-96285187D01*
X101579054Y-96285187D01*
X101579057Y-96285187D01*
X101731785Y-96244263D01*
X101781904Y-96215325D01*
X101868716Y-96165206D01*
X101980520Y-96053402D01*
X101980520Y-96053400D01*
X101990728Y-96043193D01*
X101990729Y-96043190D01*
X102527639Y-95506281D01*
X102588959Y-95472798D01*
X102658651Y-95477782D01*
X102714584Y-95519654D01*
X102739001Y-95585118D01*
X102726667Y-95646017D01*
X102727384Y-95646314D01*
X102725863Y-95649984D01*
X102725812Y-95650239D01*
X102725523Y-95650806D01*
X102725520Y-95650812D01*
X102647697Y-95890330D01*
X102608300Y-96139071D01*
X102608300Y-96390928D01*
X102647697Y-96639669D01*
X102725519Y-96879184D01*
X102839857Y-97103583D01*
X102914048Y-97205697D01*
X102914048Y-97205698D01*
X103530721Y-96589024D01*
X103543659Y-96620258D01*
X103625737Y-96743097D01*
X103730203Y-96847563D01*
X103853042Y-96929641D01*
X103884274Y-96942577D01*
X103267600Y-97559250D01*
X103369719Y-97633444D01*
X103372442Y-97635113D01*
X103373260Y-97636017D01*
X103373659Y-97636307D01*
X103373598Y-97636390D01*
X103419319Y-97686923D01*
X103430743Y-97755852D01*
X103403088Y-97820016D01*
X103345134Y-97859042D01*
X103275280Y-97860541D01*
X103260203Y-97855403D01*
X103230139Y-97842950D01*
X103230129Y-97842947D01*
X103036843Y-97804500D01*
X103036841Y-97804500D01*
X102839759Y-97804500D01*
X102839757Y-97804500D01*
X102646470Y-97842947D01*
X102646460Y-97842950D01*
X102464392Y-97918364D01*
X102464379Y-97918371D01*
X102300518Y-98027860D01*
X102300514Y-98027863D01*
X102161163Y-98167214D01*
X102161160Y-98167218D01*
X102051671Y-98331079D01*
X102051664Y-98331092D01*
X101976250Y-98513160D01*
X101976247Y-98513170D01*
X101937800Y-98706456D01*
X101937800Y-98706457D01*
X101937800Y-98706459D01*
X101937800Y-98903541D01*
X101937800Y-98903543D01*
X101937799Y-98903543D01*
X101976247Y-99096829D01*
X101976250Y-99096839D01*
X102051664Y-99278907D01*
X102051671Y-99278920D01*
X102161160Y-99442781D01*
X102161163Y-99442785D01*
X102300514Y-99582136D01*
X102300518Y-99582139D01*
X102464379Y-99691628D01*
X102464392Y-99691635D01*
X102625072Y-99758190D01*
X102646465Y-99767051D01*
X102646469Y-99767051D01*
X102646470Y-99767052D01*
X102839756Y-99805500D01*
X102839759Y-99805500D01*
X103036843Y-99805500D01*
X103166882Y-99779632D01*
X103230135Y-99767051D01*
X103412214Y-99691632D01*
X103576082Y-99582139D01*
X103715439Y-99442782D01*
X103824932Y-99278914D01*
X103900351Y-99096835D01*
X103930364Y-98945951D01*
X103938800Y-98903543D01*
X103938800Y-98706457D01*
X103934369Y-98684183D01*
X103934369Y-98684181D01*
X103930363Y-98664041D01*
X105867800Y-98664041D01*
X105867800Y-98945958D01*
X105904595Y-99225439D01*
X105977559Y-99497743D01*
X106085435Y-99758179D01*
X106085440Y-99758190D01*
X106226383Y-100002309D01*
X106226388Y-100002317D01*
X106295999Y-100093035D01*
X106398004Y-100225970D01*
X106597329Y-100425295D01*
X106597333Y-100425298D01*
X106597335Y-100425300D01*
X106820983Y-100596912D01*
X106820990Y-100596916D01*
X107065109Y-100737859D01*
X107065114Y-100737861D01*
X107065117Y-100737863D01*
X107325561Y-100845742D01*
X107597858Y-100918704D01*
X107877349Y-100955500D01*
X107877356Y-100955500D01*
X108159244Y-100955500D01*
X108159251Y-100955500D01*
X108438742Y-100918704D01*
X108711039Y-100845742D01*
X108971483Y-100737863D01*
X109215617Y-100596912D01*
X109439265Y-100425300D01*
X109638600Y-100225965D01*
X109810212Y-100002317D01*
X109951163Y-99758183D01*
X110059042Y-99497739D01*
X110132004Y-99225442D01*
X110168800Y-98945951D01*
X110168800Y-98903543D01*
X112097799Y-98903543D01*
X112136247Y-99096829D01*
X112136250Y-99096839D01*
X112211664Y-99278907D01*
X112211671Y-99278920D01*
X112321160Y-99442781D01*
X112321163Y-99442785D01*
X112460514Y-99582136D01*
X112460518Y-99582139D01*
X112624379Y-99691628D01*
X112624392Y-99691635D01*
X112785072Y-99758190D01*
X112806465Y-99767051D01*
X112806469Y-99767051D01*
X112806470Y-99767052D01*
X112999756Y-99805500D01*
X112999759Y-99805500D01*
X113196843Y-99805500D01*
X113326882Y-99779632D01*
X113390135Y-99767051D01*
X113572214Y-99691632D01*
X113736082Y-99582139D01*
X113875439Y-99442782D01*
X113984932Y-99278914D01*
X114060351Y-99096835D01*
X114090364Y-98945951D01*
X114098800Y-98903543D01*
X120987799Y-98903543D01*
X121026247Y-99096829D01*
X121026250Y-99096839D01*
X121101664Y-99278907D01*
X121101671Y-99278920D01*
X121211160Y-99442781D01*
X121211163Y-99442785D01*
X121350514Y-99582136D01*
X121350518Y-99582139D01*
X121514379Y-99691628D01*
X121514392Y-99691635D01*
X121675072Y-99758190D01*
X121696465Y-99767051D01*
X121696469Y-99767051D01*
X121696470Y-99767052D01*
X121889756Y-99805500D01*
X121889759Y-99805500D01*
X122086843Y-99805500D01*
X122216882Y-99779632D01*
X122280135Y-99767051D01*
X122462214Y-99691632D01*
X122626082Y-99582139D01*
X122765439Y-99442782D01*
X122874932Y-99278914D01*
X122950351Y-99096835D01*
X122980364Y-98945951D01*
X122988800Y-98903543D01*
X122988800Y-98706457D01*
X122984369Y-98684183D01*
X122984369Y-98684181D01*
X122980363Y-98664041D01*
X124917800Y-98664041D01*
X124917800Y-98945958D01*
X124954595Y-99225439D01*
X125027559Y-99497743D01*
X125135435Y-99758179D01*
X125135440Y-99758190D01*
X125276383Y-100002309D01*
X125276388Y-100002317D01*
X125345999Y-100093035D01*
X125448004Y-100225970D01*
X125647329Y-100425295D01*
X125647333Y-100425298D01*
X125647335Y-100425300D01*
X125870983Y-100596912D01*
X125870990Y-100596916D01*
X126115109Y-100737859D01*
X126115114Y-100737861D01*
X126115117Y-100737863D01*
X126375561Y-100845742D01*
X126647858Y-100918704D01*
X126927349Y-100955500D01*
X126927356Y-100955500D01*
X127209244Y-100955500D01*
X127209251Y-100955500D01*
X127488742Y-100918704D01*
X127761039Y-100845742D01*
X128021483Y-100737863D01*
X128265617Y-100596912D01*
X128489265Y-100425300D01*
X128688600Y-100225965D01*
X128860212Y-100002317D01*
X129001163Y-99758183D01*
X129109042Y-99497739D01*
X129182004Y-99225442D01*
X129218800Y-98945951D01*
X129218800Y-98903543D01*
X131147799Y-98903543D01*
X131186247Y-99096829D01*
X131186250Y-99096839D01*
X131261664Y-99278907D01*
X131261671Y-99278920D01*
X131371160Y-99442781D01*
X131371163Y-99442785D01*
X131510514Y-99582136D01*
X131510518Y-99582139D01*
X131674379Y-99691628D01*
X131674392Y-99691635D01*
X131835072Y-99758190D01*
X131856465Y-99767051D01*
X131856469Y-99767051D01*
X131856470Y-99767052D01*
X132049756Y-99805500D01*
X132049759Y-99805500D01*
X132246843Y-99805500D01*
X132376882Y-99779632D01*
X132440135Y-99767051D01*
X132622214Y-99691632D01*
X132786082Y-99582139D01*
X132925439Y-99442782D01*
X133034932Y-99278914D01*
X133110351Y-99096835D01*
X133140364Y-98945951D01*
X133148800Y-98903543D01*
X133148800Y-98706456D01*
X133110352Y-98513170D01*
X133110351Y-98513169D01*
X133110351Y-98513165D01*
X133110349Y-98513160D01*
X133034935Y-98331092D01*
X133034928Y-98331079D01*
X132925439Y-98167218D01*
X132925436Y-98167214D01*
X132786085Y-98027863D01*
X132786081Y-98027860D01*
X132622220Y-97918371D01*
X132622207Y-97918364D01*
X132440139Y-97842950D01*
X132440129Y-97842947D01*
X132246843Y-97804500D01*
X132246841Y-97804500D01*
X132049759Y-97804500D01*
X132049757Y-97804500D01*
X131856470Y-97842947D01*
X131856460Y-97842950D01*
X131674392Y-97918364D01*
X131674379Y-97918371D01*
X131510518Y-98027860D01*
X131510514Y-98027863D01*
X131371163Y-98167214D01*
X131371160Y-98167218D01*
X131261671Y-98331079D01*
X131261664Y-98331092D01*
X131186250Y-98513160D01*
X131186247Y-98513170D01*
X131147800Y-98706456D01*
X131147800Y-98706457D01*
X131147800Y-98706459D01*
X131147800Y-98903541D01*
X131147800Y-98903543D01*
X131147799Y-98903543D01*
X129218800Y-98903543D01*
X129218800Y-98664049D01*
X129182004Y-98384558D01*
X129109042Y-98112261D01*
X129001163Y-97851817D01*
X129001161Y-97851814D01*
X129001159Y-97851809D01*
X128860216Y-97607690D01*
X128860212Y-97607683D01*
X128688600Y-97384035D01*
X128688598Y-97384033D01*
X128688595Y-97384029D01*
X128489270Y-97184704D01*
X128489265Y-97184700D01*
X128265617Y-97013088D01*
X128265611Y-97013084D01*
X128265609Y-97013083D01*
X128021490Y-96872140D01*
X128021479Y-96872135D01*
X127761043Y-96764259D01*
X127488739Y-96691295D01*
X127209258Y-96654500D01*
X127209251Y-96654500D01*
X126927349Y-96654500D01*
X126927341Y-96654500D01*
X126647860Y-96691295D01*
X126375556Y-96764259D01*
X126115120Y-96872135D01*
X126115109Y-96872140D01*
X125870990Y-97013083D01*
X125870984Y-97013087D01*
X125870983Y-97013088D01*
X125808785Y-97060814D01*
X125647329Y-97184704D01*
X125448004Y-97384029D01*
X125276389Y-97607682D01*
X125276383Y-97607690D01*
X125135440Y-97851809D01*
X125135435Y-97851820D01*
X125027559Y-98112256D01*
X124954595Y-98384560D01*
X124917800Y-98664041D01*
X122980363Y-98664041D01*
X122950352Y-98513172D01*
X122950352Y-98513170D01*
X122950351Y-98513165D01*
X122950349Y-98513160D01*
X122874935Y-98331092D01*
X122874928Y-98331079D01*
X122765439Y-98167218D01*
X122765436Y-98167214D01*
X122626085Y-98027863D01*
X122626081Y-98027860D01*
X122538474Y-97969322D01*
X122493669Y-97915709D01*
X122484962Y-97846384D01*
X122515117Y-97783357D01*
X122574560Y-97746638D01*
X122644419Y-97747886D01*
X122645683Y-97748289D01*
X122883630Y-97825602D01*
X123132372Y-97865000D01*
X123384228Y-97865000D01*
X123632969Y-97825602D01*
X123872484Y-97747780D01*
X124096875Y-97633446D01*
X124096881Y-97633442D01*
X124198997Y-97559250D01*
X124198998Y-97559250D01*
X123582325Y-96942578D01*
X123613558Y-96929641D01*
X123736397Y-96847563D01*
X123840863Y-96743097D01*
X123922941Y-96620258D01*
X123935877Y-96589025D01*
X124552550Y-97205698D01*
X124552550Y-97205697D01*
X124626742Y-97103581D01*
X124626746Y-97103575D01*
X124741080Y-96879184D01*
X124818902Y-96639669D01*
X124858300Y-96390928D01*
X124858300Y-96139071D01*
X124818902Y-95890330D01*
X124741080Y-95650815D01*
X124626742Y-95426416D01*
X124552550Y-95324301D01*
X124552550Y-95324300D01*
X123935877Y-95940973D01*
X123922941Y-95909742D01*
X123840863Y-95786903D01*
X123736397Y-95682437D01*
X123613558Y-95600359D01*
X123582324Y-95587421D01*
X124198998Y-94970748D01*
X124096883Y-94896557D01*
X123872484Y-94782219D01*
X123632969Y-94704397D01*
X123384228Y-94665000D01*
X123132372Y-94665000D01*
X122883630Y-94704397D01*
X122644115Y-94782219D01*
X122419713Y-94896559D01*
X122317601Y-94970747D01*
X122317600Y-94970748D01*
X122934274Y-95587421D01*
X122903042Y-95600359D01*
X122780203Y-95682437D01*
X122675737Y-95786903D01*
X122593659Y-95909742D01*
X122580721Y-95940974D01*
X121964048Y-95324300D01*
X121964047Y-95324301D01*
X121889859Y-95426413D01*
X121775519Y-95650815D01*
X121697697Y-95890330D01*
X121658300Y-96139071D01*
X121658300Y-96390928D01*
X121697697Y-96639669D01*
X121775519Y-96879184D01*
X121889857Y-97103583D01*
X121964048Y-97205697D01*
X121964048Y-97205698D01*
X122580721Y-96589024D01*
X122593659Y-96620258D01*
X122675737Y-96743097D01*
X122780203Y-96847563D01*
X122903042Y-96929641D01*
X122934274Y-96942577D01*
X122317600Y-97559250D01*
X122419719Y-97633444D01*
X122422442Y-97635113D01*
X122423260Y-97636017D01*
X122423659Y-97636307D01*
X122423598Y-97636390D01*
X122469319Y-97686923D01*
X122480743Y-97755852D01*
X122453088Y-97820016D01*
X122395134Y-97859042D01*
X122325280Y-97860541D01*
X122310203Y-97855403D01*
X122280139Y-97842950D01*
X122280129Y-97842947D01*
X122086843Y-97804500D01*
X122086841Y-97804500D01*
X121889759Y-97804500D01*
X121889757Y-97804500D01*
X121696470Y-97842947D01*
X121696460Y-97842950D01*
X121514392Y-97918364D01*
X121514379Y-97918371D01*
X121350518Y-98027860D01*
X121350514Y-98027863D01*
X121211163Y-98167214D01*
X121211160Y-98167218D01*
X121101671Y-98331079D01*
X121101664Y-98331092D01*
X121026250Y-98513160D01*
X121026247Y-98513170D01*
X120987800Y-98706456D01*
X120987800Y-98706457D01*
X120987800Y-98706459D01*
X120987800Y-98903541D01*
X120987800Y-98903543D01*
X120987799Y-98903543D01*
X114098800Y-98903543D01*
X114098800Y-98706456D01*
X114060352Y-98513170D01*
X114060351Y-98513169D01*
X114060351Y-98513165D01*
X114060349Y-98513160D01*
X113984935Y-98331092D01*
X113984928Y-98331079D01*
X113875439Y-98167218D01*
X113875436Y-98167214D01*
X113736085Y-98027863D01*
X113736081Y-98027860D01*
X113572220Y-97918371D01*
X113572207Y-97918364D01*
X113390139Y-97842950D01*
X113390129Y-97842947D01*
X113196843Y-97804500D01*
X113196841Y-97804500D01*
X112999759Y-97804500D01*
X112999757Y-97804500D01*
X112806470Y-97842947D01*
X112806460Y-97842950D01*
X112624392Y-97918364D01*
X112624379Y-97918371D01*
X112460518Y-98027860D01*
X112460514Y-98027863D01*
X112321163Y-98167214D01*
X112321160Y-98167218D01*
X112211671Y-98331079D01*
X112211664Y-98331092D01*
X112136250Y-98513160D01*
X112136247Y-98513170D01*
X112097800Y-98706456D01*
X112097800Y-98706457D01*
X112097800Y-98706459D01*
X112097800Y-98903541D01*
X112097800Y-98903543D01*
X112097799Y-98903543D01*
X110168800Y-98903543D01*
X110168800Y-98664049D01*
X110132004Y-98384558D01*
X110059042Y-98112261D01*
X109951163Y-97851817D01*
X109951161Y-97851814D01*
X109951159Y-97851809D01*
X109810216Y-97607690D01*
X109810212Y-97607683D01*
X109638600Y-97384035D01*
X109638598Y-97384033D01*
X109638595Y-97384029D01*
X109439270Y-97184704D01*
X109439265Y-97184700D01*
X109215617Y-97013088D01*
X109215611Y-97013084D01*
X109215609Y-97013083D01*
X108971490Y-96872140D01*
X108971479Y-96872135D01*
X108711043Y-96764259D01*
X108438739Y-96691295D01*
X108159258Y-96654500D01*
X108159251Y-96654500D01*
X107877349Y-96654500D01*
X107877341Y-96654500D01*
X107597860Y-96691295D01*
X107325556Y-96764259D01*
X107065120Y-96872135D01*
X107065109Y-96872140D01*
X106820990Y-97013083D01*
X106820984Y-97013087D01*
X106820983Y-97013088D01*
X106758785Y-97060814D01*
X106597329Y-97184704D01*
X106398004Y-97384029D01*
X106226389Y-97607682D01*
X106226383Y-97607690D01*
X106085440Y-97851809D01*
X106085435Y-97851820D01*
X105977559Y-98112256D01*
X105904595Y-98384560D01*
X105867800Y-98664041D01*
X103930363Y-98664041D01*
X103900352Y-98513172D01*
X103900352Y-98513170D01*
X103900351Y-98513165D01*
X103900349Y-98513160D01*
X103824935Y-98331092D01*
X103824928Y-98331079D01*
X103715439Y-98167218D01*
X103715436Y-98167214D01*
X103576085Y-98027863D01*
X103576081Y-98027860D01*
X103488474Y-97969322D01*
X103443669Y-97915709D01*
X103434962Y-97846384D01*
X103465117Y-97783357D01*
X103524560Y-97746638D01*
X103594419Y-97747886D01*
X103595683Y-97748289D01*
X103833630Y-97825602D01*
X104082372Y-97865000D01*
X104334228Y-97865000D01*
X104582969Y-97825602D01*
X104822484Y-97747780D01*
X105046875Y-97633446D01*
X105046881Y-97633442D01*
X105148997Y-97559250D01*
X105148998Y-97559250D01*
X104532325Y-96942578D01*
X104563558Y-96929641D01*
X104686397Y-96847563D01*
X104790863Y-96743097D01*
X104872941Y-96620258D01*
X104885877Y-96589025D01*
X105502550Y-97205698D01*
X105502550Y-97205697D01*
X105576742Y-97103581D01*
X105576746Y-97103575D01*
X105691080Y-96879184D01*
X105768902Y-96639669D01*
X105808300Y-96390928D01*
X105808300Y-96139071D01*
X105768902Y-95890330D01*
X105691080Y-95650815D01*
X105576742Y-95426416D01*
X105502550Y-95324301D01*
X105502550Y-95324300D01*
X104885877Y-95940973D01*
X104872941Y-95909742D01*
X104790863Y-95786903D01*
X104686397Y-95682437D01*
X104563558Y-95600359D01*
X104532324Y-95587421D01*
X105148998Y-94970748D01*
X105046883Y-94896557D01*
X104822484Y-94782219D01*
X104582969Y-94704397D01*
X104334228Y-94665000D01*
X104082372Y-94665000D01*
X103833630Y-94704397D01*
X103594112Y-94782220D01*
X103594106Y-94782223D01*
X103593541Y-94782511D01*
X103593303Y-94782555D01*
X103589614Y-94784084D01*
X103589292Y-94783308D01*
X103524869Y-94795395D01*
X103460134Y-94769107D01*
X103419887Y-94711993D01*
X103416907Y-94642187D01*
X103449583Y-94584338D01*
X103897103Y-94136819D01*
X103958426Y-94103334D01*
X103984784Y-94100500D01*
X105420943Y-94100500D01*
X105913331Y-94100500D01*
X105913347Y-94100501D01*
X105920943Y-94100501D01*
X106079054Y-94100501D01*
X106079057Y-94100501D01*
X106231785Y-94059577D01*
X106281904Y-94030639D01*
X106368716Y-93980520D01*
X106480520Y-93868716D01*
X106480520Y-93868714D01*
X106490728Y-93858507D01*
X106490729Y-93858504D01*
X107154416Y-93194819D01*
X107215739Y-93161334D01*
X107242097Y-93158500D01*
X107739241Y-93158500D01*
X107806280Y-93178185D01*
X107842343Y-93213609D01*
X107878210Y-93267289D01*
X107989707Y-93378786D01*
X107989711Y-93378789D01*
X108120814Y-93466390D01*
X108120827Y-93466397D01*
X108266498Y-93526735D01*
X108266503Y-93526737D01*
X108421153Y-93557499D01*
X108421156Y-93557500D01*
X108421158Y-93557500D01*
X108578844Y-93557500D01*
X108578845Y-93557499D01*
X108733497Y-93526737D01*
X108786350Y-93504844D01*
X108855815Y-93497376D01*
X108918295Y-93528650D01*
X108953948Y-93588739D01*
X108957800Y-93619406D01*
X108957800Y-93850961D01*
X108997210Y-94099785D01*
X109075060Y-94339383D01*
X109189432Y-94563848D01*
X109337501Y-94767649D01*
X109337505Y-94767654D01*
X109515645Y-94945794D01*
X109515650Y-94945798D01*
X109606353Y-95011697D01*
X109719455Y-95093870D01*
X109837559Y-95154047D01*
X109943916Y-95208239D01*
X109943918Y-95208239D01*
X109943921Y-95208241D01*
X110183515Y-95286090D01*
X110432338Y-95325500D01*
X110432339Y-95325500D01*
X110684261Y-95325500D01*
X110684262Y-95325500D01*
X110933085Y-95286090D01*
X111172679Y-95208241D01*
X111397145Y-95093870D01*
X111600956Y-94945793D01*
X111779093Y-94767656D01*
X111927170Y-94563845D01*
X112041541Y-94339379D01*
X112119390Y-94099785D01*
X112158800Y-93850962D01*
X112158800Y-93599038D01*
X112119390Y-93350215D01*
X112041541Y-93110621D01*
X112041539Y-93110618D01*
X112041539Y-93110616D01*
X111973034Y-92976168D01*
X111927170Y-92886155D01*
X111908252Y-92860117D01*
X111779098Y-92682350D01*
X111779094Y-92682345D01*
X111600954Y-92504205D01*
X111600949Y-92504201D01*
X111397148Y-92356132D01*
X111397147Y-92356131D01*
X111397145Y-92356130D01*
X111287174Y-92300097D01*
X111172683Y-92241760D01*
X110933085Y-92163910D01*
X110684262Y-92124500D01*
X110432338Y-92124500D01*
X110307926Y-92144205D01*
X110183514Y-92163910D01*
X109943916Y-92241760D01*
X109719451Y-92356132D01*
X109515650Y-92504201D01*
X109515645Y-92504205D01*
X109467332Y-92552518D01*
X109406009Y-92586002D01*
X109336317Y-92581017D01*
X109280384Y-92539145D01*
X109265095Y-92512298D01*
X109209394Y-92377821D01*
X109209392Y-92377818D01*
X109209390Y-92377814D01*
X109121789Y-92246711D01*
X109121786Y-92246707D01*
X109010292Y-92135213D01*
X109010288Y-92135210D01*
X108879185Y-92047609D01*
X108879172Y-92047602D01*
X108733501Y-91987264D01*
X108733489Y-91987261D01*
X108578845Y-91956500D01*
X108578842Y-91956500D01*
X108421158Y-91956500D01*
X108421154Y-91956500D01*
X108417061Y-91956903D01*
X108404910Y-91957500D01*
X106862943Y-91957500D01*
X106710212Y-91998423D01*
X106680639Y-92015499D01*
X106680637Y-92015500D01*
X106573287Y-92077477D01*
X106573282Y-92077481D01*
X106515554Y-92135210D01*
X106461480Y-92189284D01*
X106461478Y-92189286D01*
X106111620Y-92539145D01*
X105787584Y-92863181D01*
X105726261Y-92896666D01*
X105699903Y-92899500D01*
X103771356Y-92899500D01*
X103771340Y-92899499D01*
X103763744Y-92899499D01*
X103605629Y-92899499D01*
X103529265Y-92919961D01*
X103452900Y-92940423D01*
X103452895Y-92940426D01*
X103315976Y-93019475D01*
X103315968Y-93019481D01*
X101287584Y-95047867D01*
X101226261Y-95081352D01*
X101199903Y-95084186D01*
X92711925Y-95084186D01*
X92644886Y-95064501D01*
X92599131Y-95011697D01*
X92589187Y-94942539D01*
X92618212Y-94878983D01*
X92624244Y-94872505D01*
X92729093Y-94767656D01*
X92877170Y-94563845D01*
X92991541Y-94339379D01*
X93069390Y-94099785D01*
X93108800Y-93850962D01*
X93108800Y-93599038D01*
X93069390Y-93350215D01*
X92991541Y-93110621D01*
X92991539Y-93110618D01*
X92991539Y-93110616D01*
X92923034Y-92976168D01*
X92877170Y-92886155D01*
X92858252Y-92860117D01*
X92729098Y-92682350D01*
X92729094Y-92682345D01*
X92550954Y-92504205D01*
X92550949Y-92504201D01*
X92347148Y-92356132D01*
X92347147Y-92356131D01*
X92347145Y-92356130D01*
X92237174Y-92300097D01*
X92122683Y-92241760D01*
X91883085Y-92163910D01*
X91634262Y-92124500D01*
X91382338Y-92124500D01*
X91257926Y-92144205D01*
X91133514Y-92163910D01*
X90893916Y-92241760D01*
X90669451Y-92356132D01*
X90465650Y-92504201D01*
X90465645Y-92504205D01*
X90287505Y-92682345D01*
X90287501Y-92682350D01*
X90139432Y-92886151D01*
X90025060Y-93110616D01*
X89947210Y-93350214D01*
X89907800Y-93599038D01*
X89907800Y-93850961D01*
X89947210Y-94099785D01*
X90025060Y-94339383D01*
X90139432Y-94563848D01*
X90287501Y-94767649D01*
X90287505Y-94767654D01*
X90392356Y-94872505D01*
X90425841Y-94933828D01*
X90420857Y-95003520D01*
X90378985Y-95059453D01*
X90313521Y-95083870D01*
X90304675Y-95084186D01*
X87798985Y-95084186D01*
X87640871Y-95084186D01*
X87488143Y-95125109D01*
X87488142Y-95125109D01*
X87488140Y-95125110D01*
X87488137Y-95125111D01*
X87438024Y-95154045D01*
X87438023Y-95154046D01*
X87394617Y-95179106D01*
X87351213Y-95204165D01*
X87351210Y-95204167D01*
X87239406Y-95315972D01*
X86848778Y-95706598D01*
X86787455Y-95740083D01*
X86717763Y-95735099D01*
X86661830Y-95693227D01*
X86643165Y-95657232D01*
X86641080Y-95650815D01*
X86526742Y-95426416D01*
X86452550Y-95324301D01*
X86452550Y-95324300D01*
X85835877Y-95940973D01*
X85822941Y-95909742D01*
X85740863Y-95786903D01*
X85636397Y-95682437D01*
X85513558Y-95600359D01*
X85482324Y-95587421D01*
X86098998Y-94970748D01*
X85996883Y-94896557D01*
X85772484Y-94782219D01*
X85532969Y-94704397D01*
X85284228Y-94665000D01*
X85032372Y-94665000D01*
X84783630Y-94704397D01*
X84544115Y-94782219D01*
X84544111Y-94782221D01*
X84538093Y-94785288D01*
X84469424Y-94798183D01*
X84404684Y-94771906D01*
X84364428Y-94714799D01*
X84357800Y-94674802D01*
X84357800Y-82058039D01*
X84377485Y-81991000D01*
X84394119Y-81970358D01*
X85200087Y-81164390D01*
X86219133Y-80145344D01*
X86298191Y-80008413D01*
X86339114Y-79855685D01*
X86339114Y-79697571D01*
X86316732Y-79614041D01*
X86817800Y-79614041D01*
X86817800Y-79895958D01*
X86854595Y-80175439D01*
X86927559Y-80447743D01*
X87035435Y-80708179D01*
X87035440Y-80708190D01*
X87169030Y-80939573D01*
X87176388Y-80952317D01*
X87348000Y-81175965D01*
X87348004Y-81175970D01*
X87547329Y-81375295D01*
X87547333Y-81375298D01*
X87547335Y-81375300D01*
X87770983Y-81546912D01*
X87770990Y-81546916D01*
X88015109Y-81687859D01*
X88015114Y-81687861D01*
X88015117Y-81687863D01*
X88275561Y-81795742D01*
X88547858Y-81868704D01*
X88827349Y-81905500D01*
X88827356Y-81905500D01*
X89109244Y-81905500D01*
X89109251Y-81905500D01*
X89388742Y-81868704D01*
X89661039Y-81795742D01*
X89921483Y-81687863D01*
X90165617Y-81546912D01*
X90389265Y-81375300D01*
X90588600Y-81175965D01*
X90760212Y-80952317D01*
X90901163Y-80708183D01*
X91009042Y-80447739D01*
X91082004Y-80175442D01*
X91118800Y-79895951D01*
X91118800Y-79853543D01*
X93047799Y-79853543D01*
X93086247Y-80046829D01*
X93086250Y-80046839D01*
X93161664Y-80228907D01*
X93161671Y-80228920D01*
X93271160Y-80392781D01*
X93271163Y-80392785D01*
X93410514Y-80532136D01*
X93410518Y-80532139D01*
X93574379Y-80641628D01*
X93574392Y-80641635D01*
X93735072Y-80708190D01*
X93756465Y-80717051D01*
X93756469Y-80717051D01*
X93756470Y-80717052D01*
X93949756Y-80755500D01*
X93949759Y-80755500D01*
X94146843Y-80755500D01*
X94276882Y-80729632D01*
X94340135Y-80717051D01*
X94522214Y-80641632D01*
X94686082Y-80532139D01*
X94825439Y-80392782D01*
X94934932Y-80228914D01*
X95010351Y-80046835D01*
X95040364Y-79895951D01*
X95048800Y-79853543D01*
X101937799Y-79853543D01*
X101976247Y-80046829D01*
X101976250Y-80046839D01*
X102051664Y-80228907D01*
X102051671Y-80228920D01*
X102161160Y-80392781D01*
X102161163Y-80392785D01*
X102300514Y-80532136D01*
X102300518Y-80532139D01*
X102464379Y-80641628D01*
X102464392Y-80641635D01*
X102625072Y-80708190D01*
X102646465Y-80717051D01*
X102646469Y-80717051D01*
X102646470Y-80717052D01*
X102839756Y-80755500D01*
X102839759Y-80755500D01*
X103036843Y-80755500D01*
X103166882Y-80729632D01*
X103230135Y-80717051D01*
X103412214Y-80641632D01*
X103576082Y-80532139D01*
X103715439Y-80392782D01*
X103824932Y-80228914D01*
X103900351Y-80046835D01*
X103930364Y-79895951D01*
X103938800Y-79853543D01*
X103938800Y-79656457D01*
X103934369Y-79634183D01*
X103934369Y-79634181D01*
X103930363Y-79614041D01*
X105867800Y-79614041D01*
X105867800Y-79895958D01*
X105904595Y-80175439D01*
X105977559Y-80447743D01*
X106085435Y-80708179D01*
X106085440Y-80708190D01*
X106219030Y-80939573D01*
X106226388Y-80952317D01*
X106398000Y-81175965D01*
X106398004Y-81175970D01*
X106597329Y-81375295D01*
X106597333Y-81375298D01*
X106597335Y-81375300D01*
X106820983Y-81546912D01*
X106820990Y-81546916D01*
X107065109Y-81687859D01*
X107065114Y-81687861D01*
X107065117Y-81687863D01*
X107325561Y-81795742D01*
X107597858Y-81868704D01*
X107877349Y-81905500D01*
X107877356Y-81905500D01*
X108159244Y-81905500D01*
X108159251Y-81905500D01*
X108438742Y-81868704D01*
X108711039Y-81795742D01*
X108971483Y-81687863D01*
X109215617Y-81546912D01*
X109439265Y-81375300D01*
X109638600Y-81175965D01*
X109810212Y-80952317D01*
X109951163Y-80708183D01*
X110059042Y-80447739D01*
X110132004Y-80175442D01*
X110168800Y-79895951D01*
X110168800Y-79853543D01*
X112097799Y-79853543D01*
X112136247Y-80046829D01*
X112136250Y-80046839D01*
X112211664Y-80228907D01*
X112211671Y-80228920D01*
X112321160Y-80392781D01*
X112321163Y-80392785D01*
X112460514Y-80532136D01*
X112460518Y-80532139D01*
X112624379Y-80641628D01*
X112624392Y-80641635D01*
X112785072Y-80708190D01*
X112806465Y-80717051D01*
X112806469Y-80717051D01*
X112806470Y-80717052D01*
X112999756Y-80755500D01*
X112999759Y-80755500D01*
X113196843Y-80755500D01*
X113326882Y-80729632D01*
X113390135Y-80717051D01*
X113572214Y-80641632D01*
X113736082Y-80532139D01*
X113875439Y-80392782D01*
X113984932Y-80228914D01*
X114060351Y-80046835D01*
X114090364Y-79895951D01*
X114098800Y-79853543D01*
X114098800Y-79656456D01*
X114060352Y-79463170D01*
X114060351Y-79463169D01*
X114060351Y-79463165D01*
X114037465Y-79407912D01*
X113984935Y-79281092D01*
X113984928Y-79281079D01*
X113875439Y-79117218D01*
X113875436Y-79117214D01*
X113736085Y-78977863D01*
X113736081Y-78977860D01*
X113572220Y-78868371D01*
X113572207Y-78868364D01*
X113390139Y-78792950D01*
X113390129Y-78792947D01*
X113196843Y-78754500D01*
X113196841Y-78754500D01*
X112999759Y-78754500D01*
X112999757Y-78754500D01*
X112806470Y-78792947D01*
X112806460Y-78792950D01*
X112624392Y-78868364D01*
X112624379Y-78868371D01*
X112460518Y-78977860D01*
X112460514Y-78977863D01*
X112321163Y-79117214D01*
X112321160Y-79117218D01*
X112211671Y-79281079D01*
X112211664Y-79281092D01*
X112136250Y-79463160D01*
X112136247Y-79463170D01*
X112097800Y-79656456D01*
X112097800Y-79656457D01*
X112097800Y-79656459D01*
X112097800Y-79853541D01*
X112097800Y-79853543D01*
X112097799Y-79853543D01*
X110168800Y-79853543D01*
X110168800Y-79614049D01*
X110132004Y-79334558D01*
X110059042Y-79062261D01*
X109951163Y-78801817D01*
X109951161Y-78801814D01*
X109951159Y-78801809D01*
X109810216Y-78557690D01*
X109810212Y-78557683D01*
X109638600Y-78334035D01*
X109638598Y-78334033D01*
X109638595Y-78334029D01*
X109439270Y-78134704D01*
X109364348Y-78077214D01*
X109215617Y-77963088D01*
X109215611Y-77963084D01*
X109215609Y-77963083D01*
X108971490Y-77822140D01*
X108971479Y-77822135D01*
X108711043Y-77714259D01*
X108438739Y-77641295D01*
X108159258Y-77604500D01*
X108159251Y-77604500D01*
X107877349Y-77604500D01*
X107877341Y-77604500D01*
X107597860Y-77641295D01*
X107325556Y-77714259D01*
X107065120Y-77822135D01*
X107065109Y-77822140D01*
X106820990Y-77963083D01*
X106820984Y-77963087D01*
X106820983Y-77963088D01*
X106758785Y-78010814D01*
X106597329Y-78134704D01*
X106398004Y-78334029D01*
X106226389Y-78557682D01*
X106226383Y-78557690D01*
X106085440Y-78801809D01*
X106085435Y-78801820D01*
X105977559Y-79062256D01*
X105904595Y-79334560D01*
X105867800Y-79614041D01*
X103930363Y-79614041D01*
X103900352Y-79463172D01*
X103900352Y-79463170D01*
X103900351Y-79463165D01*
X103877465Y-79407912D01*
X103824935Y-79281092D01*
X103824928Y-79281079D01*
X103715439Y-79117218D01*
X103715436Y-79117214D01*
X103576085Y-78977863D01*
X103576081Y-78977860D01*
X103488474Y-78919322D01*
X103443669Y-78865709D01*
X103434962Y-78796384D01*
X103465117Y-78733357D01*
X103524560Y-78696638D01*
X103594419Y-78697886D01*
X103595683Y-78698289D01*
X103833630Y-78775602D01*
X104082372Y-78815000D01*
X104334228Y-78815000D01*
X104582969Y-78775602D01*
X104822484Y-78697780D01*
X105046875Y-78583446D01*
X105046881Y-78583442D01*
X105148997Y-78509250D01*
X105148998Y-78509250D01*
X104532325Y-77892578D01*
X104563558Y-77879641D01*
X104686397Y-77797563D01*
X104790863Y-77693097D01*
X104872941Y-77570258D01*
X104885877Y-77539025D01*
X105502550Y-78155698D01*
X105502550Y-78155697D01*
X105576742Y-78053581D01*
X105576746Y-78053575D01*
X105691080Y-77829184D01*
X105768902Y-77589669D01*
X105808300Y-77340928D01*
X105808300Y-77089071D01*
X105768902Y-76840330D01*
X105691080Y-76600815D01*
X105576742Y-76376416D01*
X105502550Y-76274301D01*
X105502550Y-76274300D01*
X104885877Y-76890973D01*
X104872941Y-76859742D01*
X104790863Y-76736903D01*
X104686397Y-76632437D01*
X104563558Y-76550359D01*
X104532324Y-76537421D01*
X105148998Y-75920748D01*
X105046883Y-75846557D01*
X104822484Y-75732219D01*
X104582969Y-75654397D01*
X104334228Y-75615000D01*
X104082372Y-75615000D01*
X103833630Y-75654397D01*
X103594115Y-75732219D01*
X103369713Y-75846559D01*
X103267601Y-75920747D01*
X103267600Y-75920748D01*
X103884274Y-76537421D01*
X103853042Y-76550359D01*
X103730203Y-76632437D01*
X103625737Y-76736903D01*
X103543659Y-76859742D01*
X103530721Y-76890974D01*
X102914048Y-76274300D01*
X102914047Y-76274301D01*
X102839859Y-76376413D01*
X102725519Y-76600815D01*
X102647697Y-76840330D01*
X102608300Y-77089071D01*
X102608300Y-77340928D01*
X102647697Y-77589669D01*
X102725519Y-77829184D01*
X102839857Y-78053583D01*
X102914048Y-78155697D01*
X102914048Y-78155698D01*
X103530721Y-77539024D01*
X103543659Y-77570258D01*
X103625737Y-77693097D01*
X103730203Y-77797563D01*
X103853042Y-77879641D01*
X103884274Y-77892577D01*
X103267600Y-78509250D01*
X103369719Y-78583444D01*
X103372442Y-78585113D01*
X103373260Y-78586017D01*
X103373659Y-78586307D01*
X103373598Y-78586390D01*
X103419319Y-78636923D01*
X103430743Y-78705852D01*
X103403088Y-78770016D01*
X103345134Y-78809042D01*
X103275280Y-78810541D01*
X103260203Y-78805403D01*
X103230139Y-78792950D01*
X103230129Y-78792947D01*
X103036843Y-78754500D01*
X103036841Y-78754500D01*
X102839759Y-78754500D01*
X102839757Y-78754500D01*
X102646470Y-78792947D01*
X102646460Y-78792950D01*
X102464392Y-78868364D01*
X102464379Y-78868371D01*
X102300518Y-78977860D01*
X102300514Y-78977863D01*
X102161163Y-79117214D01*
X102161160Y-79117218D01*
X102051671Y-79281079D01*
X102051664Y-79281092D01*
X101976250Y-79463160D01*
X101976247Y-79463170D01*
X101937800Y-79656456D01*
X101937800Y-79656457D01*
X101937800Y-79656459D01*
X101937800Y-79853541D01*
X101937800Y-79853543D01*
X101937799Y-79853543D01*
X95048800Y-79853543D01*
X95048800Y-79656456D01*
X95010352Y-79463170D01*
X95010351Y-79463169D01*
X95010351Y-79463165D01*
X94987465Y-79407912D01*
X94934935Y-79281092D01*
X94934928Y-79281079D01*
X94825439Y-79117218D01*
X94825436Y-79117214D01*
X94686085Y-78977863D01*
X94686081Y-78977860D01*
X94522220Y-78868371D01*
X94522207Y-78868364D01*
X94340139Y-78792950D01*
X94340129Y-78792947D01*
X94146843Y-78754500D01*
X94146841Y-78754500D01*
X93949759Y-78754500D01*
X93949757Y-78754500D01*
X93756470Y-78792947D01*
X93756460Y-78792950D01*
X93574392Y-78868364D01*
X93574379Y-78868371D01*
X93410518Y-78977860D01*
X93410514Y-78977863D01*
X93271163Y-79117214D01*
X93271160Y-79117218D01*
X93161671Y-79281079D01*
X93161664Y-79281092D01*
X93086250Y-79463160D01*
X93086247Y-79463170D01*
X93047800Y-79656456D01*
X93047800Y-79656457D01*
X93047800Y-79656459D01*
X93047800Y-79853541D01*
X93047800Y-79853543D01*
X93047799Y-79853543D01*
X91118800Y-79853543D01*
X91118800Y-79614049D01*
X91082004Y-79334558D01*
X91009042Y-79062261D01*
X90901163Y-78801817D01*
X90901161Y-78801814D01*
X90901159Y-78801809D01*
X90760216Y-78557690D01*
X90760212Y-78557683D01*
X90588600Y-78334035D01*
X90588598Y-78334033D01*
X90588595Y-78334029D01*
X90389270Y-78134704D01*
X90314348Y-78077214D01*
X90165617Y-77963088D01*
X90165611Y-77963084D01*
X90165609Y-77963083D01*
X89921490Y-77822140D01*
X89921479Y-77822135D01*
X89661043Y-77714259D01*
X89388739Y-77641295D01*
X89109258Y-77604500D01*
X89109251Y-77604500D01*
X88827349Y-77604500D01*
X88827341Y-77604500D01*
X88547860Y-77641295D01*
X88275556Y-77714259D01*
X88015120Y-77822135D01*
X88015109Y-77822140D01*
X87770990Y-77963083D01*
X87770984Y-77963087D01*
X87770983Y-77963088D01*
X87708785Y-78010814D01*
X87547329Y-78134704D01*
X87348004Y-78334029D01*
X87176389Y-78557682D01*
X87176383Y-78557690D01*
X87035440Y-78801809D01*
X87035435Y-78801820D01*
X86927559Y-79062256D01*
X86854595Y-79334560D01*
X86817800Y-79614041D01*
X86316732Y-79614041D01*
X86298191Y-79544843D01*
X86219133Y-79407912D01*
X86107330Y-79296109D01*
X85716699Y-78905478D01*
X85683214Y-78844155D01*
X85688198Y-78774463D01*
X85730070Y-78718530D01*
X85766071Y-78699863D01*
X85772488Y-78697778D01*
X85996875Y-78583446D01*
X85996881Y-78583442D01*
X86098997Y-78509250D01*
X86098998Y-78509250D01*
X85482325Y-77892578D01*
X85513558Y-77879641D01*
X85636397Y-77797563D01*
X85740863Y-77693097D01*
X85822941Y-77570258D01*
X85835877Y-77539025D01*
X86452550Y-78155698D01*
X86452550Y-78155697D01*
X86526742Y-78053581D01*
X86526746Y-78053575D01*
X86641080Y-77829184D01*
X86718902Y-77589669D01*
X86758300Y-77340928D01*
X86758300Y-77089071D01*
X86718902Y-76840330D01*
X86641080Y-76600815D01*
X86526742Y-76376416D01*
X86452550Y-76274301D01*
X86452550Y-76274300D01*
X85835877Y-76890973D01*
X85822941Y-76859742D01*
X85740863Y-76736903D01*
X85636397Y-76632437D01*
X85513558Y-76550359D01*
X85482324Y-76537421D01*
X86098998Y-75920748D01*
X85996883Y-75846557D01*
X85772490Y-75732222D01*
X85766057Y-75730132D01*
X85708383Y-75690692D01*
X85681187Y-75626333D01*
X85693103Y-75557487D01*
X85716692Y-75524528D01*
X87732102Y-73509119D01*
X87793425Y-73475634D01*
X87819783Y-73472800D01*
X90160058Y-73472800D01*
X90227097Y-73492485D01*
X90272852Y-73545289D01*
X90282796Y-73614447D01*
X90260376Y-73669685D01*
X90139432Y-73836151D01*
X90025060Y-74060616D01*
X89947210Y-74300214D01*
X89907800Y-74549038D01*
X89907800Y-74800961D01*
X89947210Y-75049785D01*
X90025060Y-75289383D01*
X90139432Y-75513848D01*
X90287501Y-75717649D01*
X90287505Y-75717654D01*
X90465645Y-75895794D01*
X90465650Y-75895798D01*
X90643417Y-76024952D01*
X90669455Y-76043870D01*
X90812484Y-76116747D01*
X90893916Y-76158239D01*
X90893918Y-76158239D01*
X90893921Y-76158241D01*
X91133515Y-76236090D01*
X91382338Y-76275500D01*
X91382339Y-76275500D01*
X91634261Y-76275500D01*
X91634262Y-76275500D01*
X91883085Y-76236090D01*
X92122679Y-76158241D01*
X92347145Y-76043870D01*
X92550956Y-75895793D01*
X92729093Y-75717656D01*
X92877170Y-75513845D01*
X92991541Y-75289379D01*
X93069390Y-75049785D01*
X93108800Y-74800962D01*
X93108800Y-74549038D01*
X93069390Y-74300215D01*
X92991541Y-74060621D01*
X92991539Y-74060618D01*
X92991539Y-74060616D01*
X92950047Y-73979184D01*
X92877170Y-73836155D01*
X92868666Y-73824451D01*
X92756224Y-73669685D01*
X92732744Y-73603879D01*
X92748570Y-73535825D01*
X92798676Y-73487130D01*
X92856542Y-73472800D01*
X109210058Y-73472800D01*
X109277097Y-73492485D01*
X109322852Y-73545289D01*
X109332796Y-73614447D01*
X109310376Y-73669685D01*
X109189432Y-73836151D01*
X109075060Y-74060616D01*
X108997210Y-74300214D01*
X108957800Y-74549038D01*
X108957800Y-74800961D01*
X108997210Y-75049785D01*
X109075060Y-75289383D01*
X109189432Y-75513848D01*
X109337501Y-75717649D01*
X109337505Y-75717654D01*
X109515645Y-75895794D01*
X109515650Y-75895798D01*
X109693417Y-76024952D01*
X109719455Y-76043870D01*
X109862484Y-76116747D01*
X109943916Y-76158239D01*
X109943918Y-76158239D01*
X109943921Y-76158241D01*
X110183515Y-76236090D01*
X110432338Y-76275500D01*
X110432339Y-76275500D01*
X110684261Y-76275500D01*
X110684262Y-76275500D01*
X110933085Y-76236090D01*
X111172679Y-76158241D01*
X111397145Y-76043870D01*
X111600956Y-75895793D01*
X111779093Y-75717656D01*
X111927170Y-75513845D01*
X112041541Y-75289379D01*
X112119390Y-75049785D01*
X112158800Y-74800962D01*
X112158800Y-74549038D01*
X112119390Y-74300215D01*
X112041541Y-74060621D01*
X112041539Y-74060618D01*
X112041539Y-74060616D01*
X112000047Y-73979184D01*
X111927170Y-73836155D01*
X111918666Y-73824451D01*
X111806224Y-73669685D01*
X111782744Y-73603879D01*
X111798570Y-73535825D01*
X111848676Y-73487130D01*
X111906542Y-73472800D01*
X120596817Y-73472800D01*
X120663856Y-73492485D01*
X120684498Y-73509119D01*
X122699900Y-75524521D01*
X122733385Y-75585844D01*
X122728401Y-75655536D01*
X122686529Y-75711469D01*
X122650547Y-75730130D01*
X122644111Y-75732221D01*
X122419713Y-75846559D01*
X122317601Y-75920747D01*
X122317600Y-75920748D01*
X122934274Y-76537421D01*
X122903042Y-76550359D01*
X122780203Y-76632437D01*
X122675737Y-76736903D01*
X122593659Y-76859742D01*
X122580721Y-76890974D01*
X121964048Y-76274300D01*
X121964047Y-76274301D01*
X121889859Y-76376413D01*
X121775519Y-76600815D01*
X121697697Y-76840330D01*
X121658300Y-77089071D01*
X121658300Y-77340928D01*
X121697697Y-77589669D01*
X121775519Y-77829184D01*
X121889857Y-78053583D01*
X121964048Y-78155697D01*
X121964048Y-78155698D01*
X122580721Y-77539024D01*
X122593659Y-77570258D01*
X122675737Y-77693097D01*
X122780203Y-77797563D01*
X122903042Y-77879641D01*
X122934273Y-77892577D01*
X122317600Y-78509250D01*
X122419719Y-78583444D01*
X122422442Y-78585113D01*
X122423260Y-78586017D01*
X122423659Y-78586307D01*
X122423598Y-78586390D01*
X122469319Y-78636923D01*
X122480743Y-78705852D01*
X122453088Y-78770016D01*
X122395134Y-78809042D01*
X122325280Y-78810541D01*
X122310203Y-78805403D01*
X122280139Y-78792950D01*
X122280129Y-78792947D01*
X122086843Y-78754500D01*
X122086841Y-78754500D01*
X121889759Y-78754500D01*
X121889757Y-78754500D01*
X121696470Y-78792947D01*
X121696460Y-78792950D01*
X121514392Y-78868364D01*
X121514379Y-78868371D01*
X121350518Y-78977860D01*
X121350514Y-78977863D01*
X121211163Y-79117214D01*
X121211160Y-79117218D01*
X121101671Y-79281079D01*
X121101664Y-79281092D01*
X121026250Y-79463160D01*
X121026247Y-79463170D01*
X120987800Y-79656456D01*
X120987800Y-79656457D01*
X120987800Y-79656459D01*
X120987800Y-79853541D01*
X120987800Y-79853543D01*
X120987799Y-79853543D01*
X121026247Y-80046829D01*
X121026250Y-80046839D01*
X121101664Y-80228907D01*
X121101671Y-80228920D01*
X121211160Y-80392781D01*
X121211163Y-80392785D01*
X121350514Y-80532136D01*
X121350518Y-80532139D01*
X121514379Y-80641628D01*
X121514392Y-80641635D01*
X121675072Y-80708190D01*
X121696465Y-80717051D01*
X121696469Y-80717051D01*
X121696470Y-80717052D01*
X121889756Y-80755500D01*
X121889759Y-80755500D01*
X122086843Y-80755500D01*
X122216882Y-80729632D01*
X122280135Y-80717051D01*
X122462214Y-80641632D01*
X122626082Y-80532139D01*
X122765439Y-80392782D01*
X122874932Y-80228914D01*
X122950351Y-80046835D01*
X122980364Y-79895951D01*
X122988800Y-79853543D01*
X122988800Y-79656456D01*
X122950352Y-79463170D01*
X122950351Y-79463169D01*
X122950351Y-79463165D01*
X122927465Y-79407912D01*
X122874935Y-79281092D01*
X122874928Y-79281079D01*
X122765439Y-79117218D01*
X122765436Y-79117214D01*
X122626085Y-78977863D01*
X122626081Y-78977860D01*
X122538474Y-78919322D01*
X122493669Y-78865709D01*
X122484962Y-78796384D01*
X122515117Y-78733357D01*
X122574560Y-78696638D01*
X122644419Y-78697886D01*
X122645683Y-78698289D01*
X122883630Y-78775602D01*
X123132372Y-78815000D01*
X123384228Y-78815000D01*
X123632969Y-78775602D01*
X123872484Y-78697780D01*
X123878498Y-78694716D01*
X123947167Y-78681815D01*
X124011909Y-78708087D01*
X124052169Y-78765191D01*
X124058800Y-78805197D01*
X124058800Y-82383387D01*
X124058799Y-82383405D01*
X124058799Y-82549111D01*
X124058798Y-82549111D01*
X124099723Y-82701842D01*
X124128658Y-82751957D01*
X124128659Y-82751961D01*
X124128660Y-82751961D01*
X124178779Y-82838771D01*
X124178781Y-82838774D01*
X124297649Y-82957642D01*
X124297655Y-82957647D01*
X132851826Y-91511819D01*
X132885311Y-91573142D01*
X132880327Y-91642834D01*
X132838455Y-91698767D01*
X132772991Y-91723184D01*
X132764145Y-91723500D01*
X129105352Y-91723500D01*
X129038313Y-91703815D01*
X129012772Y-91681993D01*
X129004319Y-91672507D01*
X128980520Y-91631284D01*
X128868716Y-91519480D01*
X128868713Y-91519478D01*
X114334574Y-76985339D01*
X114301089Y-76924016D01*
X114300638Y-76921849D01*
X114269738Y-76766510D01*
X114269737Y-76766503D01*
X114269735Y-76766498D01*
X114209397Y-76620827D01*
X114209390Y-76620814D01*
X114121789Y-76489710D01*
X114010292Y-76378213D01*
X114010288Y-76378210D01*
X113879181Y-76290607D01*
X113879172Y-76290602D01*
X113733501Y-76230264D01*
X113733489Y-76230261D01*
X113578845Y-76199500D01*
X113578842Y-76199500D01*
X113421158Y-76199500D01*
X113421155Y-76199500D01*
X113266510Y-76230261D01*
X113266498Y-76230264D01*
X113120827Y-76290602D01*
X113120819Y-76290607D01*
X112989711Y-76378210D01*
X112989707Y-76378213D01*
X112878213Y-76489707D01*
X112878211Y-76489710D01*
X112790609Y-76620814D01*
X112790602Y-76620827D01*
X112730264Y-76766498D01*
X112730261Y-76766510D01*
X112699500Y-76921153D01*
X112699500Y-77078846D01*
X112730261Y-77233489D01*
X112730264Y-77233501D01*
X112790602Y-77379172D01*
X112790609Y-77379185D01*
X112878210Y-77510288D01*
X112878213Y-77510292D01*
X112989707Y-77621786D01*
X112989711Y-77621789D01*
X113120814Y-77709390D01*
X113120827Y-77709397D01*
X113266498Y-77769735D01*
X113266503Y-77769737D01*
X113331147Y-77782595D01*
X113421849Y-77800638D01*
X113483760Y-77833023D01*
X113485339Y-77834574D01*
X127863181Y-92212416D01*
X127896666Y-92273739D01*
X127899500Y-92300097D01*
X127899500Y-92403057D01*
X127931774Y-92523503D01*
X127940423Y-92555783D01*
X127940426Y-92555790D01*
X128019475Y-92692709D01*
X128019479Y-92692714D01*
X128019480Y-92692716D01*
X128131284Y-92804520D01*
X128131285Y-92804521D01*
X128131287Y-92804522D01*
X128145081Y-92812486D01*
X128193296Y-92863053D01*
X128206520Y-92931660D01*
X128193566Y-92976168D01*
X128125060Y-93110616D01*
X128047210Y-93350214D01*
X128007800Y-93599038D01*
X128007800Y-93850961D01*
X128047210Y-94099785D01*
X128125060Y-94339383D01*
X128239432Y-94563848D01*
X128387501Y-94767649D01*
X128387505Y-94767654D01*
X128565645Y-94945794D01*
X128565650Y-94945798D01*
X128656353Y-95011697D01*
X128769455Y-95093870D01*
X128887559Y-95154047D01*
X128993916Y-95208239D01*
X128993918Y-95208239D01*
X128993921Y-95208241D01*
X129233515Y-95286090D01*
X129482338Y-95325500D01*
X129482339Y-95325500D01*
X129734261Y-95325500D01*
X129734262Y-95325500D01*
X129983085Y-95286090D01*
X130222679Y-95208241D01*
X130447145Y-95093870D01*
X130650956Y-94945793D01*
X130829093Y-94767656D01*
X130977170Y-94563845D01*
X131091541Y-94339379D01*
X131169390Y-94099785D01*
X131208800Y-93850962D01*
X131208800Y-93599038D01*
X131169390Y-93350215D01*
X131091541Y-93110621D01*
X131091537Y-93110613D01*
X131088572Y-93104792D01*
X131075677Y-93036122D01*
X131101955Y-92971383D01*
X131159063Y-92931127D01*
X131199058Y-92924500D01*
X133646046Y-92924500D01*
X133713085Y-92944185D01*
X133733727Y-92960819D01*
X137453826Y-96680919D01*
X137487311Y-96742242D01*
X137482327Y-96811934D01*
X137440455Y-96867867D01*
X137374991Y-96892284D01*
X137366145Y-96892600D01*
X137229257Y-96892600D01*
X137071142Y-96892600D01*
X136918415Y-96933523D01*
X136918414Y-96933523D01*
X136918412Y-96933524D01*
X136918409Y-96933525D01*
X136868296Y-96962459D01*
X136868295Y-96962460D01*
X136827214Y-96986178D01*
X136781485Y-97012579D01*
X136781482Y-97012581D01*
X136669678Y-97124386D01*
X129105981Y-104688082D01*
X129098036Y-104692419D01*
X129092611Y-104699668D01*
X129067848Y-104708904D01*
X129044658Y-104721567D01*
X129035629Y-104720921D01*
X129027147Y-104724085D01*
X129001324Y-104718468D01*
X128974966Y-104716583D01*
X128965913Y-104710765D01*
X128958874Y-104709234D01*
X128930619Y-104688083D01*
X128864521Y-104621986D01*
X128864519Y-104621983D01*
X128752717Y-104510181D01*
X128752716Y-104510180D01*
X128665904Y-104460060D01*
X128665904Y-104460059D01*
X128665900Y-104460058D01*
X128615785Y-104431123D01*
X128463057Y-104390199D01*
X128304943Y-104390199D01*
X128297347Y-104390199D01*
X128297331Y-104390200D01*
X123017358Y-104390200D01*
X122950319Y-104370515D01*
X122904564Y-104317711D01*
X122894620Y-104248553D01*
X122923645Y-104184997D01*
X122948467Y-104163098D01*
X122987795Y-104136819D01*
X123010289Y-104121789D01*
X123121789Y-104010289D01*
X123209394Y-103879179D01*
X123269737Y-103733497D01*
X123300500Y-103578842D01*
X123300500Y-103421158D01*
X123300500Y-103421155D01*
X123300499Y-103421153D01*
X123269738Y-103266510D01*
X123269737Y-103266503D01*
X123211840Y-103126726D01*
X123209397Y-103120827D01*
X123209390Y-103120814D01*
X123121789Y-102989711D01*
X123121786Y-102989707D01*
X123010292Y-102878213D01*
X123010288Y-102878210D01*
X122879185Y-102790609D01*
X122879172Y-102790602D01*
X122733501Y-102730264D01*
X122733489Y-102730261D01*
X122578845Y-102699500D01*
X122578842Y-102699500D01*
X122421158Y-102699500D01*
X122421155Y-102699500D01*
X122266510Y-102730261D01*
X122266498Y-102730264D01*
X122120827Y-102790602D01*
X122120814Y-102790609D01*
X121989125Y-102878602D01*
X121922447Y-102899480D01*
X121920234Y-102899500D01*
X119754980Y-102899500D01*
X119754964Y-102899499D01*
X119747368Y-102899499D01*
X119589253Y-102899499D01*
X119512889Y-102919961D01*
X119436524Y-102940423D01*
X119436519Y-102940426D01*
X119299600Y-103019475D01*
X119299592Y-103019481D01*
X117326779Y-104992294D01*
X117287740Y-105059915D01*
X117287736Y-105059922D01*
X117273263Y-105084987D01*
X117222693Y-105133200D01*
X117154086Y-105146419D01*
X117089222Y-105120448D01*
X117078198Y-105110662D01*
X116105891Y-104138355D01*
X116105889Y-104138352D01*
X115987018Y-104019481D01*
X115987010Y-104019475D01*
X115884487Y-103960284D01*
X115884485Y-103960283D01*
X115850091Y-103940425D01*
X115850090Y-103940424D01*
X115837564Y-103937067D01*
X115697358Y-103899499D01*
X115539244Y-103899499D01*
X115531648Y-103899499D01*
X115531632Y-103899500D01*
X111086669Y-103899500D01*
X111086653Y-103899499D01*
X111079057Y-103899499D01*
X110920943Y-103899499D01*
X110813587Y-103928265D01*
X110768210Y-103940424D01*
X110768209Y-103940425D01*
X110738967Y-103957308D01*
X110738956Y-103957315D01*
X110733815Y-103960284D01*
X110631284Y-104019480D01*
X110580387Y-104070376D01*
X110571987Y-104076366D01*
X110548329Y-104084569D01*
X110526356Y-104096568D01*
X110515889Y-104095819D01*
X110505973Y-104099258D01*
X110481635Y-104093369D01*
X110456664Y-104091583D01*
X110446042Y-104084756D01*
X110438063Y-104082826D01*
X110430165Y-104074553D01*
X110412318Y-104063083D01*
X110118718Y-103769483D01*
X110118716Y-103769481D01*
X109981785Y-103690423D01*
X109829057Y-103649499D01*
X109670943Y-103649499D01*
X109520749Y-103689744D01*
X109520748Y-103689743D01*
X109518215Y-103690422D01*
X109381284Y-103769481D01*
X109381281Y-103769483D01*
X108747871Y-104402893D01*
X108686548Y-104436378D01*
X108628098Y-104434987D01*
X108495657Y-104399499D01*
X108337543Y-104399499D01*
X108329947Y-104399499D01*
X108329931Y-104399500D01*
X104420943Y-104399500D01*
X104268216Y-104440423D01*
X104268209Y-104440426D01*
X104131290Y-104519475D01*
X104131282Y-104519481D01*
X104019481Y-104631282D01*
X104019475Y-104631290D01*
X103940426Y-104768209D01*
X103940423Y-104768216D01*
X103899500Y-104920943D01*
X103899500Y-113699902D01*
X103879815Y-113766941D01*
X103863181Y-113787583D01*
X103279784Y-114370981D01*
X103218461Y-114404466D01*
X103192103Y-114407300D01*
X100732170Y-114407300D01*
X100732154Y-114407299D01*
X100724558Y-114407299D01*
X100566443Y-114407299D01*
X100490079Y-114427761D01*
X100413714Y-114448223D01*
X100413709Y-114448226D01*
X100276790Y-114527275D01*
X100276782Y-114527281D01*
X100025883Y-114778181D01*
X99964560Y-114811666D01*
X99938202Y-114814500D01*
X99823602Y-114814500D01*
X99787308Y-114817356D01*
X99787302Y-114817357D01*
X99631909Y-114862504D01*
X99631906Y-114862505D01*
X99492615Y-114944881D01*
X99492607Y-114944887D01*
X99378187Y-115059307D01*
X99378181Y-115059315D01*
X99295805Y-115198606D01*
X99295804Y-115198609D01*
X99250657Y-115354002D01*
X99250656Y-115354008D01*
X99247800Y-115390302D01*
X99247800Y-115859697D01*
X99250656Y-115895991D01*
X99250657Y-115895997D01*
X99295804Y-116051390D01*
X99295805Y-116051393D01*
X99378181Y-116190684D01*
X99378187Y-116190692D01*
X99492607Y-116305112D01*
X99492611Y-116305115D01*
X99492613Y-116305117D01*
X99631905Y-116387494D01*
X99645573Y-116391465D01*
X99787302Y-116432642D01*
X99787305Y-116432642D01*
X99787307Y-116432643D01*
X99823610Y-116435500D01*
X99823618Y-116435500D01*
X100232982Y-116435500D01*
X100232990Y-116435500D01*
X100269293Y-116432643D01*
X100269295Y-116432642D01*
X100269297Y-116432642D01*
X100310275Y-116420736D01*
X100424695Y-116387494D01*
X100445669Y-116375089D01*
X100513388Y-116357906D01*
X100571913Y-116375090D01*
X100592103Y-116387031D01*
X100738300Y-116429504D01*
X100738300Y-116429503D01*
X101238300Y-116429503D01*
X101384495Y-116387031D01*
X101523674Y-116304721D01*
X101523683Y-116304714D01*
X101638014Y-116190383D01*
X101638021Y-116190374D01*
X101720331Y-116051195D01*
X101720333Y-116051190D01*
X101765444Y-115895918D01*
X101765445Y-115895912D01*
X101767090Y-115875000D01*
X101238300Y-115875000D01*
X101238300Y-116429503D01*
X100738300Y-116429503D01*
X100738300Y-116123352D01*
X100755567Y-116060233D01*
X100760794Y-116051395D01*
X100777553Y-115993713D01*
X100805942Y-115895997D01*
X100805943Y-115895991D01*
X100805949Y-115895912D01*
X100808800Y-115859690D01*
X100808800Y-115749000D01*
X100828485Y-115681961D01*
X100881289Y-115636206D01*
X100932800Y-115625000D01*
X101004610Y-115625000D01*
X101030004Y-115611134D01*
X101056362Y-115608300D01*
X103111003Y-115608300D01*
X103140443Y-115616944D01*
X103170430Y-115623468D01*
X103175445Y-115627222D01*
X103178042Y-115627985D01*
X103198684Y-115644619D01*
X103211481Y-115657416D01*
X103244966Y-115718739D01*
X103247800Y-115745097D01*
X103247800Y-115859697D01*
X103250656Y-115895991D01*
X103250657Y-115895997D01*
X103295804Y-116051390D01*
X103295805Y-116051393D01*
X103378181Y-116190684D01*
X103378187Y-116190692D01*
X103492607Y-116305112D01*
X103492611Y-116305115D01*
X103492613Y-116305117D01*
X103631905Y-116387494D01*
X103631908Y-116387494D01*
X103634255Y-116388511D01*
X103635802Y-116389798D01*
X103638620Y-116391465D01*
X103638351Y-116391919D01*
X103687962Y-116433203D01*
X103708980Y-116499836D01*
X103690638Y-116567255D01*
X103638757Y-116614055D01*
X103585005Y-116626311D01*
X102503158Y-116626311D01*
X102503142Y-116626310D01*
X102495546Y-116626310D01*
X102337432Y-116626310D01*
X102230076Y-116655076D01*
X102184699Y-116667235D01*
X102184698Y-116667236D01*
X102134585Y-116696170D01*
X102134584Y-116696171D01*
X102099342Y-116716518D01*
X102047774Y-116746290D01*
X102047771Y-116746292D01*
X101935967Y-116858097D01*
X101105981Y-117688082D01*
X101098035Y-117692420D01*
X101092611Y-117699667D01*
X101067851Y-117708902D01*
X101044658Y-117721567D01*
X101035628Y-117720921D01*
X101027147Y-117724085D01*
X101001324Y-117718468D01*
X100974966Y-117716583D01*
X100965913Y-117710765D01*
X100958874Y-117709234D01*
X100930620Y-117688083D01*
X100877822Y-117635286D01*
X100766017Y-117523481D01*
X100766016Y-117523480D01*
X100650322Y-117456684D01*
X100650322Y-117456683D01*
X100650317Y-117456682D01*
X100642908Y-117452404D01*
X100629086Y-117444423D01*
X100590903Y-117434192D01*
X100476357Y-117403499D01*
X100318243Y-117403499D01*
X100310647Y-117403499D01*
X100310631Y-117403500D01*
X98050243Y-117403500D01*
X97897514Y-117444423D01*
X97880768Y-117454091D01*
X97876279Y-117456684D01*
X97818431Y-117490082D01*
X97760585Y-117523479D01*
X97760582Y-117523481D01*
X97648778Y-117635286D01*
X96595882Y-118688181D01*
X96534559Y-118721666D01*
X96508201Y-118724500D01*
X96010429Y-118724500D01*
X96010423Y-118724501D01*
X95950816Y-118730908D01*
X95815971Y-118781202D01*
X95815964Y-118781206D01*
X95700757Y-118867451D01*
X95700749Y-118867458D01*
X95676532Y-118899810D01*
X95620599Y-118941682D01*
X95577265Y-118949500D01*
X93439335Y-118949500D01*
X93372296Y-118929815D01*
X93340068Y-118899810D01*
X93315850Y-118867458D01*
X93315847Y-118867455D01*
X93315846Y-118867454D01*
X93302440Y-118857418D01*
X93200635Y-118781206D01*
X93200628Y-118781202D01*
X93065782Y-118730908D01*
X93065783Y-118730908D01*
X93006183Y-118724501D01*
X93006181Y-118724500D01*
X93006173Y-118724500D01*
X93006164Y-118724500D01*
X91860429Y-118724500D01*
X91860423Y-118724501D01*
X91800816Y-118730908D01*
X91665971Y-118781202D01*
X91665964Y-118781206D01*
X91550755Y-118867452D01*
X91550752Y-118867455D01*
X91464506Y-118982664D01*
X91464502Y-118982671D01*
X91414210Y-119117513D01*
X91414209Y-119117517D01*
X91407800Y-119177127D01*
X91407800Y-119177134D01*
X91407800Y-119177135D01*
X91407800Y-119922870D01*
X91407801Y-119922876D01*
X91414208Y-119982483D01*
X91464502Y-120117328D01*
X91464506Y-120117335D01*
X91550752Y-120232544D01*
X91550753Y-120232544D01*
X91550754Y-120232546D01*
X91550757Y-120232548D01*
X91577505Y-120252572D01*
X91619376Y-120308507D01*
X91624359Y-120378198D01*
X91590873Y-120439521D01*
X91535287Y-120471613D01*
X91528244Y-120473500D01*
X91528243Y-120473500D01*
X91464104Y-120490685D01*
X91375514Y-120514423D01*
X91375509Y-120514426D01*
X91238590Y-120593475D01*
X91238582Y-120593481D01*
X91126781Y-120705282D01*
X91126775Y-120705290D01*
X91047726Y-120842209D01*
X91047723Y-120842216D01*
X91006800Y-120994943D01*
X91006800Y-122246943D01*
X91006800Y-122405057D01*
X91042875Y-122539689D01*
X91047723Y-122557783D01*
X91047726Y-122557790D01*
X91126775Y-122694709D01*
X91126778Y-122694713D01*
X91126780Y-122694716D01*
X91238584Y-122806520D01*
X91238586Y-122806521D01*
X91238590Y-122806524D01*
X91326606Y-122857339D01*
X91375516Y-122885577D01*
X91528243Y-122926500D01*
X114837331Y-122926500D01*
X114837347Y-122926501D01*
X114844943Y-122926501D01*
X115003054Y-122926501D01*
X115003057Y-122926501D01*
X115155785Y-122885577D01*
X115205904Y-122856639D01*
X115292716Y-122806520D01*
X115404520Y-122694716D01*
X115404520Y-122694714D01*
X115414728Y-122684507D01*
X115414729Y-122684504D01*
X116026390Y-122072844D01*
X123408300Y-122072844D01*
X123414701Y-122132372D01*
X123414703Y-122132379D01*
X123464945Y-122267086D01*
X123464949Y-122267093D01*
X123551109Y-122382187D01*
X123551112Y-122382190D01*
X123666206Y-122468350D01*
X123666213Y-122468354D01*
X123800920Y-122518596D01*
X123800927Y-122518598D01*
X123860455Y-122524999D01*
X123860472Y-122525000D01*
X124183300Y-122525000D01*
X124683300Y-122525000D01*
X125006128Y-122525000D01*
X125006144Y-122524999D01*
X125065672Y-122518598D01*
X125065679Y-122518596D01*
X125200386Y-122468354D01*
X125200393Y-122468350D01*
X125315487Y-122382190D01*
X125315490Y-122382187D01*
X125401650Y-122267093D01*
X125401654Y-122267086D01*
X125451896Y-122132379D01*
X125451898Y-122132372D01*
X125458299Y-122072844D01*
X125458300Y-122072827D01*
X125458300Y-121950000D01*
X124683300Y-121950000D01*
X124683300Y-122525000D01*
X124183300Y-122525000D01*
X124183300Y-121950000D01*
X123408300Y-121950000D01*
X123408300Y-122072844D01*
X116026390Y-122072844D01*
X116425547Y-121673687D01*
X116486868Y-121640204D01*
X116489035Y-121639753D01*
X116546970Y-121628228D01*
X116644382Y-121608852D01*
X116790064Y-121548509D01*
X116921174Y-121460904D01*
X117032674Y-121349404D01*
X117047540Y-121327155D01*
X123408300Y-121327155D01*
X123408300Y-121450000D01*
X124183300Y-121450000D01*
X124683300Y-121450000D01*
X125458300Y-121450000D01*
X125458300Y-121327172D01*
X125458299Y-121327155D01*
X127558300Y-121327155D01*
X127558300Y-121450000D01*
X128333300Y-121450000D01*
X128333300Y-120875000D01*
X128010455Y-120875000D01*
X127950927Y-120881401D01*
X127950920Y-120881403D01*
X127816213Y-120931645D01*
X127816206Y-120931649D01*
X127701112Y-121017809D01*
X127701109Y-121017812D01*
X127614949Y-121132906D01*
X127614945Y-121132913D01*
X127564703Y-121267620D01*
X127564701Y-121267627D01*
X127558300Y-121327155D01*
X125458299Y-121327155D01*
X125451898Y-121267627D01*
X125451896Y-121267620D01*
X125401654Y-121132913D01*
X125401650Y-121132906D01*
X125315490Y-121017812D01*
X125315487Y-121017809D01*
X125200393Y-120931649D01*
X125200386Y-120931645D01*
X125065679Y-120881403D01*
X125065672Y-120881401D01*
X125006144Y-120875000D01*
X124683300Y-120875000D01*
X124683300Y-121450000D01*
X124183300Y-121450000D01*
X124183300Y-120875000D01*
X123860455Y-120875000D01*
X123800927Y-120881401D01*
X123800920Y-120881403D01*
X123666213Y-120931645D01*
X123666206Y-120931649D01*
X123551112Y-121017809D01*
X123551109Y-121017812D01*
X123464949Y-121132906D01*
X123464945Y-121132913D01*
X123414703Y-121267620D01*
X123414701Y-121267627D01*
X123408300Y-121327155D01*
X117047540Y-121327155D01*
X117087316Y-121267627D01*
X117095780Y-121254960D01*
X117120275Y-121218300D01*
X117120275Y-121218299D01*
X117120279Y-121218294D01*
X117180622Y-121072612D01*
X117211385Y-120917957D01*
X117211385Y-120760273D01*
X117211385Y-120760270D01*
X117211384Y-120760268D01*
X117200447Y-120705284D01*
X117180622Y-120605618D01*
X117175592Y-120593475D01*
X117120282Y-120459942D01*
X117120275Y-120459929D01*
X117032674Y-120328826D01*
X117032671Y-120328822D01*
X116921177Y-120217328D01*
X116921173Y-120217325D01*
X116790070Y-120129724D01*
X116790057Y-120129717D01*
X116644386Y-120069379D01*
X116644374Y-120069376D01*
X116489730Y-120038615D01*
X116489727Y-120038615D01*
X116332043Y-120038615D01*
X116332040Y-120038615D01*
X116177395Y-120069376D01*
X116177383Y-120069379D01*
X116031712Y-120129717D01*
X116031699Y-120129724D01*
X115900596Y-120217325D01*
X115900592Y-120217328D01*
X115789098Y-120328822D01*
X115789095Y-120328826D01*
X115701494Y-120459929D01*
X115701487Y-120459942D01*
X115641149Y-120605613D01*
X115641146Y-120605623D01*
X115610246Y-120760965D01*
X115577861Y-120822876D01*
X115576310Y-120824454D01*
X114711584Y-121689181D01*
X114650261Y-121722666D01*
X114623903Y-121725500D01*
X98046398Y-121725500D01*
X98025155Y-121719262D01*
X98003067Y-121717683D01*
X97992281Y-121709609D01*
X97979359Y-121705815D01*
X97964860Y-121689083D01*
X97947132Y-121675812D01*
X97942423Y-121663189D01*
X97933604Y-121653011D01*
X97930452Y-121631095D01*
X97922714Y-121610348D01*
X97925577Y-121597185D01*
X97923660Y-121583853D01*
X97932858Y-121563710D01*
X97937565Y-121542075D01*
X97950834Y-121524348D01*
X97952685Y-121520297D01*
X97958701Y-121513834D01*
X98029820Y-121442716D01*
X98029821Y-121442713D01*
X99990716Y-119481818D01*
X100052039Y-119448333D01*
X100078397Y-119445499D01*
X100197468Y-119445499D01*
X100197480Y-119445499D01*
X100233504Y-119442665D01*
X100387693Y-119397869D01*
X100445182Y-119363869D01*
X100512902Y-119346688D01*
X100571417Y-119363869D01*
X100628907Y-119397869D01*
X100628910Y-119397869D01*
X100628912Y-119397871D01*
X100783091Y-119442664D01*
X100783094Y-119442664D01*
X100783096Y-119442665D01*
X100819119Y-119445500D01*
X101217480Y-119445499D01*
X101253504Y-119442665D01*
X101407693Y-119397869D01*
X101545898Y-119316135D01*
X101659435Y-119202598D01*
X101741169Y-119064393D01*
X101778167Y-118937046D01*
X101785964Y-118910208D01*
X101785965Y-118910202D01*
X101787083Y-118895993D01*
X101788736Y-118875000D01*
X103249510Y-118875000D01*
X103251154Y-118895910D01*
X103296268Y-119051195D01*
X103378578Y-119190374D01*
X103378585Y-119190383D01*
X103492916Y-119304714D01*
X103492925Y-119304721D01*
X103632104Y-119387031D01*
X103778300Y-119429504D01*
X103778300Y-118875000D01*
X103249510Y-118875000D01*
X101788736Y-118875000D01*
X101788800Y-118874181D01*
X101788799Y-118755096D01*
X101808483Y-118688058D01*
X101825113Y-118667420D01*
X102628905Y-117863630D01*
X102690228Y-117830145D01*
X102716586Y-117827311D01*
X103311529Y-117827311D01*
X103378568Y-117846996D01*
X103424323Y-117899800D01*
X103434267Y-117968958D01*
X103405242Y-118032514D01*
X103399210Y-118038992D01*
X103378585Y-118059616D01*
X103378578Y-118059625D01*
X103296268Y-118198804D01*
X103296266Y-118198809D01*
X103251155Y-118354081D01*
X103251154Y-118354087D01*
X103249509Y-118374999D01*
X103249510Y-118375000D01*
X103893739Y-118375000D01*
X103905254Y-118378381D01*
X103917203Y-118377240D01*
X103938159Y-118388043D01*
X103960778Y-118394685D01*
X103970189Y-118404555D01*
X103979306Y-118409255D01*
X104001124Y-118436997D01*
X104011685Y-118455288D01*
X104028300Y-118517291D01*
X104028300Y-118625000D01*
X104083800Y-118625000D01*
X104150839Y-118644685D01*
X104196594Y-118697489D01*
X104207800Y-118749000D01*
X104207800Y-118859697D01*
X104210656Y-118895991D01*
X104210657Y-118895997D01*
X104255803Y-119051389D01*
X104255805Y-119051393D01*
X104255806Y-119051395D01*
X104261032Y-119060233D01*
X104278300Y-119123352D01*
X104278300Y-119429503D01*
X104424494Y-119387032D01*
X104444684Y-119375091D01*
X104512408Y-119357906D01*
X104570929Y-119375089D01*
X104591905Y-119387494D01*
X104632887Y-119399400D01*
X104747302Y-119432642D01*
X104747305Y-119432642D01*
X104747307Y-119432643D01*
X104783610Y-119435500D01*
X104783618Y-119435500D01*
X105192982Y-119435500D01*
X105192990Y-119435500D01*
X105229293Y-119432643D01*
X105229295Y-119432642D01*
X105229297Y-119432642D01*
X105270275Y-119420736D01*
X105384695Y-119387494D01*
X105523987Y-119305117D01*
X105638417Y-119190687D01*
X105720794Y-119051395D01*
X105765943Y-118895993D01*
X105768800Y-118859690D01*
X105768800Y-118390310D01*
X105765943Y-118354007D01*
X105740522Y-118266510D01*
X105720795Y-118198609D01*
X105720794Y-118198606D01*
X105720794Y-118198605D01*
X105638417Y-118059313D01*
X105638415Y-118059311D01*
X105638412Y-118059307D01*
X105523992Y-117944887D01*
X105523984Y-117944881D01*
X105411249Y-117878210D01*
X105384695Y-117862506D01*
X105384694Y-117862505D01*
X105384693Y-117862505D01*
X105384692Y-117862504D01*
X105298803Y-117837551D01*
X105239918Y-117799944D01*
X105210712Y-117736472D01*
X105220458Y-117667285D01*
X105230298Y-117649583D01*
X105239852Y-117635284D01*
X105259426Y-117605990D01*
X105319769Y-117460308D01*
X105350532Y-117305653D01*
X105350532Y-117147969D01*
X105350532Y-117147966D01*
X105350531Y-117147964D01*
X105319770Y-116993321D01*
X105319769Y-116993314D01*
X105319767Y-116993309D01*
X105259429Y-116847638D01*
X105259422Y-116847625D01*
X105171821Y-116716522D01*
X105171818Y-116716518D01*
X105101980Y-116646680D01*
X105068495Y-116585357D01*
X105073479Y-116515665D01*
X105115351Y-116459732D01*
X105180815Y-116435315D01*
X105189661Y-116434999D01*
X105192926Y-116434999D01*
X105192947Y-116434998D01*
X105229210Y-116432145D01*
X105384496Y-116387030D01*
X105523674Y-116304721D01*
X105523683Y-116304714D01*
X105638011Y-116190386D01*
X105640537Y-116187130D01*
X105643169Y-116185228D01*
X105643536Y-116184862D01*
X105643595Y-116184921D01*
X105697176Y-116146218D01*
X105766943Y-116142421D01*
X105826205Y-116175440D01*
X106015139Y-116364374D01*
X106015149Y-116364385D01*
X106019479Y-116368715D01*
X106019480Y-116368716D01*
X106131284Y-116480520D01*
X106192159Y-116515665D01*
X106218095Y-116530639D01*
X106218097Y-116530641D01*
X106256151Y-116552611D01*
X106268215Y-116559577D01*
X106420943Y-116600500D01*
X107287302Y-116600500D01*
X107354341Y-116620185D01*
X107400096Y-116672989D01*
X107410040Y-116742147D01*
X107381015Y-116805703D01*
X107374983Y-116812181D01*
X106547781Y-117639382D01*
X106547775Y-117639390D01*
X106509197Y-117706211D01*
X106509197Y-117706213D01*
X106468723Y-117776314D01*
X106460761Y-117806030D01*
X106427799Y-117929043D01*
X106427799Y-117929045D01*
X106427799Y-118097146D01*
X106427800Y-118097159D01*
X106427800Y-118958333D01*
X106408115Y-119025372D01*
X106391481Y-119046014D01*
X106378187Y-119059307D01*
X106378181Y-119059315D01*
X106295805Y-119198606D01*
X106295804Y-119198609D01*
X106250657Y-119354002D01*
X106250656Y-119354008D01*
X106247800Y-119390302D01*
X106247800Y-119859697D01*
X106250656Y-119895991D01*
X106250657Y-119895997D01*
X106295804Y-120051390D01*
X106295805Y-120051393D01*
X106378181Y-120190684D01*
X106378187Y-120190692D01*
X106492607Y-120305112D01*
X106492611Y-120305115D01*
X106492613Y-120305117D01*
X106631905Y-120387494D01*
X106672887Y-120399400D01*
X106787302Y-120432642D01*
X106787305Y-120432642D01*
X106787307Y-120432643D01*
X106823610Y-120435500D01*
X106823618Y-120435500D01*
X107232982Y-120435500D01*
X107232990Y-120435500D01*
X107269293Y-120432643D01*
X107269295Y-120432642D01*
X107269297Y-120432642D01*
X107310275Y-120420736D01*
X107424695Y-120387494D01*
X107445669Y-120375089D01*
X107513388Y-120357906D01*
X107571913Y-120375090D01*
X107592103Y-120387031D01*
X107738300Y-120429504D01*
X107738300Y-120429503D01*
X108238300Y-120429503D01*
X108384495Y-120387031D01*
X108523674Y-120304721D01*
X108523683Y-120304714D01*
X108638014Y-120190383D01*
X108638021Y-120190374D01*
X108720331Y-120051195D01*
X108720333Y-120051190D01*
X108765444Y-119895918D01*
X108765445Y-119895912D01*
X108767091Y-119875000D01*
X112249510Y-119875000D01*
X112251154Y-119895910D01*
X112296268Y-120051195D01*
X112378578Y-120190374D01*
X112378585Y-120190383D01*
X112492916Y-120304714D01*
X112492925Y-120304721D01*
X112632104Y-120387031D01*
X112778300Y-120429504D01*
X112778300Y-119875000D01*
X112249510Y-119875000D01*
X108767091Y-119875000D01*
X108238300Y-119875000D01*
X108238300Y-120429503D01*
X107738300Y-120429503D01*
X107738300Y-120123352D01*
X107755567Y-120060233D01*
X107760794Y-120051395D01*
X107798135Y-119922870D01*
X107805942Y-119895997D01*
X107805943Y-119895991D01*
X107805949Y-119895912D01*
X107808800Y-119859690D01*
X107808800Y-119390310D01*
X107805943Y-119354007D01*
X107794940Y-119316136D01*
X107760795Y-119198608D01*
X107760792Y-119198600D01*
X107755566Y-119189763D01*
X107738300Y-119126645D01*
X107738300Y-118820494D01*
X107719038Y-118806032D01*
X107717519Y-118806028D01*
X107658851Y-118768082D01*
X107630011Y-118704442D01*
X107628800Y-118687153D01*
X107628800Y-118308197D01*
X107648485Y-118241158D01*
X107665119Y-118220516D01*
X107853121Y-118032514D01*
X108046121Y-117839513D01*
X108107442Y-117806030D01*
X108177133Y-117811014D01*
X108233067Y-117852885D01*
X108257484Y-117918350D01*
X108257800Y-117927196D01*
X108257801Y-118572868D01*
X108257801Y-118572876D01*
X108264209Y-118632485D01*
X108280932Y-118677323D01*
X108285916Y-118747015D01*
X108252430Y-118808338D01*
X108239203Y-118819815D01*
X108238300Y-118820493D01*
X108238300Y-119375000D01*
X108767090Y-119375000D01*
X108765445Y-119354089D01*
X108720332Y-119198808D01*
X108720309Y-119198754D01*
X108720303Y-119198707D01*
X108718155Y-119191313D01*
X108719347Y-119190966D01*
X108711745Y-119129411D01*
X108742030Y-119066446D01*
X108801549Y-119029850D01*
X108834100Y-119025499D01*
X109806172Y-119025499D01*
X109865783Y-119019091D01*
X110000631Y-118968796D01*
X110115846Y-118882546D01*
X110115847Y-118882543D01*
X110116793Y-118881836D01*
X110182257Y-118857418D01*
X110250530Y-118872269D01*
X110278786Y-118893421D01*
X110624939Y-119239574D01*
X110624949Y-119239585D01*
X110629279Y-119243915D01*
X110629280Y-119243916D01*
X110741084Y-119355720D01*
X110741086Y-119355721D01*
X110741090Y-119355724D01*
X110814092Y-119397871D01*
X110878016Y-119434777D01*
X110989819Y-119464734D01*
X111030742Y-119475700D01*
X111030743Y-119475700D01*
X112904300Y-119475700D01*
X112971339Y-119495385D01*
X112983594Y-119504367D01*
X113163094Y-119653667D01*
X113178502Y-119676609D01*
X113196594Y-119697489D01*
X113198543Y-119706452D01*
X113202048Y-119711670D01*
X113202290Y-119723673D01*
X113207800Y-119749000D01*
X113207800Y-119859697D01*
X113210656Y-119895991D01*
X113210657Y-119895997D01*
X113255803Y-120051389D01*
X113255805Y-120051393D01*
X113255806Y-120051395D01*
X113261032Y-120060233D01*
X113278300Y-120123352D01*
X113278300Y-120429503D01*
X113424494Y-120387032D01*
X113444684Y-120375091D01*
X113512408Y-120357906D01*
X113570929Y-120375089D01*
X113591905Y-120387494D01*
X113632887Y-120399400D01*
X113747302Y-120432642D01*
X113747305Y-120432642D01*
X113747307Y-120432643D01*
X113783610Y-120435500D01*
X113783618Y-120435500D01*
X114192982Y-120435500D01*
X114192990Y-120435500D01*
X114229293Y-120432643D01*
X114229295Y-120432642D01*
X114229297Y-120432642D01*
X114270275Y-120420736D01*
X114384695Y-120387494D01*
X114523987Y-120305117D01*
X114638417Y-120190687D01*
X114720794Y-120051395D01*
X114765943Y-119895993D01*
X114768800Y-119859690D01*
X114768800Y-119390310D01*
X114765943Y-119354007D01*
X114755543Y-119318209D01*
X114727349Y-119221164D01*
X114727347Y-119221160D01*
X114720794Y-119198605D01*
X114708092Y-119177127D01*
X123407800Y-119177127D01*
X123407800Y-119177134D01*
X123407800Y-119177135D01*
X123407800Y-119922870D01*
X123407801Y-119922876D01*
X123414208Y-119982483D01*
X123464502Y-120117328D01*
X123464506Y-120117335D01*
X123550752Y-120232544D01*
X123550755Y-120232547D01*
X123665964Y-120318793D01*
X123665971Y-120318797D01*
X123800817Y-120369091D01*
X123800816Y-120369091D01*
X123807744Y-120369835D01*
X123860427Y-120375500D01*
X125006172Y-120375499D01*
X125065783Y-120369091D01*
X125200631Y-120318796D01*
X125315846Y-120232546D01*
X125340068Y-120200190D01*
X125396001Y-120158318D01*
X125439335Y-120150500D01*
X127577265Y-120150500D01*
X127644304Y-120170185D01*
X127676532Y-120200190D01*
X127700749Y-120232541D01*
X127700752Y-120232544D01*
X127700754Y-120232546D01*
X127700757Y-120232548D01*
X127815964Y-120318793D01*
X127815971Y-120318797D01*
X127950817Y-120369091D01*
X127950816Y-120369091D01*
X127957744Y-120369835D01*
X128010427Y-120375500D01*
X128685500Y-120375499D01*
X128752539Y-120395183D01*
X128798294Y-120447987D01*
X128809500Y-120499499D01*
X128809500Y-121576000D01*
X128789815Y-121643039D01*
X128737011Y-121688794D01*
X128703384Y-121698704D01*
X128523622Y-121724904D01*
X128521107Y-121724547D01*
X128505738Y-121726200D01*
X127213941Y-121726200D01*
X127146902Y-121706515D01*
X127126260Y-121689881D01*
X127120792Y-121684413D01*
X127120788Y-121684410D01*
X126989685Y-121596809D01*
X126989672Y-121596802D01*
X126844001Y-121536464D01*
X126843989Y-121536461D01*
X126689345Y-121505700D01*
X126689342Y-121505700D01*
X126531658Y-121505700D01*
X126531655Y-121505700D01*
X126377010Y-121536461D01*
X126376998Y-121536464D01*
X126231327Y-121596802D01*
X126231314Y-121596809D01*
X126100211Y-121684410D01*
X126100207Y-121684413D01*
X125988713Y-121795907D01*
X125988710Y-121795911D01*
X125901109Y-121927014D01*
X125901102Y-121927027D01*
X125840764Y-122072698D01*
X125840761Y-122072710D01*
X125810000Y-122227353D01*
X125810000Y-122385046D01*
X125840761Y-122539689D01*
X125840764Y-122539701D01*
X125901102Y-122685372D01*
X125901109Y-122685385D01*
X125988710Y-122816488D01*
X125988713Y-122816492D01*
X126100207Y-122927986D01*
X126100211Y-122927989D01*
X126231314Y-123015590D01*
X126231327Y-123015597D01*
X126376998Y-123075935D01*
X126377003Y-123075937D01*
X126531653Y-123106699D01*
X126531656Y-123106700D01*
X126531658Y-123106700D01*
X126689344Y-123106700D01*
X126689345Y-123106699D01*
X126843997Y-123075937D01*
X126989679Y-123015594D01*
X127090694Y-122948098D01*
X127157371Y-122927220D01*
X127159585Y-122927200D01*
X129152331Y-122927200D01*
X129152347Y-122927201D01*
X129159943Y-122927201D01*
X129318054Y-122927201D01*
X129318057Y-122927201D01*
X129470785Y-122886277D01*
X129520904Y-122857339D01*
X129607716Y-122807220D01*
X129719520Y-122695416D01*
X129719520Y-122695415D01*
X129736960Y-122677975D01*
X129736962Y-122677972D01*
X129890517Y-122524419D01*
X129890517Y-122524418D01*
X129890520Y-122524416D01*
X129969577Y-122387484D01*
X130010501Y-122234757D01*
X130010501Y-122076642D01*
X130010501Y-122069047D01*
X130010500Y-122069029D01*
X130010500Y-119470945D01*
X130010500Y-119470943D01*
X129969577Y-119318216D01*
X129962014Y-119305117D01*
X129890524Y-119181290D01*
X129890518Y-119181282D01*
X129778717Y-119069481D01*
X129778709Y-119069475D01*
X129641790Y-118990426D01*
X129641786Y-118990424D01*
X129641784Y-118990423D01*
X129641782Y-118990422D01*
X129641781Y-118990422D01*
X129578303Y-118973412D01*
X129518643Y-118937046D01*
X129511132Y-118927949D01*
X129465846Y-118867454D01*
X129403116Y-118820494D01*
X129350635Y-118781206D01*
X129350628Y-118781202D01*
X129215782Y-118730908D01*
X129215783Y-118730908D01*
X129156183Y-118724501D01*
X129156181Y-118724500D01*
X129156173Y-118724500D01*
X129156164Y-118724500D01*
X128010429Y-118724500D01*
X128010423Y-118724501D01*
X127950816Y-118730908D01*
X127815971Y-118781202D01*
X127815964Y-118781206D01*
X127700757Y-118867451D01*
X127700749Y-118867458D01*
X127676532Y-118899810D01*
X127620599Y-118941682D01*
X127577265Y-118949500D01*
X125439335Y-118949500D01*
X125372296Y-118929815D01*
X125340068Y-118899810D01*
X125315850Y-118867458D01*
X125315847Y-118867455D01*
X125315846Y-118867454D01*
X125302440Y-118857418D01*
X125200635Y-118781206D01*
X125200628Y-118781202D01*
X125065782Y-118730908D01*
X125065783Y-118730908D01*
X125006183Y-118724501D01*
X125006181Y-118724500D01*
X125006173Y-118724500D01*
X125006164Y-118724500D01*
X123860429Y-118724500D01*
X123860423Y-118724501D01*
X123800816Y-118730908D01*
X123665971Y-118781202D01*
X123665964Y-118781206D01*
X123550755Y-118867452D01*
X123550752Y-118867455D01*
X123464506Y-118982664D01*
X123464502Y-118982671D01*
X123414210Y-119117513D01*
X123414209Y-119117517D01*
X123407800Y-119177127D01*
X114708092Y-119177127D01*
X114653749Y-119085239D01*
X114652632Y-119083175D01*
X114645797Y-119051217D01*
X114637758Y-119019529D01*
X114638518Y-119017178D01*
X114638021Y-119014850D01*
X114646881Y-118991346D01*
X114658571Y-118955241D01*
X114688661Y-118910208D01*
X114709394Y-118879179D01*
X114714252Y-118867452D01*
X114749977Y-118781202D01*
X114769737Y-118733497D01*
X114800500Y-118578842D01*
X114800500Y-118421158D01*
X114800500Y-118421155D01*
X114800499Y-118421153D01*
X114791764Y-118377240D01*
X114769737Y-118266503D01*
X114769441Y-118265789D01*
X114709397Y-118120827D01*
X114709390Y-118120814D01*
X114621789Y-117989711D01*
X114621786Y-117989707D01*
X114510292Y-117878213D01*
X114510288Y-117878210D01*
X114379185Y-117790609D01*
X114379172Y-117790602D01*
X114233501Y-117730264D01*
X114233489Y-117730261D01*
X114078845Y-117699500D01*
X114078842Y-117699500D01*
X113921158Y-117699500D01*
X113921155Y-117699500D01*
X113766510Y-117730261D01*
X113766498Y-117730264D01*
X113620827Y-117790602D01*
X113620814Y-117790609D01*
X113489711Y-117878210D01*
X113489707Y-117878213D01*
X113378213Y-117989707D01*
X113378210Y-117989711D01*
X113290609Y-118120814D01*
X113290604Y-118120823D01*
X113258574Y-118198153D01*
X113214733Y-118252556D01*
X113148439Y-118274621D01*
X113144013Y-118274700D01*
X112882800Y-118274700D01*
X112815761Y-118255015D01*
X112770006Y-118202211D01*
X112758800Y-118150700D01*
X112758799Y-116677129D01*
X112758798Y-116677123D01*
X112757735Y-116667236D01*
X112752391Y-116617517D01*
X112750551Y-116612585D01*
X112702097Y-116482671D01*
X112702093Y-116482664D01*
X112615847Y-116367455D01*
X112615844Y-116367452D01*
X112500635Y-116281206D01*
X112500628Y-116281202D01*
X112439467Y-116258391D01*
X112383533Y-116216520D01*
X112359116Y-116151056D01*
X112358800Y-116142209D01*
X112358800Y-115875000D01*
X115249510Y-115875000D01*
X115251154Y-115895910D01*
X115296268Y-116051195D01*
X115378578Y-116190374D01*
X115378585Y-116190383D01*
X115492916Y-116304714D01*
X115492925Y-116304721D01*
X115632104Y-116387031D01*
X115778300Y-116429504D01*
X115778300Y-115875000D01*
X115249510Y-115875000D01*
X112358800Y-115875000D01*
X112358800Y-115374999D01*
X115249509Y-115374999D01*
X115249510Y-115375000D01*
X115778300Y-115375000D01*
X115778300Y-114820494D01*
X115778298Y-114820493D01*
X115632109Y-114862965D01*
X115632106Y-114862967D01*
X115492925Y-114945278D01*
X115492916Y-114945285D01*
X115378585Y-115059616D01*
X115378578Y-115059625D01*
X115296268Y-115198804D01*
X115296266Y-115198809D01*
X115251155Y-115354081D01*
X115251154Y-115354087D01*
X115249509Y-115374999D01*
X112358800Y-115374999D01*
X112358800Y-115347359D01*
X112358801Y-115347346D01*
X112358801Y-115179245D01*
X112358801Y-115179243D01*
X112350746Y-115149181D01*
X112351169Y-115131390D01*
X112346555Y-115114204D01*
X112351983Y-115097189D01*
X112352409Y-115079334D01*
X112362384Y-115064595D01*
X112367794Y-115047641D01*
X112381559Y-115036262D01*
X112391571Y-115021471D01*
X112407944Y-115014454D01*
X112421649Y-115003127D01*
X112455734Y-114993975D01*
X112489864Y-114989877D01*
X112489865Y-114989876D01*
X112493515Y-114989438D01*
X112523085Y-114989438D01*
X112526734Y-114989876D01*
X112526736Y-114989877D01*
X112599121Y-114998569D01*
X112615197Y-115000500D01*
X112615198Y-115000500D01*
X112801403Y-115000500D01*
X112817478Y-114998569D01*
X112889864Y-114989877D01*
X112889865Y-114989876D01*
X112893515Y-114989438D01*
X112923085Y-114989438D01*
X112926734Y-114989876D01*
X112926736Y-114989877D01*
X112999121Y-114998569D01*
X113015197Y-115000500D01*
X113015198Y-115000500D01*
X113201397Y-115000500D01*
X113201402Y-115000500D01*
X113289864Y-114989877D01*
X113430642Y-114934361D01*
X113551222Y-114842922D01*
X113642661Y-114722342D01*
X113698177Y-114581564D01*
X113708800Y-114493102D01*
X113708800Y-113949500D01*
X113728485Y-113882461D01*
X113781289Y-113836706D01*
X113832800Y-113825500D01*
X114376397Y-113825500D01*
X114376402Y-113825500D01*
X114464864Y-113814877D01*
X114605642Y-113759361D01*
X114726222Y-113667922D01*
X114817661Y-113547342D01*
X114827989Y-113521153D01*
X114834750Y-113504010D01*
X114877656Y-113448866D01*
X114943564Y-113425673D01*
X114950104Y-113425500D01*
X116024903Y-113425500D01*
X116091942Y-113445185D01*
X116112584Y-113461819D01*
X117253583Y-114602819D01*
X117287068Y-114664142D01*
X117282084Y-114733834D01*
X117240212Y-114789767D01*
X117174748Y-114814184D01*
X117165902Y-114814500D01*
X116783602Y-114814500D01*
X116747308Y-114817356D01*
X116747302Y-114817357D01*
X116591909Y-114862504D01*
X116591904Y-114862506D01*
X116570928Y-114874911D01*
X116503203Y-114892092D01*
X116444689Y-114874911D01*
X116424491Y-114862966D01*
X116424490Y-114862965D01*
X116278301Y-114820493D01*
X116278300Y-114820494D01*
X116278300Y-115126645D01*
X116261034Y-115189763D01*
X116255807Y-115198600D01*
X116255804Y-115198608D01*
X116210657Y-115354002D01*
X116210656Y-115354008D01*
X116207800Y-115390302D01*
X116207800Y-115859697D01*
X116210656Y-115895991D01*
X116210657Y-115895997D01*
X116255803Y-116051389D01*
X116255805Y-116051393D01*
X116255806Y-116051395D01*
X116261032Y-116060233D01*
X116278300Y-116123352D01*
X116278300Y-116429503D01*
X116424494Y-116387032D01*
X116444684Y-116375091D01*
X116512408Y-116357906D01*
X116570929Y-116375089D01*
X116591905Y-116387494D01*
X116605573Y-116391465D01*
X116747302Y-116432642D01*
X116747305Y-116432642D01*
X116747307Y-116432643D01*
X116783610Y-116435500D01*
X116898203Y-116435500D01*
X116927643Y-116444144D01*
X116957630Y-116450668D01*
X116962645Y-116454422D01*
X116965242Y-116455185D01*
X116985883Y-116471818D01*
X117126639Y-116612574D01*
X117126649Y-116612585D01*
X117130979Y-116616915D01*
X117130980Y-116616916D01*
X117191743Y-116677679D01*
X117225227Y-116739000D01*
X117225678Y-116789550D01*
X117199500Y-116921153D01*
X117199500Y-117078846D01*
X117230261Y-117233489D01*
X117230264Y-117233501D01*
X117290602Y-117379172D01*
X117290609Y-117379185D01*
X117378210Y-117510288D01*
X117378213Y-117510292D01*
X117489707Y-117621786D01*
X117489711Y-117621789D01*
X117620814Y-117709390D01*
X117620827Y-117709397D01*
X117739106Y-117758389D01*
X117766503Y-117769737D01*
X117918363Y-117799944D01*
X117921153Y-117800499D01*
X117921156Y-117800500D01*
X117921158Y-117800500D01*
X118078844Y-117800500D01*
X118078845Y-117800499D01*
X118233497Y-117769737D01*
X118379179Y-117709394D01*
X118510289Y-117621789D01*
X118621789Y-117510289D01*
X118709394Y-117379179D01*
X118769737Y-117233497D01*
X118800500Y-117078842D01*
X118800500Y-116972700D01*
X118820185Y-116905661D01*
X118872989Y-116859906D01*
X118924500Y-116848700D01*
X119909243Y-116848700D01*
X122278431Y-116848700D01*
X122278447Y-116848701D01*
X122286043Y-116848701D01*
X122444154Y-116848701D01*
X122444157Y-116848701D01*
X122596885Y-116807777D01*
X122668373Y-116766503D01*
X122703384Y-116746290D01*
X122733809Y-116728724D01*
X122733808Y-116728724D01*
X122733816Y-116728720D01*
X122845620Y-116616916D01*
X122845620Y-116616914D01*
X122855820Y-116606715D01*
X122855823Y-116606710D01*
X122990717Y-116471817D01*
X123052040Y-116438334D01*
X123078397Y-116435500D01*
X123192982Y-116435500D01*
X123192990Y-116435500D01*
X123229293Y-116432643D01*
X123229295Y-116432642D01*
X123229297Y-116432642D01*
X123270275Y-116420736D01*
X123384695Y-116387494D01*
X123523987Y-116305117D01*
X123567284Y-116261820D01*
X123594212Y-116247115D01*
X123620031Y-116230523D01*
X123626230Y-116229631D01*
X123628607Y-116228334D01*
X123654966Y-116225500D01*
X123901631Y-116225500D01*
X123901647Y-116225501D01*
X123909243Y-116225501D01*
X124067354Y-116225501D01*
X124067357Y-116225501D01*
X124220085Y-116184577D01*
X124297147Y-116140085D01*
X124357016Y-116105520D01*
X124468820Y-115993716D01*
X124468820Y-115993714D01*
X124479024Y-115983511D01*
X124479027Y-115983506D01*
X128990716Y-111471819D01*
X129052039Y-111438334D01*
X129078397Y-111435500D01*
X129192982Y-111435500D01*
X129192990Y-111435500D01*
X129229293Y-111432643D01*
X129229295Y-111432642D01*
X129229297Y-111432642D01*
X129270275Y-111420736D01*
X129384695Y-111387494D01*
X129523987Y-111305117D01*
X129638417Y-111190687D01*
X129720794Y-111051395D01*
X129759521Y-110918096D01*
X129765942Y-110895997D01*
X129765943Y-110895991D01*
X129768800Y-110859690D01*
X129768800Y-110390310D01*
X129765943Y-110354007D01*
X129764469Y-110348934D01*
X129720795Y-110198608D01*
X129720794Y-110198607D01*
X129720794Y-110198605D01*
X129710365Y-110180971D01*
X129693100Y-110117853D01*
X129693100Y-106179595D01*
X129710368Y-106116474D01*
X129741169Y-106064393D01*
X129785965Y-105910204D01*
X129788800Y-105874181D01*
X129788799Y-105755095D01*
X129808483Y-105688057D01*
X129825113Y-105667420D01*
X135187821Y-100304713D01*
X135249142Y-100271230D01*
X135318834Y-100276214D01*
X135374767Y-100318086D01*
X135399184Y-100383550D01*
X135399500Y-100392396D01*
X135399500Y-104163273D01*
X135399499Y-104163291D01*
X135399499Y-104328997D01*
X135399498Y-104328997D01*
X135440423Y-104481728D01*
X135462219Y-104519480D01*
X135462221Y-104519482D01*
X135519479Y-104618657D01*
X135519481Y-104618660D01*
X135638349Y-104737528D01*
X135638355Y-104737533D01*
X139366196Y-108465374D01*
X139366206Y-108465385D01*
X139370536Y-108469715D01*
X139370537Y-108469716D01*
X139482341Y-108581520D01*
X139558519Y-108625501D01*
X139619272Y-108660577D01*
X139772000Y-108701501D01*
X139772003Y-108701501D01*
X139937710Y-108701501D01*
X139937726Y-108701500D01*
X140577098Y-108701500D01*
X140624550Y-108710939D01*
X140707301Y-108745215D01*
X140766503Y-108769737D01*
X140921153Y-108800499D01*
X140921156Y-108800500D01*
X140921158Y-108800500D01*
X141078844Y-108800500D01*
X141078845Y-108800499D01*
X141233497Y-108769737D01*
X141379179Y-108709394D01*
X141510289Y-108621789D01*
X141621789Y-108510289D01*
X141709394Y-108379179D01*
X141769737Y-108233497D01*
X141800500Y-108078842D01*
X141800500Y-107921158D01*
X141800500Y-107921155D01*
X141800499Y-107921153D01*
X141769738Y-107766510D01*
X141769737Y-107766503D01*
X141717088Y-107639396D01*
X141709397Y-107620827D01*
X141709390Y-107620814D01*
X141621789Y-107489711D01*
X141621786Y-107489707D01*
X141510292Y-107378213D01*
X141510288Y-107378210D01*
X141379185Y-107290609D01*
X141379172Y-107290602D01*
X141233501Y-107230264D01*
X141233489Y-107230261D01*
X141078845Y-107199500D01*
X141078842Y-107199500D01*
X140924838Y-107199500D01*
X140857799Y-107179815D01*
X140820692Y-107142803D01*
X140814584Y-107133351D01*
X140809394Y-107120821D01*
X140721789Y-106989711D01*
X140721703Y-106989625D01*
X140720354Y-106987537D01*
X140710673Y-106954873D01*
X140700520Y-106922447D01*
X140700502Y-106920556D01*
X140700500Y-106920547D01*
X140700502Y-106920537D01*
X140700500Y-106920234D01*
X140700500Y-64224446D01*
X140700501Y-64224433D01*
X140700501Y-64056330D01*
X140659576Y-63903600D01*
X140659573Y-63903595D01*
X140580524Y-63766676D01*
X140580518Y-63766668D01*
X130676204Y-53862355D01*
X130676202Y-53862352D01*
X130557331Y-53743481D01*
X130557330Y-53743480D01*
X130470518Y-53693360D01*
X130470518Y-53693359D01*
X130470514Y-53693358D01*
X130420399Y-53664423D01*
X130267671Y-53623499D01*
X130109557Y-53623499D01*
X130101961Y-53623499D01*
X130101945Y-53623500D01*
X129107043Y-53623500D01*
X128948928Y-53623500D01*
X128796201Y-53664423D01*
X128796200Y-53664423D01*
X128796198Y-53664424D01*
X128796195Y-53664425D01*
X128746082Y-53693359D01*
X128746081Y-53693360D01*
X128702675Y-53718420D01*
X128659271Y-53743479D01*
X128659268Y-53743481D01*
X127726781Y-54675968D01*
X127726777Y-54675973D01*
X127710298Y-54704518D01*
X127710297Y-54704520D01*
X127647723Y-54812901D01*
X127606799Y-54965629D01*
X127606799Y-54965631D01*
X127606799Y-55133732D01*
X127606800Y-55133745D01*
X127606800Y-58383409D01*
X127606799Y-58383413D01*
X127606799Y-58465444D01*
X127587114Y-58532484D01*
X127534309Y-58578238D01*
X127534169Y-58578258D01*
X127466614Y-58588382D01*
X127209261Y-58554501D01*
X127209256Y-58554500D01*
X127209251Y-58554500D01*
X126927349Y-58554500D01*
X126927341Y-58554500D01*
X126647860Y-58591295D01*
X126375556Y-58664259D01*
X126115120Y-58772135D01*
X126115109Y-58772140D01*
X125870990Y-58913083D01*
X125870984Y-58913087D01*
X125870983Y-58913088D01*
X125808785Y-58960814D01*
X125647329Y-59084704D01*
X125448004Y-59284029D01*
X125276389Y-59507682D01*
X125276383Y-59507690D01*
X125135440Y-59751809D01*
X125135435Y-59751820D01*
X125027559Y-60012256D01*
X124954595Y-60284560D01*
X124917800Y-60564041D01*
X124917800Y-60845958D01*
X124954595Y-61125439D01*
X125027559Y-61397743D01*
X125135435Y-61658179D01*
X125135440Y-61658190D01*
X125276383Y-61902309D01*
X125276388Y-61902317D01*
X125411841Y-62078842D01*
X125448004Y-62125970D01*
X125647329Y-62325295D01*
X125647333Y-62325298D01*
X125647335Y-62325300D01*
X125870983Y-62496912D01*
X125870990Y-62496916D01*
X126115109Y-62637859D01*
X126115114Y-62637861D01*
X126115117Y-62637863D01*
X126375561Y-62745742D01*
X126647858Y-62818704D01*
X126927349Y-62855500D01*
X126927356Y-62855500D01*
X127209244Y-62855500D01*
X127209251Y-62855500D01*
X127488742Y-62818704D01*
X127761039Y-62745742D01*
X128021483Y-62637863D01*
X128265617Y-62496912D01*
X128489265Y-62325300D01*
X128688600Y-62125965D01*
X128860212Y-61902317D01*
X129001163Y-61658183D01*
X129109042Y-61397739D01*
X129182004Y-61125442D01*
X129218800Y-60845951D01*
X129218800Y-60622567D01*
X129238485Y-60555528D01*
X129291289Y-60509773D01*
X129360447Y-60499829D01*
X129424003Y-60528854D01*
X129430481Y-60534886D01*
X129863181Y-60967586D01*
X129896666Y-61028909D01*
X129899500Y-61055267D01*
X129899500Y-70420234D01*
X129879815Y-70487273D01*
X129878602Y-70489125D01*
X129790609Y-70620814D01*
X129790602Y-70620827D01*
X129730264Y-70766498D01*
X129730261Y-70766510D01*
X129699500Y-70921153D01*
X129699500Y-71078846D01*
X129730261Y-71233489D01*
X129730264Y-71233501D01*
X129790602Y-71379172D01*
X129790609Y-71379185D01*
X129878210Y-71510288D01*
X129878213Y-71510292D01*
X129989707Y-71621786D01*
X129989711Y-71621789D01*
X130120814Y-71709390D01*
X130120827Y-71709397D01*
X130266498Y-71769735D01*
X130266503Y-71769737D01*
X130421153Y-71800499D01*
X130421156Y-71800500D01*
X130421158Y-71800500D01*
X130578844Y-71800500D01*
X130578845Y-71800499D01*
X130733497Y-71769737D01*
X130879179Y-71709394D01*
X131010289Y-71621789D01*
X131121789Y-71510289D01*
X131209394Y-71379179D01*
X131269737Y-71233497D01*
X131300500Y-71078842D01*
X131300500Y-70921158D01*
X131300500Y-70921155D01*
X131300499Y-70921153D01*
X131269738Y-70766510D01*
X131269737Y-70766503D01*
X131269735Y-70766498D01*
X131209397Y-70620827D01*
X131209390Y-70620814D01*
X131121398Y-70489125D01*
X131100520Y-70422447D01*
X131100500Y-70420234D01*
X131100500Y-61346482D01*
X131120185Y-61279443D01*
X131172989Y-61233688D01*
X131242147Y-61223744D01*
X131305703Y-61252769D01*
X131327600Y-61277589D01*
X131354187Y-61317379D01*
X131371162Y-61342784D01*
X131510514Y-61482136D01*
X131510518Y-61482139D01*
X131674379Y-61591628D01*
X131674392Y-61591635D01*
X131835072Y-61658190D01*
X131856465Y-61667051D01*
X131856469Y-61667051D01*
X131856470Y-61667052D01*
X132049756Y-61705500D01*
X132049759Y-61705500D01*
X132246843Y-61705500D01*
X132376882Y-61679632D01*
X132440135Y-61667051D01*
X132622214Y-61591632D01*
X132786082Y-61482139D01*
X132925439Y-61342782D01*
X133034932Y-61178914D01*
X133110351Y-60996835D01*
X133140364Y-60845951D01*
X133148800Y-60803543D01*
X133148800Y-60606456D01*
X133110352Y-60413170D01*
X133110351Y-60413169D01*
X133110351Y-60413165D01*
X133099287Y-60386454D01*
X133034935Y-60231092D01*
X133034928Y-60231079D01*
X132925439Y-60067218D01*
X132925436Y-60067214D01*
X132786085Y-59927863D01*
X132786081Y-59927860D01*
X132622220Y-59818371D01*
X132622207Y-59818364D01*
X132440139Y-59742950D01*
X132440129Y-59742947D01*
X132246843Y-59704500D01*
X132246841Y-59704500D01*
X132049759Y-59704500D01*
X132049757Y-59704500D01*
X131856470Y-59742947D01*
X131856460Y-59742950D01*
X131674392Y-59818364D01*
X131674379Y-59818371D01*
X131510518Y-59927860D01*
X131510514Y-59927863D01*
X131371163Y-60067214D01*
X131371160Y-60067218D01*
X131261671Y-60231079D01*
X131261664Y-60231092D01*
X131202975Y-60372783D01*
X131159134Y-60427187D01*
X131092840Y-60449252D01*
X131025141Y-60431973D01*
X130998763Y-60410997D01*
X130988471Y-60400226D01*
X130980520Y-60386454D01*
X130868716Y-60274650D01*
X130868713Y-60274648D01*
X129977016Y-59382951D01*
X128844119Y-58250054D01*
X128810634Y-58188731D01*
X128807800Y-58162373D01*
X128807800Y-57215757D01*
X128827485Y-57148718D01*
X128880289Y-57102963D01*
X128949447Y-57093019D01*
X128988099Y-57105274D01*
X128993921Y-57108241D01*
X129233515Y-57186090D01*
X129482338Y-57225500D01*
X129482339Y-57225500D01*
X129734261Y-57225500D01*
X129734262Y-57225500D01*
X129983085Y-57186090D01*
X130222679Y-57108241D01*
X130447145Y-56993870D01*
X130650956Y-56845793D01*
X130829093Y-56667656D01*
X130977170Y-56463845D01*
X131091541Y-56239379D01*
X131093560Y-56233164D01*
X131132994Y-56175487D01*
X131197351Y-56148285D01*
X131266198Y-56160196D01*
X131299174Y-56183795D01*
X139463181Y-64347802D01*
X139496666Y-64409125D01*
X139499500Y-64435483D01*
X139499500Y-64850903D01*
X139479815Y-64917942D01*
X139427011Y-64963697D01*
X139357853Y-64973641D01*
X139294297Y-64944616D01*
X139287819Y-64938584D01*
X136334574Y-61985339D01*
X136301089Y-61924016D01*
X136300638Y-61921849D01*
X136269738Y-61766510D01*
X136269737Y-61766503D01*
X136244469Y-61705500D01*
X136209397Y-61620827D01*
X136209390Y-61620814D01*
X136121789Y-61489711D01*
X136121786Y-61489707D01*
X136010292Y-61378213D01*
X136010288Y-61378210D01*
X135879185Y-61290609D01*
X135879172Y-61290602D01*
X135733501Y-61230264D01*
X135733489Y-61230261D01*
X135578845Y-61199500D01*
X135578842Y-61199500D01*
X135421158Y-61199500D01*
X135421155Y-61199500D01*
X135266510Y-61230261D01*
X135266498Y-61230264D01*
X135120827Y-61290602D01*
X135120814Y-61290609D01*
X134989711Y-61378210D01*
X134989707Y-61378213D01*
X134878213Y-61489707D01*
X134878210Y-61489711D01*
X134790609Y-61620814D01*
X134790602Y-61620827D01*
X134730264Y-61766498D01*
X134730261Y-61766510D01*
X134699500Y-61921153D01*
X134699500Y-62078846D01*
X134730261Y-62233489D01*
X134730264Y-62233501D01*
X134790602Y-62379172D01*
X134790609Y-62379185D01*
X134878210Y-62510288D01*
X134878213Y-62510292D01*
X134989707Y-62621786D01*
X134989711Y-62621789D01*
X135120814Y-62709390D01*
X135120827Y-62709397D01*
X135266498Y-62769735D01*
X135266503Y-62769737D01*
X135331147Y-62782595D01*
X135421849Y-62800638D01*
X135483760Y-62833023D01*
X135485339Y-62834574D01*
X139031481Y-66380716D01*
X139064966Y-66442039D01*
X139067800Y-66468397D01*
X139067800Y-95729959D01*
X139048115Y-95796998D01*
X138995311Y-95842753D01*
X138926153Y-95852697D01*
X138862597Y-95823672D01*
X138856119Y-95817640D01*
X125296119Y-82257640D01*
X125262634Y-82196317D01*
X125259800Y-82169959D01*
X125259800Y-81287128D01*
X125279485Y-81220089D01*
X125332289Y-81174334D01*
X125401447Y-81164390D01*
X125465003Y-81193415D01*
X125471481Y-81199447D01*
X125647329Y-81375295D01*
X125647333Y-81375298D01*
X125647335Y-81375300D01*
X125870983Y-81546912D01*
X125870990Y-81546916D01*
X126115109Y-81687859D01*
X126115114Y-81687861D01*
X126115117Y-81687863D01*
X126375561Y-81795742D01*
X126647858Y-81868704D01*
X126927349Y-81905500D01*
X126927356Y-81905500D01*
X127209244Y-81905500D01*
X127209251Y-81905500D01*
X127488742Y-81868704D01*
X127761039Y-81795742D01*
X128021483Y-81687863D01*
X128265617Y-81546912D01*
X128489265Y-81375300D01*
X128688600Y-81175965D01*
X128860212Y-80952317D01*
X129001163Y-80708183D01*
X129109042Y-80447739D01*
X129182004Y-80175442D01*
X129218800Y-79895951D01*
X129218800Y-79853543D01*
X131147799Y-79853543D01*
X131186247Y-80046829D01*
X131186250Y-80046839D01*
X131261664Y-80228907D01*
X131261671Y-80228920D01*
X131371160Y-80392781D01*
X131371163Y-80392785D01*
X131510514Y-80532136D01*
X131510518Y-80532139D01*
X131674379Y-80641628D01*
X131674392Y-80641635D01*
X131835072Y-80708190D01*
X131856465Y-80717051D01*
X131856469Y-80717051D01*
X131856470Y-80717052D01*
X132049756Y-80755500D01*
X132049759Y-80755500D01*
X132246843Y-80755500D01*
X132376882Y-80729632D01*
X132440135Y-80717051D01*
X132622214Y-80641632D01*
X132786082Y-80532139D01*
X132925439Y-80392782D01*
X133034932Y-80228914D01*
X133110351Y-80046835D01*
X133140364Y-79895951D01*
X133148800Y-79853543D01*
X133148800Y-79656456D01*
X133110352Y-79463170D01*
X133110351Y-79463169D01*
X133110351Y-79463165D01*
X133087465Y-79407912D01*
X133034935Y-79281092D01*
X133034928Y-79281079D01*
X132925439Y-79117218D01*
X132925436Y-79117214D01*
X132786085Y-78977863D01*
X132786081Y-78977860D01*
X132622220Y-78868371D01*
X132622207Y-78868364D01*
X132440139Y-78792950D01*
X132440129Y-78792947D01*
X132246843Y-78754500D01*
X132246841Y-78754500D01*
X132049759Y-78754500D01*
X132049757Y-78754500D01*
X131856470Y-78792947D01*
X131856460Y-78792950D01*
X131674392Y-78868364D01*
X131674379Y-78868371D01*
X131510518Y-78977860D01*
X131510514Y-78977863D01*
X131371163Y-79117214D01*
X131371160Y-79117218D01*
X131261671Y-79281079D01*
X131261664Y-79281092D01*
X131186250Y-79463160D01*
X131186247Y-79463170D01*
X131147800Y-79656456D01*
X131147800Y-79656457D01*
X131147800Y-79656459D01*
X131147800Y-79853541D01*
X131147800Y-79853543D01*
X131147799Y-79853543D01*
X129218800Y-79853543D01*
X129218800Y-79614049D01*
X129182004Y-79334558D01*
X129109042Y-79062261D01*
X129001163Y-78801817D01*
X129001161Y-78801814D01*
X129001159Y-78801809D01*
X128860216Y-78557690D01*
X128860212Y-78557683D01*
X128688600Y-78334035D01*
X128688598Y-78334033D01*
X128688595Y-78334029D01*
X128489270Y-78134704D01*
X128414348Y-78077214D01*
X128265617Y-77963088D01*
X128265611Y-77963084D01*
X128265609Y-77963083D01*
X128021490Y-77822140D01*
X128021479Y-77822135D01*
X127761043Y-77714259D01*
X127488739Y-77641295D01*
X127209258Y-77604500D01*
X127209251Y-77604500D01*
X126927349Y-77604500D01*
X126927341Y-77604500D01*
X126647860Y-77641295D01*
X126375556Y-77714259D01*
X126115120Y-77822135D01*
X126115109Y-77822140D01*
X125870990Y-77963083D01*
X125870984Y-77963087D01*
X125870983Y-77963088D01*
X125808785Y-78010814D01*
X125647329Y-78134704D01*
X125471481Y-78310553D01*
X125410158Y-78344038D01*
X125340466Y-78339054D01*
X125284533Y-78297182D01*
X125260116Y-78231718D01*
X125259800Y-78222872D01*
X125259800Y-76555632D01*
X125259800Y-76555631D01*
X125259800Y-76555629D01*
X125242138Y-76489711D01*
X125218877Y-76402901D01*
X125154043Y-76290606D01*
X125139820Y-76265970D01*
X125028016Y-76154166D01*
X125028013Y-76154164D01*
X123422887Y-74549038D01*
X128007800Y-74549038D01*
X128007800Y-74800961D01*
X128047210Y-75049785D01*
X128125060Y-75289383D01*
X128239432Y-75513848D01*
X128387501Y-75717649D01*
X128387505Y-75717654D01*
X128565645Y-75895794D01*
X128565650Y-75895798D01*
X128743417Y-76024952D01*
X128769455Y-76043870D01*
X128912484Y-76116747D01*
X128993916Y-76158239D01*
X128993918Y-76158239D01*
X128993921Y-76158241D01*
X129233515Y-76236090D01*
X129482338Y-76275500D01*
X129482339Y-76275500D01*
X129734261Y-76275500D01*
X129734262Y-76275500D01*
X129983085Y-76236090D01*
X130222679Y-76158241D01*
X130447145Y-76043870D01*
X130650956Y-75895793D01*
X130829093Y-75717656D01*
X130977170Y-75513845D01*
X131091541Y-75289379D01*
X131169390Y-75049785D01*
X131208800Y-74800962D01*
X131208800Y-74549038D01*
X131169390Y-74300215D01*
X131091541Y-74060621D01*
X131091539Y-74060618D01*
X131091539Y-74060616D01*
X131050047Y-73979184D01*
X130977170Y-73836155D01*
X130856223Y-73669685D01*
X130829098Y-73632350D01*
X130829094Y-73632345D01*
X130650954Y-73454205D01*
X130650949Y-73454201D01*
X130447148Y-73306132D01*
X130447147Y-73306131D01*
X130447145Y-73306130D01*
X130377047Y-73270413D01*
X130222683Y-73191760D01*
X129983085Y-73113910D01*
X129734262Y-73074500D01*
X129482338Y-73074500D01*
X129357926Y-73094205D01*
X129233514Y-73113910D01*
X128993916Y-73191760D01*
X128769451Y-73306132D01*
X128565650Y-73454201D01*
X128565645Y-73454205D01*
X128387505Y-73632345D01*
X128387501Y-73632350D01*
X128239432Y-73836151D01*
X128125060Y-74060616D01*
X128047210Y-74300214D01*
X128007800Y-74549038D01*
X123422887Y-74549038D01*
X121384504Y-72510655D01*
X121384502Y-72510652D01*
X121265631Y-72391781D01*
X121265630Y-72391780D01*
X121178818Y-72341660D01*
X121178818Y-72341659D01*
X121178814Y-72341658D01*
X121128699Y-72312723D01*
X120975971Y-72271799D01*
X120817857Y-72271799D01*
X120810261Y-72271799D01*
X120810245Y-72271800D01*
X87598743Y-72271800D01*
X87440628Y-72271800D01*
X87287901Y-72312723D01*
X87287900Y-72312723D01*
X87287898Y-72312724D01*
X87287895Y-72312725D01*
X87237782Y-72341659D01*
X87237781Y-72341660D01*
X87194375Y-72366720D01*
X87150971Y-72391779D01*
X87150968Y-72391781D01*
X83390915Y-76151834D01*
X83390906Y-76151843D01*
X83388586Y-76154164D01*
X83388584Y-76154166D01*
X83276780Y-76265970D01*
X83262557Y-76290606D01*
X83197723Y-76402901D01*
X83156799Y-76555629D01*
X83156799Y-76555631D01*
X83156799Y-76723732D01*
X83156800Y-76723745D01*
X83156800Y-77708644D01*
X83156799Y-77708662D01*
X83156799Y-77874368D01*
X83156798Y-77874368D01*
X83156799Y-77874371D01*
X83197723Y-78027099D01*
X83213009Y-78053575D01*
X83226658Y-78077214D01*
X83226659Y-78077218D01*
X83226660Y-78077218D01*
X83276779Y-78164028D01*
X83276781Y-78164031D01*
X83395649Y-78282899D01*
X83395655Y-78282904D01*
X83690354Y-78577603D01*
X83723839Y-78638926D01*
X83718855Y-78708618D01*
X83676983Y-78764551D01*
X83626867Y-78786901D01*
X83596467Y-78792948D01*
X83596460Y-78792950D01*
X83414392Y-78868364D01*
X83414379Y-78868371D01*
X83250518Y-78977860D01*
X83250514Y-78977863D01*
X83111163Y-79117214D01*
X83111160Y-79117218D01*
X83001671Y-79281079D01*
X83001664Y-79281092D01*
X82926250Y-79463160D01*
X82926247Y-79463170D01*
X82887800Y-79656456D01*
X82887800Y-79656457D01*
X82887800Y-79656459D01*
X82887800Y-79853541D01*
X82887800Y-79853543D01*
X82887799Y-79853543D01*
X73008800Y-79853543D01*
X73008800Y-60803543D01*
X82887799Y-60803543D01*
X82926247Y-60996829D01*
X82926250Y-60996839D01*
X83001664Y-61178907D01*
X83001671Y-61178920D01*
X83111160Y-61342781D01*
X83111163Y-61342785D01*
X83250514Y-61482136D01*
X83250518Y-61482139D01*
X83414379Y-61591628D01*
X83414392Y-61591635D01*
X83575072Y-61658190D01*
X83596465Y-61667051D01*
X83596469Y-61667051D01*
X83596470Y-61667052D01*
X83789756Y-61705500D01*
X83789759Y-61705500D01*
X83986843Y-61705500D01*
X84116882Y-61679632D01*
X84180135Y-61667051D01*
X84362214Y-61591632D01*
X84526082Y-61482139D01*
X84665439Y-61342782D01*
X84774932Y-61178914D01*
X84850351Y-60996835D01*
X84880364Y-60845951D01*
X84888800Y-60803543D01*
X84888800Y-60606457D01*
X84884369Y-60584183D01*
X84884369Y-60584181D01*
X84880363Y-60564041D01*
X86817800Y-60564041D01*
X86817800Y-60845958D01*
X86854595Y-61125439D01*
X86927559Y-61397743D01*
X87035435Y-61658179D01*
X87035440Y-61658190D01*
X87176383Y-61902309D01*
X87176388Y-61902317D01*
X87311841Y-62078842D01*
X87348004Y-62125970D01*
X87547329Y-62325295D01*
X87547333Y-62325298D01*
X87547335Y-62325300D01*
X87770983Y-62496912D01*
X87770990Y-62496916D01*
X88015109Y-62637859D01*
X88015114Y-62637861D01*
X88015117Y-62637863D01*
X88275561Y-62745742D01*
X88547858Y-62818704D01*
X88827349Y-62855500D01*
X88827356Y-62855500D01*
X89109244Y-62855500D01*
X89109251Y-62855500D01*
X89388742Y-62818704D01*
X89661039Y-62745742D01*
X89921483Y-62637863D01*
X90165617Y-62496912D01*
X90389265Y-62325300D01*
X90588600Y-62125965D01*
X90760212Y-61902317D01*
X90901163Y-61658183D01*
X91009042Y-61397739D01*
X91082004Y-61125442D01*
X91118800Y-60845951D01*
X91118800Y-60803543D01*
X93047799Y-60803543D01*
X93086247Y-60996829D01*
X93086250Y-60996839D01*
X93161664Y-61178907D01*
X93161671Y-61178920D01*
X93271160Y-61342781D01*
X93271163Y-61342785D01*
X93410514Y-61482136D01*
X93410518Y-61482139D01*
X93574379Y-61591628D01*
X93574392Y-61591635D01*
X93735072Y-61658190D01*
X93756465Y-61667051D01*
X93756469Y-61667051D01*
X93756470Y-61667052D01*
X93949756Y-61705500D01*
X93949759Y-61705500D01*
X94146843Y-61705500D01*
X94276882Y-61679632D01*
X94340135Y-61667051D01*
X94522214Y-61591632D01*
X94686082Y-61482139D01*
X94825439Y-61342782D01*
X94934932Y-61178914D01*
X95010351Y-60996835D01*
X95040364Y-60845951D01*
X95048800Y-60803543D01*
X101937799Y-60803543D01*
X101976247Y-60996829D01*
X101976250Y-60996839D01*
X102051664Y-61178907D01*
X102051671Y-61178920D01*
X102161160Y-61342781D01*
X102161163Y-61342785D01*
X102300514Y-61482136D01*
X102300518Y-61482139D01*
X102464379Y-61591628D01*
X102464392Y-61591635D01*
X102625072Y-61658190D01*
X102646465Y-61667051D01*
X102646469Y-61667051D01*
X102646470Y-61667052D01*
X102839756Y-61705500D01*
X102839759Y-61705500D01*
X103036843Y-61705500D01*
X103166882Y-61679632D01*
X103230135Y-61667051D01*
X103412214Y-61591632D01*
X103576082Y-61482139D01*
X103715439Y-61342782D01*
X103824932Y-61178914D01*
X103900351Y-60996835D01*
X103930364Y-60845951D01*
X103938800Y-60803543D01*
X103938800Y-60606457D01*
X103934369Y-60584183D01*
X103934369Y-60584181D01*
X103930363Y-60564041D01*
X105867800Y-60564041D01*
X105867800Y-60845958D01*
X105904595Y-61125439D01*
X105977559Y-61397743D01*
X106085435Y-61658179D01*
X106085440Y-61658190D01*
X106226383Y-61902309D01*
X106226388Y-61902317D01*
X106361841Y-62078842D01*
X106398004Y-62125970D01*
X106597329Y-62325295D01*
X106597333Y-62325298D01*
X106597335Y-62325300D01*
X106820983Y-62496912D01*
X106820990Y-62496916D01*
X107065109Y-62637859D01*
X107065114Y-62637861D01*
X107065117Y-62637863D01*
X107325561Y-62745742D01*
X107597858Y-62818704D01*
X107877349Y-62855500D01*
X107877356Y-62855500D01*
X108159244Y-62855500D01*
X108159251Y-62855500D01*
X108438742Y-62818704D01*
X108711039Y-62745742D01*
X108971483Y-62637863D01*
X109215617Y-62496912D01*
X109439265Y-62325300D01*
X109638600Y-62125965D01*
X109810212Y-61902317D01*
X109951163Y-61658183D01*
X110059042Y-61397739D01*
X110132004Y-61125442D01*
X110168800Y-60845951D01*
X110168800Y-60803543D01*
X112097799Y-60803543D01*
X112136247Y-60996829D01*
X112136250Y-60996839D01*
X112211664Y-61178907D01*
X112211671Y-61178920D01*
X112321160Y-61342781D01*
X112321163Y-61342785D01*
X112460514Y-61482136D01*
X112460518Y-61482139D01*
X112624379Y-61591628D01*
X112624392Y-61591635D01*
X112785072Y-61658190D01*
X112806465Y-61667051D01*
X112806469Y-61667051D01*
X112806470Y-61667052D01*
X112999756Y-61705500D01*
X112999759Y-61705500D01*
X113196843Y-61705500D01*
X113326882Y-61679632D01*
X113390135Y-61667051D01*
X113572214Y-61591632D01*
X113736082Y-61482139D01*
X113875439Y-61342782D01*
X113984932Y-61178914D01*
X114060351Y-60996835D01*
X114090364Y-60845951D01*
X114098800Y-60803543D01*
X120987799Y-60803543D01*
X121026247Y-60996829D01*
X121026250Y-60996839D01*
X121101664Y-61178907D01*
X121101671Y-61178920D01*
X121211160Y-61342781D01*
X121211163Y-61342785D01*
X121350514Y-61482136D01*
X121350518Y-61482139D01*
X121514379Y-61591628D01*
X121514392Y-61591635D01*
X121675072Y-61658190D01*
X121696465Y-61667051D01*
X121696469Y-61667051D01*
X121696470Y-61667052D01*
X121889756Y-61705500D01*
X121889759Y-61705500D01*
X122086843Y-61705500D01*
X122216882Y-61679632D01*
X122280135Y-61667051D01*
X122462214Y-61591632D01*
X122626082Y-61482139D01*
X122765439Y-61342782D01*
X122874932Y-61178914D01*
X122950351Y-60996835D01*
X122980364Y-60845951D01*
X122988800Y-60803543D01*
X122988800Y-60606456D01*
X122950352Y-60413170D01*
X122950351Y-60413169D01*
X122950351Y-60413165D01*
X122939287Y-60386454D01*
X122874935Y-60231092D01*
X122874928Y-60231079D01*
X122765439Y-60067218D01*
X122765436Y-60067214D01*
X122626085Y-59927863D01*
X122626081Y-59927860D01*
X122538474Y-59869322D01*
X122493669Y-59815709D01*
X122484962Y-59746384D01*
X122515117Y-59683357D01*
X122574560Y-59646638D01*
X122644419Y-59647886D01*
X122645683Y-59648289D01*
X122883630Y-59725602D01*
X123132372Y-59765000D01*
X123384228Y-59765000D01*
X123632969Y-59725602D01*
X123872484Y-59647780D01*
X124096875Y-59533446D01*
X124096881Y-59533442D01*
X124198997Y-59459250D01*
X124198998Y-59459250D01*
X123582325Y-58842578D01*
X123613558Y-58829641D01*
X123736397Y-58747563D01*
X123840863Y-58643097D01*
X123922941Y-58520258D01*
X123935877Y-58489025D01*
X124552550Y-59105698D01*
X124552550Y-59105697D01*
X124626742Y-59003581D01*
X124626746Y-59003575D01*
X124741080Y-58779184D01*
X124818902Y-58539669D01*
X124858300Y-58290928D01*
X124858300Y-58039071D01*
X124818902Y-57790330D01*
X124741080Y-57550815D01*
X124626742Y-57326416D01*
X124552550Y-57224301D01*
X124552550Y-57224300D01*
X123935877Y-57840973D01*
X123922941Y-57809742D01*
X123840863Y-57686903D01*
X123736397Y-57582437D01*
X123613558Y-57500359D01*
X123582324Y-57487421D01*
X124198998Y-56870748D01*
X124096883Y-56796557D01*
X123872484Y-56682219D01*
X123632969Y-56604397D01*
X123384228Y-56565000D01*
X123132372Y-56565000D01*
X122883630Y-56604397D01*
X122644115Y-56682219D01*
X122419713Y-56796559D01*
X122317601Y-56870747D01*
X122317600Y-56870748D01*
X122934274Y-57487421D01*
X122903042Y-57500359D01*
X122780203Y-57582437D01*
X122675737Y-57686903D01*
X122593659Y-57809742D01*
X122580721Y-57840974D01*
X121964048Y-57224300D01*
X121964047Y-57224301D01*
X121889859Y-57326413D01*
X121775519Y-57550815D01*
X121697697Y-57790330D01*
X121658300Y-58039071D01*
X121658300Y-58290928D01*
X121697697Y-58539669D01*
X121775519Y-58779184D01*
X121889857Y-59003583D01*
X121964048Y-59105697D01*
X121964048Y-59105698D01*
X122580721Y-58489024D01*
X122593659Y-58520258D01*
X122675737Y-58643097D01*
X122780203Y-58747563D01*
X122903042Y-58829641D01*
X122934274Y-58842577D01*
X122317600Y-59459250D01*
X122419719Y-59533444D01*
X122422442Y-59535113D01*
X122423260Y-59536017D01*
X122423659Y-59536307D01*
X122423598Y-59536390D01*
X122469319Y-59586923D01*
X122480743Y-59655852D01*
X122453088Y-59720016D01*
X122395134Y-59759042D01*
X122325280Y-59760541D01*
X122310203Y-59755403D01*
X122280139Y-59742950D01*
X122280129Y-59742947D01*
X122086843Y-59704500D01*
X122086841Y-59704500D01*
X121889759Y-59704500D01*
X121889757Y-59704500D01*
X121696470Y-59742947D01*
X121696460Y-59742950D01*
X121514392Y-59818364D01*
X121514379Y-59818371D01*
X121350518Y-59927860D01*
X121350514Y-59927863D01*
X121211163Y-60067214D01*
X121211160Y-60067218D01*
X121101671Y-60231079D01*
X121101664Y-60231092D01*
X121026250Y-60413160D01*
X121026247Y-60413170D01*
X120987800Y-60606456D01*
X120987800Y-60606457D01*
X120987800Y-60606459D01*
X120987800Y-60803541D01*
X120987800Y-60803543D01*
X120987799Y-60803543D01*
X114098800Y-60803543D01*
X114098800Y-60606456D01*
X114060352Y-60413170D01*
X114060351Y-60413169D01*
X114060351Y-60413165D01*
X114049287Y-60386454D01*
X113984935Y-60231092D01*
X113984928Y-60231079D01*
X113875439Y-60067218D01*
X113875436Y-60067214D01*
X113736085Y-59927863D01*
X113736081Y-59927860D01*
X113572220Y-59818371D01*
X113572207Y-59818364D01*
X113390139Y-59742950D01*
X113390129Y-59742947D01*
X113196843Y-59704500D01*
X113196841Y-59704500D01*
X112999759Y-59704500D01*
X112999757Y-59704500D01*
X112806470Y-59742947D01*
X112806460Y-59742950D01*
X112624392Y-59818364D01*
X112624379Y-59818371D01*
X112460518Y-59927860D01*
X112460514Y-59927863D01*
X112321163Y-60067214D01*
X112321160Y-60067218D01*
X112211671Y-60231079D01*
X112211664Y-60231092D01*
X112136250Y-60413160D01*
X112136247Y-60413170D01*
X112097800Y-60606456D01*
X112097800Y-60606457D01*
X112097800Y-60606459D01*
X112097800Y-60803541D01*
X112097800Y-60803543D01*
X112097799Y-60803543D01*
X110168800Y-60803543D01*
X110168800Y-60564049D01*
X110132004Y-60284558D01*
X110059042Y-60012261D01*
X109951163Y-59751817D01*
X109951161Y-59751814D01*
X109951159Y-59751809D01*
X109810216Y-59507690D01*
X109810212Y-59507683D01*
X109638600Y-59284035D01*
X109638598Y-59284033D01*
X109638595Y-59284029D01*
X109439270Y-59084704D01*
X109439265Y-59084700D01*
X109215617Y-58913088D01*
X109215611Y-58913084D01*
X109215609Y-58913083D01*
X108971490Y-58772140D01*
X108971479Y-58772135D01*
X108711043Y-58664259D01*
X108438739Y-58591295D01*
X108159258Y-58554500D01*
X108159251Y-58554500D01*
X107877349Y-58554500D01*
X107877341Y-58554500D01*
X107597860Y-58591295D01*
X107325556Y-58664259D01*
X107065120Y-58772135D01*
X107065109Y-58772140D01*
X106820990Y-58913083D01*
X106820984Y-58913087D01*
X106820983Y-58913088D01*
X106758785Y-58960814D01*
X106597329Y-59084704D01*
X106398004Y-59284029D01*
X106226389Y-59507682D01*
X106226383Y-59507690D01*
X106085440Y-59751809D01*
X106085435Y-59751820D01*
X105977559Y-60012256D01*
X105904595Y-60284560D01*
X105867800Y-60564041D01*
X103930363Y-60564041D01*
X103900352Y-60413172D01*
X103900352Y-60413170D01*
X103900351Y-60413165D01*
X103889287Y-60386454D01*
X103824935Y-60231092D01*
X103824928Y-60231079D01*
X103715439Y-60067218D01*
X103715436Y-60067214D01*
X103576085Y-59927863D01*
X103576081Y-59927860D01*
X103488474Y-59869322D01*
X103443669Y-59815709D01*
X103434962Y-59746384D01*
X103465117Y-59683357D01*
X103524560Y-59646638D01*
X103594419Y-59647886D01*
X103595683Y-59648289D01*
X103833630Y-59725602D01*
X104082372Y-59765000D01*
X104334228Y-59765000D01*
X104582969Y-59725602D01*
X104822484Y-59647780D01*
X105046875Y-59533446D01*
X105046881Y-59533442D01*
X105148997Y-59459250D01*
X105148998Y-59459250D01*
X104532325Y-58842578D01*
X104563558Y-58829641D01*
X104686397Y-58747563D01*
X104790863Y-58643097D01*
X104872941Y-58520258D01*
X104885877Y-58489025D01*
X105502550Y-59105698D01*
X105502550Y-59105697D01*
X105576742Y-59003581D01*
X105576746Y-59003575D01*
X105691080Y-58779184D01*
X105768902Y-58539669D01*
X105808300Y-58290928D01*
X105808300Y-58039071D01*
X105768902Y-57790330D01*
X105691080Y-57550815D01*
X105576742Y-57326416D01*
X105502550Y-57224301D01*
X105502550Y-57224300D01*
X104885877Y-57840973D01*
X104872941Y-57809742D01*
X104790863Y-57686903D01*
X104686397Y-57582437D01*
X104563558Y-57500359D01*
X104532324Y-57487421D01*
X105148998Y-56870748D01*
X105046883Y-56796557D01*
X104822484Y-56682219D01*
X104582969Y-56604397D01*
X104334228Y-56565000D01*
X104082372Y-56565000D01*
X103833630Y-56604397D01*
X103594115Y-56682219D01*
X103369713Y-56796559D01*
X103267601Y-56870747D01*
X103267600Y-56870748D01*
X103884274Y-57487421D01*
X103853042Y-57500359D01*
X103730203Y-57582437D01*
X103625737Y-57686903D01*
X103543659Y-57809742D01*
X103530721Y-57840974D01*
X102914048Y-57224300D01*
X102914047Y-57224301D01*
X102839859Y-57326413D01*
X102725519Y-57550815D01*
X102647697Y-57790330D01*
X102608300Y-58039071D01*
X102608300Y-58290928D01*
X102647697Y-58539669D01*
X102725519Y-58779184D01*
X102839857Y-59003583D01*
X102914048Y-59105697D01*
X102914048Y-59105698D01*
X103530721Y-58489024D01*
X103543659Y-58520258D01*
X103625737Y-58643097D01*
X103730203Y-58747563D01*
X103853042Y-58829641D01*
X103884274Y-58842577D01*
X103267600Y-59459250D01*
X103369719Y-59533444D01*
X103372442Y-59535113D01*
X103373260Y-59536017D01*
X103373659Y-59536307D01*
X103373598Y-59536390D01*
X103419319Y-59586923D01*
X103430743Y-59655852D01*
X103403088Y-59720016D01*
X103345134Y-59759042D01*
X103275280Y-59760541D01*
X103260203Y-59755403D01*
X103230139Y-59742950D01*
X103230129Y-59742947D01*
X103036843Y-59704500D01*
X103036841Y-59704500D01*
X102839759Y-59704500D01*
X102839757Y-59704500D01*
X102646470Y-59742947D01*
X102646460Y-59742950D01*
X102464392Y-59818364D01*
X102464379Y-59818371D01*
X102300518Y-59927860D01*
X102300514Y-59927863D01*
X102161163Y-60067214D01*
X102161160Y-60067218D01*
X102051671Y-60231079D01*
X102051664Y-60231092D01*
X101976250Y-60413160D01*
X101976247Y-60413170D01*
X101937800Y-60606456D01*
X101937800Y-60606457D01*
X101937800Y-60606459D01*
X101937800Y-60803541D01*
X101937800Y-60803543D01*
X101937799Y-60803543D01*
X95048800Y-60803543D01*
X95048800Y-60606456D01*
X95010352Y-60413170D01*
X95010351Y-60413169D01*
X95010351Y-60413165D01*
X94999287Y-60386454D01*
X94934935Y-60231092D01*
X94934928Y-60231079D01*
X94825439Y-60067218D01*
X94825436Y-60067214D01*
X94686085Y-59927863D01*
X94686081Y-59927860D01*
X94522220Y-59818371D01*
X94522207Y-59818364D01*
X94340139Y-59742950D01*
X94340129Y-59742947D01*
X94146843Y-59704500D01*
X94146841Y-59704500D01*
X93949759Y-59704500D01*
X93949757Y-59704500D01*
X93756470Y-59742947D01*
X93756460Y-59742950D01*
X93574392Y-59818364D01*
X93574379Y-59818371D01*
X93410518Y-59927860D01*
X93410514Y-59927863D01*
X93271163Y-60067214D01*
X93271160Y-60067218D01*
X93161671Y-60231079D01*
X93161664Y-60231092D01*
X93086250Y-60413160D01*
X93086247Y-60413170D01*
X93047800Y-60606456D01*
X93047800Y-60606457D01*
X93047800Y-60606459D01*
X93047800Y-60803541D01*
X93047800Y-60803543D01*
X93047799Y-60803543D01*
X91118800Y-60803543D01*
X91118800Y-60564049D01*
X91082004Y-60284558D01*
X91009042Y-60012261D01*
X90901163Y-59751817D01*
X90901161Y-59751814D01*
X90901159Y-59751809D01*
X90760216Y-59507690D01*
X90760212Y-59507683D01*
X90588600Y-59284035D01*
X90588598Y-59284033D01*
X90588595Y-59284029D01*
X90389270Y-59084704D01*
X90389265Y-59084700D01*
X90165617Y-58913088D01*
X90165611Y-58913084D01*
X90165609Y-58913083D01*
X89921490Y-58772140D01*
X89921479Y-58772135D01*
X89661043Y-58664259D01*
X89388739Y-58591295D01*
X89109258Y-58554500D01*
X89109251Y-58554500D01*
X88827349Y-58554500D01*
X88827341Y-58554500D01*
X88547860Y-58591295D01*
X88275556Y-58664259D01*
X88015120Y-58772135D01*
X88015109Y-58772140D01*
X87770990Y-58913083D01*
X87770984Y-58913087D01*
X87770983Y-58913088D01*
X87708785Y-58960814D01*
X87547329Y-59084704D01*
X87348004Y-59284029D01*
X87176389Y-59507682D01*
X87176383Y-59507690D01*
X87035440Y-59751809D01*
X87035435Y-59751820D01*
X86927559Y-60012256D01*
X86854595Y-60284560D01*
X86817800Y-60564041D01*
X84880363Y-60564041D01*
X84850352Y-60413172D01*
X84850352Y-60413170D01*
X84850351Y-60413165D01*
X84839287Y-60386454D01*
X84774935Y-60231092D01*
X84774928Y-60231079D01*
X84665439Y-60067218D01*
X84665436Y-60067214D01*
X84526085Y-59927863D01*
X84526081Y-59927860D01*
X84438474Y-59869322D01*
X84393669Y-59815709D01*
X84384962Y-59746384D01*
X84415117Y-59683357D01*
X84474560Y-59646638D01*
X84544419Y-59647886D01*
X84545683Y-59648289D01*
X84783630Y-59725602D01*
X85032372Y-59765000D01*
X85284228Y-59765000D01*
X85532969Y-59725602D01*
X85772484Y-59647780D01*
X85996875Y-59533446D01*
X85996881Y-59533442D01*
X86098997Y-59459250D01*
X86098998Y-59459250D01*
X85482325Y-58842578D01*
X85513558Y-58829641D01*
X85636397Y-58747563D01*
X85740863Y-58643097D01*
X85822941Y-58520258D01*
X85835877Y-58489025D01*
X86452550Y-59105698D01*
X86452550Y-59105697D01*
X86526742Y-59003581D01*
X86526746Y-59003575D01*
X86641080Y-58779184D01*
X86718902Y-58539669D01*
X86758300Y-58290928D01*
X86758300Y-58039071D01*
X86718902Y-57790330D01*
X86641080Y-57550815D01*
X86526742Y-57326416D01*
X86452550Y-57224301D01*
X86452550Y-57224300D01*
X85835877Y-57840973D01*
X85822941Y-57809742D01*
X85740863Y-57686903D01*
X85636397Y-57582437D01*
X85513558Y-57500359D01*
X85482324Y-57487421D01*
X86098998Y-56870748D01*
X85996883Y-56796557D01*
X85772484Y-56682219D01*
X85532969Y-56604397D01*
X85284228Y-56565000D01*
X85032372Y-56565000D01*
X84783630Y-56604397D01*
X84544115Y-56682219D01*
X84319713Y-56796559D01*
X84217601Y-56870747D01*
X84217600Y-56870748D01*
X84834274Y-57487421D01*
X84803042Y-57500359D01*
X84680203Y-57582437D01*
X84575737Y-57686903D01*
X84493659Y-57809742D01*
X84480721Y-57840974D01*
X83864048Y-57224300D01*
X83864047Y-57224301D01*
X83789859Y-57326413D01*
X83675519Y-57550815D01*
X83597697Y-57790330D01*
X83558300Y-58039071D01*
X83558300Y-58290928D01*
X83597697Y-58539669D01*
X83675519Y-58779184D01*
X83789857Y-59003583D01*
X83864048Y-59105697D01*
X83864048Y-59105698D01*
X84480721Y-58489024D01*
X84493659Y-58520258D01*
X84575737Y-58643097D01*
X84680203Y-58747563D01*
X84803042Y-58829641D01*
X84834274Y-58842577D01*
X84217600Y-59459250D01*
X84319719Y-59533444D01*
X84322442Y-59535113D01*
X84323260Y-59536017D01*
X84323659Y-59536307D01*
X84323598Y-59536390D01*
X84369319Y-59586923D01*
X84380743Y-59655852D01*
X84353088Y-59720016D01*
X84295134Y-59759042D01*
X84225280Y-59760541D01*
X84210203Y-59755403D01*
X84180139Y-59742950D01*
X84180129Y-59742947D01*
X83986843Y-59704500D01*
X83986841Y-59704500D01*
X83789759Y-59704500D01*
X83789757Y-59704500D01*
X83596470Y-59742947D01*
X83596460Y-59742950D01*
X83414392Y-59818364D01*
X83414379Y-59818371D01*
X83250518Y-59927860D01*
X83250514Y-59927863D01*
X83111163Y-60067214D01*
X83111160Y-60067218D01*
X83001671Y-60231079D01*
X83001664Y-60231092D01*
X82926250Y-60413160D01*
X82926247Y-60413170D01*
X82887800Y-60606456D01*
X82887800Y-60606457D01*
X82887800Y-60606459D01*
X82887800Y-60803541D01*
X82887800Y-60803543D01*
X82887799Y-60803543D01*
X73008800Y-60803543D01*
X73008800Y-55499038D01*
X89907800Y-55499038D01*
X89907800Y-55750961D01*
X89947210Y-55999785D01*
X90025060Y-56239383D01*
X90139432Y-56463848D01*
X90287501Y-56667649D01*
X90287505Y-56667654D01*
X90465645Y-56845794D01*
X90465650Y-56845798D01*
X90643417Y-56974952D01*
X90669455Y-56993870D01*
X90812484Y-57066747D01*
X90893916Y-57108239D01*
X90893918Y-57108239D01*
X90893921Y-57108241D01*
X91133515Y-57186090D01*
X91382338Y-57225500D01*
X91382339Y-57225500D01*
X91634261Y-57225500D01*
X91634262Y-57225500D01*
X91883085Y-57186090D01*
X92122679Y-57108241D01*
X92347145Y-56993870D01*
X92550956Y-56845793D01*
X92729093Y-56667656D01*
X92877170Y-56463845D01*
X92991541Y-56239379D01*
X93069390Y-55999785D01*
X93108800Y-55750962D01*
X93108800Y-55499038D01*
X108957800Y-55499038D01*
X108957800Y-55750961D01*
X108997210Y-55999785D01*
X109075060Y-56239383D01*
X109189432Y-56463848D01*
X109337501Y-56667649D01*
X109337505Y-56667654D01*
X109515645Y-56845794D01*
X109515650Y-56845798D01*
X109693417Y-56974952D01*
X109719455Y-56993870D01*
X109862484Y-57066747D01*
X109943916Y-57108239D01*
X109943918Y-57108239D01*
X109943921Y-57108241D01*
X110183515Y-57186090D01*
X110432338Y-57225500D01*
X110432339Y-57225500D01*
X110684261Y-57225500D01*
X110684262Y-57225500D01*
X110933085Y-57186090D01*
X111172679Y-57108241D01*
X111397145Y-56993870D01*
X111600956Y-56845793D01*
X111779093Y-56667656D01*
X111927170Y-56463845D01*
X112041541Y-56239379D01*
X112119390Y-55999785D01*
X112158800Y-55750962D01*
X112158800Y-55499038D01*
X112119390Y-55250215D01*
X112041541Y-55010621D01*
X112041539Y-55010618D01*
X112041539Y-55010616D01*
X112000047Y-54929184D01*
X111927170Y-54786155D01*
X111867859Y-54704520D01*
X111779098Y-54582350D01*
X111779094Y-54582345D01*
X111600954Y-54404205D01*
X111600949Y-54404201D01*
X111397148Y-54256132D01*
X111397147Y-54256131D01*
X111397145Y-54256130D01*
X111327047Y-54220413D01*
X111172683Y-54141760D01*
X110933085Y-54063910D01*
X110684262Y-54024500D01*
X110432338Y-54024500D01*
X110307926Y-54044205D01*
X110183514Y-54063910D01*
X109943916Y-54141760D01*
X109719451Y-54256132D01*
X109515650Y-54404201D01*
X109515645Y-54404205D01*
X109337505Y-54582345D01*
X109337501Y-54582350D01*
X109189432Y-54786151D01*
X109075060Y-55010616D01*
X108997210Y-55250214D01*
X108957800Y-55499038D01*
X93108800Y-55499038D01*
X93069390Y-55250215D01*
X92991541Y-55010621D01*
X92991539Y-55010618D01*
X92991539Y-55010616D01*
X92950047Y-54929184D01*
X92877170Y-54786155D01*
X92817859Y-54704520D01*
X92729098Y-54582350D01*
X92729094Y-54582345D01*
X92550954Y-54404205D01*
X92550949Y-54404201D01*
X92347148Y-54256132D01*
X92347147Y-54256131D01*
X92347145Y-54256130D01*
X92277047Y-54220413D01*
X92122683Y-54141760D01*
X91883085Y-54063910D01*
X91634262Y-54024500D01*
X91382338Y-54024500D01*
X91257926Y-54044205D01*
X91133514Y-54063910D01*
X90893916Y-54141760D01*
X90669451Y-54256132D01*
X90465650Y-54404201D01*
X90465645Y-54404205D01*
X90287505Y-54582345D01*
X90287501Y-54582350D01*
X90139432Y-54786151D01*
X90025060Y-55010616D01*
X89947210Y-55250214D01*
X89907800Y-55499038D01*
X73008800Y-55499038D01*
X73008800Y-39727353D01*
X90659500Y-39727353D01*
X90659500Y-39885046D01*
X90690261Y-40039689D01*
X90690264Y-40039701D01*
X90750602Y-40185372D01*
X90750609Y-40185385D01*
X90838210Y-40316488D01*
X90838213Y-40316492D01*
X90949707Y-40427986D01*
X90949711Y-40427989D01*
X91080814Y-40515590D01*
X91080827Y-40515597D01*
X91210250Y-40569205D01*
X91226503Y-40575937D01*
X91381153Y-40606699D01*
X91381156Y-40606700D01*
X91381158Y-40606700D01*
X91538844Y-40606700D01*
X91538845Y-40606699D01*
X91693497Y-40575937D01*
X91839179Y-40515594D01*
X91970289Y-40427989D01*
X92081789Y-40316489D01*
X92169394Y-40185379D01*
X92229737Y-40039697D01*
X92249113Y-39942285D01*
X92260638Y-39884350D01*
X92293023Y-39822439D01*
X92294518Y-39820916D01*
X92943416Y-39172019D01*
X93004739Y-39138534D01*
X93031097Y-39135700D01*
X102318831Y-39135700D01*
X102318847Y-39135701D01*
X102326443Y-39135701D01*
X102484554Y-39135701D01*
X102484557Y-39135701D01*
X102637285Y-39094777D01*
X102687404Y-39065839D01*
X102774216Y-39015720D01*
X102793362Y-38996573D01*
X102804199Y-38989512D01*
X102825773Y-38983028D01*
X102845541Y-38972234D01*
X102870683Y-38969530D01*
X102871112Y-38969402D01*
X102871321Y-38969462D01*
X102871899Y-38969400D01*
X105199438Y-38969400D01*
X105266477Y-38989085D01*
X105312232Y-39041889D01*
X105322176Y-39111047D01*
X105313999Y-39140853D01*
X105244808Y-39307894D01*
X105244806Y-39307902D01*
X105208300Y-39491428D01*
X105208300Y-39735000D01*
X105858300Y-39735000D01*
X105858300Y-40235000D01*
X105208300Y-40235000D01*
X105208300Y-40478571D01*
X105244806Y-40662097D01*
X105244808Y-40662105D01*
X105316419Y-40834991D01*
X105316424Y-40835000D01*
X105420386Y-40990589D01*
X105420389Y-40990593D01*
X105552706Y-41122910D01*
X105552710Y-41122913D01*
X105705731Y-41225159D01*
X105750536Y-41278771D01*
X105759243Y-41348096D01*
X105729089Y-41411124D01*
X105724521Y-41415942D01*
X103037684Y-44102781D01*
X102976361Y-44136266D01*
X102950003Y-44139100D01*
X98817416Y-44139100D01*
X98750377Y-44119415D01*
X98748525Y-44118202D01*
X98616985Y-44030309D01*
X98616972Y-44030302D01*
X98471301Y-43969964D01*
X98471289Y-43969961D01*
X98316645Y-43939200D01*
X98316642Y-43939200D01*
X98158958Y-43939200D01*
X98158955Y-43939200D01*
X98004310Y-43969961D01*
X98004298Y-43969964D01*
X97858627Y-44030302D01*
X97858614Y-44030309D01*
X97727511Y-44117910D01*
X97727507Y-44117913D01*
X97616013Y-44229407D01*
X97616010Y-44229411D01*
X97528409Y-44360514D01*
X97528402Y-44360527D01*
X97468064Y-44506198D01*
X97468061Y-44506210D01*
X97437300Y-44660853D01*
X97437300Y-44818546D01*
X97468061Y-44973189D01*
X97468064Y-44973201D01*
X97528402Y-45118872D01*
X97528409Y-45118885D01*
X97616010Y-45249988D01*
X97616013Y-45249992D01*
X97727507Y-45361486D01*
X97727511Y-45361489D01*
X97858614Y-45449090D01*
X97858627Y-45449097D01*
X98004298Y-45509435D01*
X98004303Y-45509437D01*
X98158953Y-45540199D01*
X98158956Y-45540200D01*
X98158958Y-45540200D01*
X98316644Y-45540200D01*
X98316645Y-45540199D01*
X98471297Y-45509437D01*
X98616979Y-45449094D01*
X98748089Y-45361489D01*
X98748088Y-45361489D01*
X98748824Y-45360998D01*
X98815501Y-45340120D01*
X98817715Y-45340100D01*
X103163431Y-45340100D01*
X103163447Y-45340101D01*
X103171043Y-45340101D01*
X103329154Y-45340101D01*
X103329157Y-45340101D01*
X103481885Y-45299177D01*
X103532004Y-45270239D01*
X103618816Y-45220120D01*
X103730620Y-45108316D01*
X103730620Y-45108314D01*
X103740828Y-45098107D01*
X103740830Y-45098104D01*
X109347505Y-39491428D01*
X113858300Y-39491428D01*
X113858300Y-39735000D01*
X114508300Y-39735000D01*
X114508300Y-40235000D01*
X113858300Y-40235000D01*
X113858300Y-40478571D01*
X113894806Y-40662097D01*
X113894808Y-40662105D01*
X113966419Y-40834991D01*
X113966424Y-40835000D01*
X114070386Y-40990589D01*
X114070389Y-40990593D01*
X114202706Y-41122910D01*
X114202710Y-41122913D01*
X114358299Y-41226875D01*
X114358312Y-41226882D01*
X114531189Y-41298489D01*
X114531196Y-41298491D01*
X114558300Y-41303882D01*
X114558300Y-40551988D01*
X114568240Y-40569205D01*
X114624095Y-40625060D01*
X114692504Y-40664556D01*
X114768804Y-40685000D01*
X114847796Y-40685000D01*
X114924096Y-40664556D01*
X114992505Y-40625060D01*
X115048360Y-40569205D01*
X115058300Y-40551988D01*
X115058300Y-41303881D01*
X115085403Y-41298491D01*
X115085410Y-41298489D01*
X115258287Y-41226882D01*
X115258300Y-41226875D01*
X115413889Y-41122913D01*
X115413893Y-41122910D01*
X115546210Y-40990593D01*
X115546213Y-40990589D01*
X115650175Y-40835000D01*
X115650180Y-40834991D01*
X115721791Y-40662105D01*
X115721793Y-40662097D01*
X115758299Y-40478571D01*
X115758300Y-40478569D01*
X115758300Y-40235000D01*
X115108300Y-40235000D01*
X115108300Y-39735000D01*
X115758300Y-39735000D01*
X115758300Y-39491430D01*
X115758299Y-39491428D01*
X115721793Y-39307902D01*
X115721791Y-39307894D01*
X115650180Y-39135008D01*
X115650175Y-39134999D01*
X115546213Y-38979410D01*
X115546210Y-38979406D01*
X115413893Y-38847089D01*
X115413889Y-38847086D01*
X115258300Y-38743124D01*
X115258291Y-38743119D01*
X115085403Y-38671507D01*
X115085400Y-38671506D01*
X115058300Y-38666115D01*
X115058300Y-39418011D01*
X115048360Y-39400795D01*
X114992505Y-39344940D01*
X114924096Y-39305444D01*
X114847796Y-39285000D01*
X114768804Y-39285000D01*
X114692504Y-39305444D01*
X114624095Y-39344940D01*
X114568240Y-39400795D01*
X114558300Y-39418011D01*
X114558300Y-38666116D01*
X114558299Y-38666115D01*
X114531199Y-38671506D01*
X114531196Y-38671507D01*
X114358308Y-38743119D01*
X114358299Y-38743124D01*
X114202710Y-38847086D01*
X114202706Y-38847089D01*
X114070389Y-38979406D01*
X114070386Y-38979410D01*
X113966424Y-39134999D01*
X113966419Y-39135008D01*
X113894808Y-39307894D01*
X113894806Y-39307902D01*
X113858300Y-39491428D01*
X109347505Y-39491428D01*
X110992143Y-37846790D01*
X111053464Y-37813307D01*
X111055536Y-37812874D01*
X111156382Y-37792816D01*
X111285848Y-37739188D01*
X111355316Y-37731720D01*
X111380750Y-37739188D01*
X111510218Y-37792816D01*
X111647858Y-37820194D01*
X111674528Y-37825499D01*
X111674532Y-37825500D01*
X111674533Y-37825500D01*
X111842068Y-37825500D01*
X111842069Y-37825499D01*
X112006382Y-37792816D01*
X112135848Y-37739188D01*
X112205316Y-37731720D01*
X112230750Y-37739188D01*
X112360218Y-37792816D01*
X112497858Y-37820194D01*
X112524528Y-37825499D01*
X112524532Y-37825500D01*
X112524533Y-37825500D01*
X112692068Y-37825500D01*
X112692069Y-37825499D01*
X112856382Y-37792816D01*
X112986503Y-37738917D01*
X113055967Y-37731449D01*
X113081405Y-37738918D01*
X113210363Y-37792334D01*
X113210371Y-37792336D01*
X113374577Y-37824999D01*
X113374580Y-37825000D01*
X113542020Y-37825000D01*
X113542022Y-37824999D01*
X113706228Y-37792336D01*
X113706236Y-37792334D01*
X113809885Y-37749402D01*
X113879355Y-37741933D01*
X113941834Y-37773208D01*
X113962615Y-37800209D01*
X113963036Y-37799929D01*
X114070386Y-37960589D01*
X114070389Y-37960593D01*
X114202706Y-38092910D01*
X114202710Y-38092913D01*
X114358299Y-38196875D01*
X114358312Y-38196882D01*
X114531189Y-38268489D01*
X114531196Y-38268491D01*
X114558300Y-38273882D01*
X114558300Y-37521988D01*
X114568240Y-37539205D01*
X114624095Y-37595060D01*
X114692504Y-37634556D01*
X114768804Y-37655000D01*
X114847796Y-37655000D01*
X114924096Y-37634556D01*
X114992505Y-37595060D01*
X115048360Y-37539205D01*
X115058300Y-37521988D01*
X115058300Y-38273881D01*
X115085403Y-38268491D01*
X115085410Y-38268489D01*
X115258287Y-38196882D01*
X115258300Y-38196875D01*
X115413889Y-38092913D01*
X115413893Y-38092910D01*
X115546210Y-37960593D01*
X115546213Y-37960589D01*
X115650175Y-37805000D01*
X115650180Y-37804991D01*
X115721791Y-37632105D01*
X115721793Y-37632097D01*
X115758299Y-37448571D01*
X115758300Y-37448569D01*
X115758300Y-36855000D01*
X115108300Y-36855000D01*
X115108300Y-36355000D01*
X115758300Y-36355000D01*
X115758300Y-35761430D01*
X115758299Y-35761428D01*
X115721793Y-35577902D01*
X115721791Y-35577894D01*
X115650180Y-35405008D01*
X115650175Y-35404999D01*
X115546213Y-35249410D01*
X115546210Y-35249406D01*
X115413893Y-35117089D01*
X115413889Y-35117086D01*
X115258300Y-35013124D01*
X115258291Y-35013119D01*
X115093258Y-34944761D01*
X115038855Y-34900920D01*
X115016790Y-34834626D01*
X115034069Y-34766927D01*
X115085206Y-34719316D01*
X115140711Y-34706200D01*
X120609203Y-34706200D01*
X120676242Y-34725885D01*
X120696884Y-34742519D01*
X122862725Y-36908360D01*
X122896210Y-36969683D01*
X122896661Y-36971849D01*
X122927561Y-37127191D01*
X122927564Y-37127201D01*
X122987902Y-37272872D01*
X122987909Y-37272885D01*
X123075510Y-37403988D01*
X123075513Y-37403992D01*
X123187007Y-37515486D01*
X123187011Y-37515489D01*
X123318114Y-37603090D01*
X123318127Y-37603097D01*
X123443434Y-37655000D01*
X123463803Y-37663437D01*
X123596338Y-37689800D01*
X123618453Y-37694199D01*
X123618456Y-37694200D01*
X123618458Y-37694200D01*
X123776144Y-37694200D01*
X123776145Y-37694199D01*
X123930797Y-37663437D01*
X124076479Y-37603094D01*
X124207589Y-37515489D01*
X124319089Y-37403989D01*
X124406694Y-37272879D01*
X124467037Y-37127197D01*
X124497800Y-36972542D01*
X124497800Y-36814858D01*
X124497800Y-36814855D01*
X124497799Y-36814853D01*
X124489872Y-36775000D01*
X124467037Y-36660203D01*
X124451910Y-36623683D01*
X124406697Y-36514527D01*
X124406690Y-36514514D01*
X124319089Y-36383411D01*
X124319086Y-36383407D01*
X124207592Y-36271913D01*
X124207588Y-36271910D01*
X124076485Y-36184309D01*
X124076472Y-36184302D01*
X123930801Y-36123964D01*
X123930791Y-36123961D01*
X123775449Y-36093061D01*
X123713538Y-36060676D01*
X123711960Y-36059125D01*
X121396890Y-33744055D01*
X121396888Y-33744052D01*
X121278017Y-33625181D01*
X121278016Y-33625180D01*
X121191204Y-33575060D01*
X121191204Y-33575059D01*
X121191200Y-33575058D01*
X121141085Y-33546123D01*
X120988357Y-33505199D01*
X120830243Y-33505199D01*
X120822647Y-33505199D01*
X120822631Y-33505200D01*
X100341457Y-33505200D01*
X100183342Y-33505200D01*
X100030615Y-33546123D01*
X100030614Y-33546123D01*
X100030612Y-33546124D01*
X100030609Y-33546125D01*
X99980496Y-33575059D01*
X99980495Y-33575060D01*
X99937089Y-33600120D01*
X99893685Y-33625179D01*
X99893682Y-33625181D01*
X97382639Y-36136225D01*
X97321316Y-36169710D01*
X97319150Y-36170161D01*
X97163808Y-36201061D01*
X97163798Y-36201064D01*
X97018127Y-36261402D01*
X97018114Y-36261409D01*
X96887011Y-36349010D01*
X96887007Y-36349013D01*
X96775513Y-36460507D01*
X96775510Y-36460511D01*
X96687909Y-36591614D01*
X96687902Y-36591627D01*
X96627564Y-36737298D01*
X96627561Y-36737310D01*
X96596800Y-36891953D01*
X96596800Y-37049646D01*
X96627561Y-37204289D01*
X96627564Y-37204301D01*
X96687902Y-37349972D01*
X96687909Y-37349985D01*
X96775510Y-37481088D01*
X96775513Y-37481092D01*
X96887007Y-37592586D01*
X96887011Y-37592589D01*
X97018114Y-37680190D01*
X97018127Y-37680197D01*
X97056615Y-37696139D01*
X97111019Y-37739979D01*
X97133084Y-37806273D01*
X97115805Y-37873973D01*
X97064668Y-37921584D01*
X97009163Y-37934700D01*
X92651940Y-37934700D01*
X92611019Y-37945664D01*
X92611019Y-37945665D01*
X92573751Y-37955651D01*
X92499214Y-37975623D01*
X92499209Y-37975626D01*
X92362290Y-38054675D01*
X92362282Y-38054681D01*
X91445339Y-38971625D01*
X91384016Y-39005110D01*
X91381850Y-39005561D01*
X91226508Y-39036461D01*
X91226498Y-39036464D01*
X91080827Y-39096802D01*
X91080814Y-39096809D01*
X90949711Y-39184410D01*
X90949707Y-39184413D01*
X90838213Y-39295907D01*
X90838210Y-39295911D01*
X90750609Y-39427014D01*
X90750602Y-39427027D01*
X90690264Y-39572698D01*
X90690261Y-39572710D01*
X90659500Y-39727353D01*
X73008800Y-39727353D01*
X73008800Y-33249500D01*
X73028485Y-33182461D01*
X73081289Y-33136706D01*
X73132800Y-33125500D01*
X147883800Y-33125500D01*
X147950839Y-33145185D01*
G37*
%TD.AperFunction*%
%TD*%
M02*
